<?xml version="1.0" encoding="iso-8859-1"?>
<svg width="24" height="26" viewBox="0 0 24 26" fill="none" xmlns="http://www.w3.org/2000/svg">
<path fill-rule="evenodd" clip-rule="evenodd" d="M3.83691 0.166626C3.19259 0.166626 2.67025 0.688966 2.67025 1.33329V2.69912C1.31086 3.17959 0.336914 4.47604 0.336914 5.99996C0.336914 7.52388 1.31086 8.82033 2.67025 9.3008V24.6666C2.67025 25.311 3.19259 25.8333 3.83691 25.8333C4.48124 25.8333 5.00358 25.311 5.00358 24.6666V9.3008C6.36297 8.82033 7.33691 7.52388 7.33691 5.99996C7.33691 4.47604 6.36297 3.17959 5.00358 2.69912V1.33329C5.00358 0.688966 4.48124 0.166626 3.83691 0.166626ZM12.0036 0.166626C11.3592 0.166626 10.8369 0.688966 10.8369 1.33329V9.69912C9.47753 10.1796 8.50358 11.4761 8.50358 13C8.50358 14.5239 9.47753 15.8204 10.8369 16.3008V24.6666C10.8369 25.311 11.3592 25.8333 12.0036 25.8333C12.6479 25.8333 13.1702 25.311 13.1702 24.6666V16.3008C14.5296 15.8204 15.5036 14.5239 15.5036 13C15.5036 11.4761 14.5296 10.1796 13.1702 9.69912V1.33329C13.1702 0.688966 12.6479 0.166626 12.0036 0.166626ZM19.0036 1.33329C19.0036 0.688966 19.5259 0.166626 20.1702 0.166626C20.8146 0.166626 21.3369 0.688966 21.3369 1.33329V16.6991C22.6963 17.1795 23.6702 18.4761 23.6702 20C23.6702 21.5239 22.6963 22.8204 21.3369 23.3008V24.6666C21.3369 25.311 20.8146 25.8333 20.1702 25.8333C19.5259 25.8333 19.0036 25.311 19.0036 24.6666V23.3008C17.6442 22.8204 16.6702 21.5239 16.6702 20C16.6702 18.4761 17.6442 17.1795 19.0036 16.6991V1.33329Z" fill="#282828"/>
</svg>
