<?xml version="1.0" encoding="iso-8859-1"?>
<svg width="28" height="28" viewBox="0 0 28 28" fill="none" xmlns="http://www.w3.org/2000/svg">
<path d="M9.37731 22.3916C9.83293 22.8471 10.5716 22.8471 11.0272 22.3916C11.4828 21.936 11.4828 21.1972 11.0272 20.7417L9.37731 22.3916ZM2.33561 13.6999L1.51065 12.8749C1.05504 13.3306 1.05504 14.0693 1.51065 14.525L2.33561 13.6999ZM11.0272 6.65825C11.4828 6.20264 11.4828 5.46395 11.0272 5.00833C10.5716 4.55272 9.83293 4.55272 9.37731 5.00833L11.0272 6.65825ZM25.6698 14.8666C26.314 14.8666 26.8364 14.3442 26.8364 13.6999C26.8364 13.0557 26.314 12.5332 25.6698 12.5332V14.8666ZM11.0272 20.7417L3.16057 12.8749L1.51065 14.525L9.37731 22.3916L11.0272 20.7417ZM3.16057 14.525L11.0272 6.65825L9.37731 5.00833L1.51065 12.8749L3.16057 14.525ZM2.33561 14.8666H25.6698V12.5332H2.33561V14.8666Z" fill="#282828"/>
</svg>
