<?xml version="1.0" encoding="iso-8859-1"?>
<svg width="26" height="26" viewBox="0 0 26 26" fill="none" xmlns="http://www.w3.org/2000/svg">
<path fill-rule="evenodd" clip-rule="evenodd" d="M0.989443 1.0917C0.533836 1.54732 0.533836 2.28601 0.989443 2.74163L11.3014 13.0535L0.989175 23.3657C0.533556 23.8214 0.533556 24.56 0.989175 25.0156C1.44478 25.4713 2.18348 25.4713 2.63909 25.0156L12.9513 14.7035L23.2633 25.0155C23.7189 25.4711 24.4577 25.4711 24.9132 25.0155C25.3688 24.5599 25.3688 23.8212 24.9132 23.3656L14.6012 13.0535L24.913 2.7418C25.3686 2.28618 25.3686 1.5475 24.913 1.09188C24.4573 0.636273 23.7187 0.636273 23.263 1.09188L12.9513 11.4036L2.63937 1.0917C2.18375 0.636098 1.44506 0.636098 0.989443 1.0917Z" fill="#282828"/>
</svg>