<?xml version="1.0" encoding="iso-8859-1"?>
<svg width="150" height="150" viewBox="0 0 150 150" fill="none" xmlns="http://www.w3.org/2000/svg">
<path fill-rule="evenodd" clip-rule="evenodd" d="M18.7266 75.0004C18.7266 47.3861 41.1123 25.0004 68.7266 25.0004C77.8441 25.0004 86.3741 27.4351 93.7222 31.6857C96.7097 33.4141 100.533 32.3931 102.262 29.4052C103.99 26.4172 102.969 22.594 99.9809 20.8656C90.7816 15.5441 80.1003 12.5004 68.7266 12.5004C34.2087 12.5004 6.22656 40.4826 6.22656 75.0004C6.22656 109.518 34.2087 137.5 68.7266 137.5C103.244 137.5 131.227 109.518 131.227 75.0004C131.227 71.5485 128.428 68.7504 124.977 68.7504C121.525 68.7504 118.727 71.5485 118.727 75.0004C118.727 102.615 96.3409 125 68.7266 125C41.1123 125 18.7266 102.615 18.7266 75.0004ZM141.935 29.3798C144.354 26.9171 144.318 22.96 141.856 20.5413C139.393 18.1226 135.436 18.1583 133.018 20.6209L76.0972 78.576L54.4401 56.4808C52.0238 54.0156 48.0668 53.9759 45.6016 56.3922C43.1366 58.8084 43.0969 62.7654 45.5131 65.2304L71.6291 91.8754C72.8041 93.0735 74.4116 93.7498 76.0897 93.7504C77.7678 93.751 79.3759 93.0773 80.5516 91.8798L141.935 29.3798Z" fill="#282828"/>
</svg>
