<?xml version="1.0" encoding="iso-8859-1"?>
<svg width="28" height="28" viewBox="0 0 28 28" fill="none" xmlns="http://www.w3.org/2000/svg">
<path fill-rule="evenodd" clip-rule="evenodd" d="M14.0035 13.0186C17.3523 13.0186 20.067 10.3654 20.067 7.09259C20.067 3.81978 17.3523 1.16663 14.0035 1.16663C10.6547 1.16663 7.94004 3.81978 7.94004 7.09259C7.94004 10.3654 10.6547 13.0186 14.0035 13.0186ZM25.6704 21.6683C23.6661 18.8562 20.8415 15.6569 17.5934 14.1764C16.444 14.4923 15.2416 14.6937 14.0037 14.6937C12.7657 14.6937 11.5633 14.4923 10.4138 14.1764C7.1657 15.6566 4.34111 18.856 2.33691 21.6681C5.05034 24.8161 9.26763 26.8385 14.0037 26.8385C18.7398 26.8385 22.9569 24.8162 25.6704 21.6683Z" fill="#282828"/>
</svg>
