<?xml version="1.0" encoding="iso-8859-1"?>
<svg width="28" height="28" viewBox="0 0 28 28" fill="none" xmlns="http://www.w3.org/2000/svg">
<path fill-rule="evenodd" clip-rule="evenodd" d="M11.7232 19.9221C7.18084 19.9221 3.50228 16.2438 3.50228 11.711C3.50228 7.17821 7.18084 3.49996 11.7232 3.49996C16.2655 3.49996 19.944 7.17821 19.944 11.711C19.944 14.1418 18.8893 16.324 17.204 17.8311C15.7481 19.1329 13.8308 19.9221 11.7232 19.9221ZM19.9691 18.2931C21.4135 16.4892 22.2773 14.2009 22.2773 11.711C22.2773 5.88751 17.5521 1.16663 11.7232 1.16663C5.89421 1.16663 1.16895 5.88751 1.16895 11.711C1.16895 17.5345 5.89421 22.2554 11.7232 22.2554C14.2031 22.2554 16.4832 21.4008 18.2848 19.9705L24.8055 26.4852C25.2698 26.949 26.0228 26.949 26.4871 26.4852C26.9515 26.0212 26.9515 25.269 26.4871 24.805L19.9691 18.2931Z" fill="#282828"/>
</svg>
