<?xml version="1.0" encoding="iso-8859-1"?>
<svg width="60" height="21" viewBox="0 0 60 21" fill="none" xmlns="http://www.w3.org/2000/svg">
<g clip-path="url(#clip0)">
<path d="M24.0259 1.57227L20.9766 19.4667H25.8534L28.9052 1.57227H24.0259Z" fill="#282828"/>
<path d="M16.8854 1.59068L12.1089 13.7941L11.5996 11.9515C10.6576 9.73133 7.98336 6.5428 4.84375 4.53335L9.21135 19.4562L14.3717 19.4474L22.052 1.58691L16.8854 1.59068Z" fill="#282828"/>
<path d="M9.74871 2.8737C9.46523 1.78368 8.64364 1.45881 7.62387 1.41992H0.0627169L0 1.77615C5.8841 3.20359 9.77756 6.64299 11.3932 10.7785L9.74871 2.8737Z" fill="#282828"/>
<path d="M38.7904 5.00062C40.386 4.97553 41.5425 5.32424 42.4406 5.68549L42.8808 5.89246L43.5406 2.01404C42.5748 1.65154 41.0608 1.2627 39.1718 1.2627C34.3526 1.2627 30.9558 3.68984 30.9295 7.16812C30.8981 9.73825 33.3491 11.1732 35.2005 12.0299C37.1009 12.908 37.7381 13.4661 37.7293 14.2501C37.7142 15.448 36.214 15.9974 34.8129 15.9974C32.8599 15.9974 31.8226 15.7277 30.2208 15.0604L29.5924 14.7744L28.9062 18.7795C30.0477 19.28 32.1537 19.7102 34.3401 19.7328C39.4665 19.7328 42.7981 17.3345 42.8332 13.6179C42.8545 11.5846 41.5538 10.033 38.7353 8.75987C37.0294 7.9295 35.9857 7.37759 35.9958 6.53969C35.9958 5.79587 36.8813 5.00062 38.7904 5.00062Z" fill="#282828"/>
<path d="M56.0546 1.5918H52.2866C51.1163 1.5918 50.2458 1.9104 49.7315 3.07693L42.4902 19.4761H47.6117C47.6117 19.4761 48.4471 17.271 48.6365 16.7881C49.1972 16.7881 54.1731 16.7956 54.8818 16.7956C55.0273 17.4203 55.4764 19.4761 55.4764 19.4761H60.0008L56.0546 1.5918ZM50.0401 13.1254C50.4415 12.0981 51.9831 8.12439 51.9831 8.12439C51.9567 8.17331 52.3807 7.08956 52.6328 6.41598L52.9614 7.95882C52.9614 7.95882 53.8959 12.2311 54.0916 13.1254H50.0401Z" fill="#282828"/>
</g>
<defs>
<clipPath id="clip0">
<rect width="60" height="21" fill="white"/>
</clipPath>
</defs>
</svg>