<?xml version="1.0" encoding="iso-8859-1"?>
<svg width="23" height="17" viewBox="0 0 23 17" fill="none" xmlns="http://www.w3.org/2000/svg">
<path fill-rule="evenodd" clip-rule="evenodd" d="M2.87174 12.8126V2.27092H12.4551V5.14592V12.8126H8.14275C7.70565 12.2307 7.00974 11.8542 6.22591 11.8542C5.44208 11.8542 4.74617 12.2307 4.30907 12.8126H2.87174ZM3.878 14.7293H1.91341C1.38414 14.7293 0.955078 14.3002 0.955078 13.7709V1.31258C0.955078 0.783313 1.38414 0.354248 1.91341 0.354248H13.4134C13.9427 0.354248 14.3717 0.783313 14.3717 1.31258V4.18758H16.8228C17.0928 4.18758 17.3502 4.30148 17.5319 4.50127L19.6426 6.823L21.7891 9.18424C21.9496 9.36067 22.0384 9.59047 22.0384 9.82891V13.7709C22.0384 14.3002 21.6094 14.7293 21.0801 14.7293H19.5947C19.3727 15.8228 18.4058 16.6459 17.2467 16.6459C16.0876 16.6459 15.1208 15.8228 14.8988 14.7293H13.4134H8.57382C8.35184 15.8228 7.385 16.6459 6.22591 16.6459C5.06683 16.6459 4.09998 15.8228 3.878 14.7293ZM14.3717 12.8126H15.3299C15.767 12.2307 16.4629 11.8542 17.2467 11.8542C18.0306 11.8542 18.7265 12.2307 19.1636 12.8126H20.1217V10.1994L18.2243 8.11224L16.3989 6.10425H14.3717V12.8126Z" fill="#282828"/>
</svg>
