<?xml version="1.0" encoding="iso-8859-1"?>
<svg width="15" height="15" viewBox="0 0 15 15" fill="none" xmlns="http://www.w3.org/2000/svg">
<path d="M4.81694 0.809772C4.57286 0.56571 4.17714 0.56571 3.93306 0.809772C3.68898 1.05383 3.68898 1.44958 3.93306 1.69365L4.81694 0.809772ZM10.625 7.50171L11.0669 7.94365C11.311 7.69958 11.311 7.30383 11.0669 7.05977L10.625 7.50171ZM3.93306 13.3098C3.68898 13.5538 3.68898 13.9496 3.93306 14.1937C4.17714 14.4377 4.57286 14.4377 4.81694 14.1937L3.93306 13.3098ZM3.93306 1.69365L10.1831 7.94365L11.0669 7.05977L4.81694 0.809772L3.93306 1.69365ZM10.1831 7.05977L3.93306 13.3098L4.81694 14.1937L11.0669 7.94365L10.1831 7.05977Z" fill="#C1C6CA"/>
</svg>
