<?xml version="1.0" encoding="iso-8859-1"?>
<svg width="21" height="23" viewBox="0 0 21 23" fill="none" xmlns="http://www.w3.org/2000/svg">
<path fill-rule="evenodd" clip-rule="evenodd" d="M10.5032 10.6938C13.254 10.6938 15.4839 8.5144 15.4839 5.82601C15.4839 3.13763 13.254 0.958252 10.5032 0.958252C7.75243 0.958252 5.52249 3.13763 5.52249 5.82601C5.52249 8.5144 7.75243 10.6938 10.5032 10.6938ZM20.0867 17.7989C18.4404 15.489 16.1201 12.8609 13.452 11.6448C12.5079 11.9043 11.5202 12.0697 10.5034 12.0697C9.48646 12.0697 8.49871 11.9043 7.55449 11.6448C4.88643 12.8608 2.56622 15.4888 0.919922 17.7988C3.1488 20.3846 6.61301 22.0459 10.5034 22.0459C14.3937 22.0459 17.8578 20.3847 20.0867 17.7989Z" fill="#282828"/>
</svg>
