<?xml version="1.0" encoding="iso-8859-1"?>
<svg width="23" height="17" viewBox="0 0 23 17" fill="none" xmlns="http://www.w3.org/2000/svg">
<path fill-rule="evenodd" clip-rule="evenodd" d="M2.87174 2.27092V4.18758H20.1217V2.27092H2.87174ZM2.87174 14.7293V7.06258H20.1217V14.7293H2.87174ZM1.91341 0.354248C1.38414 0.354248 0.955078 0.783313 0.955078 1.31258V15.6876C0.955078 16.2169 1.38414 16.6459 1.91341 16.6459H21.0801C21.6094 16.6459 22.0384 16.2169 22.0384 15.6876V1.31258C22.0384 0.783313 21.6094 0.354248 21.0801 0.354248H1.91341ZM5.26758 9.93758C5.00294 9.93758 4.78841 10.1522 4.78841 10.4167V11.3751C4.78841 11.6397 5.00294 11.8542 5.26758 11.8542H7.18424C7.44888 11.8542 7.66341 11.6397 7.66341 11.3751V10.4167C7.66341 10.1522 7.44888 9.93758 7.18424 9.93758H5.26758ZM8.62174 10.4167C8.62174 10.1522 8.83628 9.93758 9.10091 9.93758H11.0176C11.2822 9.93758 11.4967 10.1522 11.4967 10.4167V11.3751C11.4967 11.6397 11.2822 11.8542 11.0176 11.8542H9.10091C8.83628 11.8542 8.62174 11.6397 8.62174 11.3751V10.4167ZM14.8509 9.93758C14.5863 9.93758 14.3717 10.1522 14.3717 10.4167V11.3751C14.3717 11.6397 14.5863 11.8542 14.8509 11.8542H17.7259C17.9905 11.8542 18.2051 11.6397 18.2051 11.3751V10.4167C18.2051 10.1522 17.9905 9.93758 17.7259 9.93758H14.8509Z" fill="#282828"/>
</svg>
