<?xml version="1.0" encoding="iso-8859-1"?>
<svg width="19" height="20" viewBox="0 0 19 20" fill="none" xmlns="http://www.w3.org/2000/svg">
<path fill-rule="evenodd" clip-rule="evenodd" d="M11.1617 1.91352C10.426 0.625505 8.56888 0.625505 7.83316 1.91352L7.74605 2.066C7.28143 2.8795 6.2968 3.23786 5.41794 2.91338L5.2532 2.85257C3.86169 2.33879 2.43904 3.53254 2.70337 4.99214L2.73466 5.16493C2.9016 6.08678 2.37769 6.99421 1.49588 7.31056L1.33058 7.36986C-0.0656222 7.87074 -0.388111 9.69966 0.752583 10.6479L0.887622 10.7601C1.60806 11.359 1.79001 12.3909 1.31785 13.2001L1.22934 13.3518C0.481749 14.6329 1.41032 16.2412 2.89363 16.2343L3.06924 16.2336C4.00607 16.2293 4.80875 16.9028 4.96716 17.8261L4.99686 17.9992C5.24768 19.4611 6.99283 20.0963 8.12469 19.1376L8.25866 19.0241C8.97358 18.4187 10.0214 18.4187 10.7362 19.0241L10.8703 19.1376C12.0021 20.0963 13.7473 19.4611 13.9981 17.9992L14.0278 17.8261C14.1862 16.9028 14.9889 16.2293 15.9257 16.2336L16.1014 16.2343C17.5847 16.2412 18.5132 14.6329 17.7656 13.3518L17.6772 13.2001C17.205 12.3909 17.3869 11.359 18.1074 10.7601L18.2424 10.6478C19.3831 9.69966 19.0606 7.87074 17.6644 7.36986L17.4991 7.31056C16.6172 6.99421 16.0933 6.08678 16.2603 5.16493L16.2916 4.99214C16.5559 3.53254 15.1333 2.33879 13.7418 2.85257L13.577 2.91338C12.6981 3.23786 11.7135 2.87949 11.2489 2.066L11.1617 1.91352ZM9.49788 14.3333C11.6149 14.3333 13.3312 12.617 13.3312 10.5C13.3312 8.38287 11.6149 6.66663 9.49788 6.66663C7.38079 6.66663 5.66455 8.38287 5.66455 10.5C5.66455 12.617 7.38079 14.3333 9.49788 14.3333Z" fill="#282828"/>
</svg>
