<?xml version="1.0" encoding="iso-8859-1"?>
<svg width="125" height="125" viewBox="0 0 125 125" fill="none" xmlns="http://www.w3.org/2000/svg">
<g clip-path="url(#clip0)">
<path d="M116.62 31.1274C111.031 21.5523 103.449 13.971 93.8741 8.38221C84.297 2.79369 73.8422 0 62.5019 0C51.1626 0 40.7048 2.79369 31.1294 8.38221C21.5534 13.9702 13.9722 21.5514 8.38306 31.1274C2.79369 40.7039 0 51.1618 0 62.5001C0 73.8391 2.79454 84.2953 8.38221 93.8724C13.971 103.447 21.5523 111.029 31.1282 116.618C40.7048 122.206 51.1618 125 62.5007 125C73.8397 125 84.2978 122.206 93.8738 116.618C103.449 111.031 111.03 103.447 116.619 93.8724C122.206 84.2961 125 73.8385 125 62.5001C125 51.1606 122.206 40.7025 116.62 31.1274ZM110.435 82.7227C107.667 89.1521 103.965 94.6859 99.3269 99.3249C94.689 103.962 89.1541 107.665 82.7247 110.432C76.2956 113.2 69.5552 114.583 62.5021 114.583C55.4491 114.583 48.7087 113.2 42.279 110.432C35.8502 107.665 30.3156 103.962 25.6768 99.3249C21.0395 94.6859 17.3368 89.1526 14.5687 82.7227C11.8018 76.2944 10.418 69.5521 10.418 62.5001C10.418 55.4471 11.8016 48.7067 14.5687 42.277C17.3356 35.8482 21.0383 30.3144 25.6768 25.6748C30.3156 21.0375 35.8502 17.3345 42.279 14.5667C48.7079 11.8007 55.4494 10.4171 62.5021 10.4171C69.5541 10.4171 76.2967 11.7999 82.7247 14.5667C89.1541 17.3336 94.6879 21.0366 99.3269 25.6748C103.965 30.3136 107.667 35.8474 110.435 42.277C113.202 48.7059 114.586 55.4462 114.586 62.5001C114.587 69.5532 113.202 76.2953 110.435 82.7227Z" fill="black"/>
<path d="M81.056 73.7314C75.5777 69.7163 69.3903 67.7087 62.5012 67.7087C55.6112 67.7087 49.4261 69.7151 43.9461 73.7314C38.4665 77.7462 34.7228 83.0354 32.7164 89.5998C32.2828 90.9558 32.3906 92.2738 33.0416 93.5468C33.6932 94.8206 34.7228 95.6752 36.1343 96.1102C37.4905 96.5451 38.806 96.436 40.081 95.7841C41.3554 95.1328 42.2094 94.1026 42.6438 92.692C44.0003 88.3494 46.5095 84.8374 50.1714 82.1515C53.8334 79.4669 57.9425 78.1247 62.5 78.1247C67.057 78.1247 71.1687 79.4678 74.8284 82.1515C78.4923 84.8377 81.0009 88.3494 82.3569 92.692C82.7901 94.1023 83.6578 95.1325 84.9604 95.7841C86.2625 96.4357 87.5931 96.5451 88.9479 96.1102C90.305 95.6752 91.3075 94.8206 91.9591 93.5468C92.6107 92.2738 92.7198 90.9558 92.284 89.5998C90.2802 83.0362 86.5353 77.7453 81.056 73.7314Z" fill="black"/>
<path d="M41.6674 52.0854C44.542 52.0854 46.9974 51.0661 49.032 49.0329C51.0669 46.9992 52.0842 44.5438 52.0842 41.6683C52.0842 38.7925 51.0669 36.3383 49.032 34.3037C46.9971 32.2691 44.542 31.2512 41.6674 31.2512C38.7919 31.2512 36.3366 32.2691 34.3019 34.3037C32.2682 36.3386 31.25 38.7928 31.25 41.6683C31.25 44.5438 32.267 46.9992 34.3019 49.0329C36.3374 51.067 38.7919 52.0854 41.6674 52.0854Z" fill="black"/>
<path d="M83.3342 31.2488C80.4584 31.2488 78.0022 32.2667 75.9673 34.3013C73.9344 36.3362 72.915 38.7904 72.915 41.6659C72.915 44.5414 73.9344 46.9967 75.9673 49.0305C78.0022 51.0648 80.4584 52.083 83.3342 52.083C86.2077 52.083 88.6639 51.0637 90.6988 49.0305C92.7337 46.9967 93.751 44.5414 93.751 41.6659C93.751 38.7901 92.7337 36.3359 90.6988 34.3013C88.6639 32.2667 86.2077 31.2488 83.3342 31.2488Z" fill="black"/>
</g>
<defs>
<clipPath id="clip0">
<rect width="125" height="125" fill="white"/>
</clipPath>
</defs>
</svg>
