<?xml version="1.0" encoding="iso-8859-1"?>
<svg width="359" height="275" viewBox="0 0 359 275" fill="none" xmlns="http://www.w3.org/2000/svg">
<path d="M188.584 37.3349C188.691 37.7334 188.881 37.95 189.007 37.8163C189.132 37.6826 189.544 37.9738 189.922 38.4635C190.32 38.98 190.807 39.3006 191.082 39.227C191.455 39.1269 191.508 39.2021 191.332 39.5856C191.161 39.9584 191.202 40.0768 191.507 40.0962C191.821 40.116 191.845 40.2559 191.62 40.7518C191.402 41.2321 191.426 41.3879 191.72 41.4066C191.932 41.42 192.138 41.5553 192.179 41.7072C192.22 41.8592 192.106 41.9393 191.927 41.8854C191.74 41.8291 191.723 41.9554 191.888 42.1815C192.045 42.3984 192.028 42.6148 191.851 42.6623C191.616 42.7254 191.651 42.8805 191.982 43.234C192.347 43.6237 192.349 43.7426 191.991 43.8384C191.632 43.9348 191.634 44.0123 192.002 44.2424C192.473 44.5367 193.09 43.9954 192.856 43.4931C192.795 43.3632 192.88 43.162 193.044 43.046C193.24 42.9072 193.344 43.0644 193.347 43.5054C193.349 43.8742 193.448 44.0774 193.567 43.9568C193.686 43.8363 194.063 43.7633 194.404 43.7945C194.897 43.8395 194.788 43.9606 193.879 44.379C193.165 44.7081 192.774 45.0573 192.84 45.3066C192.899 45.5264 192.7 45.7726 192.398 45.8535C192.096 45.9345 191.742 46.2961 191.611 46.6572C191.376 47.3046 190.135 48.4344 189.64 48.4524C189.5 48.4575 188.715 48.836 187.896 49.2935C187.077 49.751 185.636 50.4281 184.694 50.7983C183.751 51.1685 182.94 51.6052 182.891 51.7688C182.842 51.9324 182.524 52.1438 182.184 52.2385C181.845 52.3334 180.905 52.9918 180.095 53.7019C179.286 54.412 178.409 55.0534 178.147 55.1273C177.885 55.2013 177.627 55.4102 177.572 55.5917C177.518 55.7731 177.617 55.8831 177.792 55.8361C178.184 55.7312 178.382 57.0352 177.995 57.1685C177.842 57.221 177.203 57.5733 176.574 57.9513C175.944 58.3294 175.098 58.6438 174.693 58.6501C174.289 58.6564 173.587 58.8945 173.134 59.1793C172.681 59.4641 171.638 60.0264 170.817 60.4288C168.561 61.5333 167.395 62.2637 167.465 62.5271C167.538 62.8 181.986 58.7246 185.49 57.4427C187.336 56.7673 188.07 56.62 188.94 56.7506C189.547 56.8418 190.113 56.9178 190.197 56.9194C190.28 56.9211 190.762 56.9767 191.266 57.0429C191.771 57.1091 192.364 57.0313 192.583 56.8699C192.803 56.7086 196.531 55.5766 200.869 54.3544C205.207 53.1323 209.294 51.8521 209.952 51.5096C210.61 51.1671 212.632 50.3306 214.447 49.6507C216.261 48.9709 217.954 48.2189 218.208 47.9798C218.463 47.7406 219.309 47.4383 220.087 47.3079C220.866 47.1776 221.542 46.9414 221.59 46.7831C221.637 46.6248 221.814 46.5369 221.983 46.5877C222.151 46.6385 222.253 46.5452 222.209 46.3802C222.165 46.2153 222.231 46.0801 222.356 46.0798C222.859 46.0784 225.148 44.9131 225.088 44.6887C225.014 44.4123 227.026 43.3809 227.861 43.2672C228.168 43.2254 228.589 42.8703 228.797 42.478C229.005 42.0857 229.388 41.6914 229.65 41.6018C229.911 41.5121 230.88 41.2068 231.804 40.9233C232.727 40.6398 233.952 40.1244 234.526 39.7781C235.1 39.4317 236.03 38.9479 236.594 38.703C237.158 38.4581 237.52 38.1644 237.399 38.0504C237.022 37.6944 237.62 37.4145 242.423 35.6987C242.679 35.6075 242.832 35.4183 242.765 35.2783C242.698 35.1382 242.877 34.8805 243.163 34.7055C243.45 34.5306 243.946 34.0826 244.267 33.71C244.687 33.2226 245.707 32.7483 247.904 32.0193C249.583 31.462 251.254 30.9405 251.618 30.8605C251.982 30.7805 252.616 30.4081 253.027 30.0329C253.452 29.6453 253.88 29.4426 254.018 29.5636C254.359 29.8605 255.447 29.9417 255.134 29.6469C254.805 29.3361 255.085 29.2814 255.947 29.4884C257.687 29.9061 264.709 27.3526 265.186 26.1291C265.333 25.7503 265.301 25.5299 265.097 25.5176C264.922 25.507 264.749 25.3855 264.712 25.2477C264.675 25.1098 264.841 25.0178 265.081 25.0431C265.32 25.0684 265.564 24.9305 265.622 24.7367C265.777 24.2191 264.101 24.7373 263.312 25.4508C262.95 25.7785 262.107 26.2937 261.438 26.5957C260.769 26.8978 260.01 27.246 259.752 27.3694C259.493 27.4929 259.237 27.427 259.182 27.223C259.112 26.9607 258.739 26.9739 257.907 27.2682C256.998 27.5899 256.827 27.5879 257.154 27.2595C257.386 27.0258 257.485 26.7485 257.374 26.6432C257.133 26.4163 258.64 25.7194 261.638 24.6712C263.321 24.0827 263.896 23.9833 264.167 24.2333C264.421 24.468 264.492 24.4594 264.427 24.2018C264.294 23.6789 266.015 23.3079 266.771 23.6965C267.125 23.878 267.381 23.906 267.342 23.7587C267.298 23.5963 268.208 23.3216 269.654 23.0607C270.965 22.8242 273.011 22.4452 274.2 22.2186C275.388 21.992 276.819 21.8428 277.378 21.887C277.937 21.9312 278.695 21.8219 279.062 21.6441C279.429 21.4664 279.844 21.4295 279.985 21.5621C280.142 21.7103 280.074 21.7532 279.809 21.6733C279.541 21.5925 279.476 21.6362 279.638 21.7889C279.943 22.0769 281.375 22.0282 282.99 21.6749C283.943 21.4665 284.167 21.5251 284.328 22.0246C284.502 22.5611 284.33 22.7009 282.712 23.3421C281.717 23.7366 280.577 24.1171 280.18 24.1875L279.457 24.3156L280.316 24.523C281.806 24.8826 283.154 24.8416 285.679 24.36C287.026 24.1029 289.011 23.8791 290.089 23.8626C292.57 23.8248 300.646 21.709 300.845 21.0447C300.913 20.8161 301.144 20.6816 301.357 20.7459C301.907 20.9117 307.135 19.6165 306.881 19.3771C306.644 19.1532 306.685 19.1374 310.352 18.0343C312.94 17.2557 314.016 16.8639 317.791 15.3239C319.512 14.6218 320.588 14.4714 321.76 14.7694C322.25 14.8942 322.195 15.0548 321.342 15.9794C320.654 16.7252 319.724 17.3045 318.249 17.9072C315.73 18.9358 313.355 20.0181 311.671 20.9036C310.664 21.4332 310.491 21.6404 310.718 22.0405C310.882 22.3277 311.143 22.423 311.352 22.2714C311.547 22.1292 311.745 22.154 311.791 22.3264C311.837 22.4988 311.653 22.7014 311.382 22.7766C310.96 22.8935 310.961 22.9369 311.386 23.0744C311.7 23.1761 311.757 23.2707 311.54 23.3319C311.351 23.3853 311.321 23.6 311.474 23.8109C311.667 24.0771 311.46 24.4299 310.791 24.9712L309.83 25.749L312.638 25.1798C314.182 24.8667 316.202 24.3939 317.127 24.129C318.052 23.8642 318.814 23.6634 318.819 23.6829C318.824 23.7024 318.653 24.0803 318.438 24.5226C318.223 24.965 318.025 25.2409 317.997 25.1356C317.968 25.0303 317.709 25.2087 317.421 25.5324C317.132 25.856 315.993 26.5199 314.888 27.0078C313.784 27.4957 312.424 28.2079 311.867 28.5904C311.309 28.973 310.394 29.414 309.832 29.5705C308.262 30.0078 304.574 32.1029 305.746 31.8915C305.892 31.8652 306.281 31.8342 306.611 31.8226C306.941 31.8109 307.376 31.7939 307.577 31.7847C308.261 31.7535 308.376 32.018 307.83 32.3677C307.531 32.5596 307.036 33.1144 306.73 33.6005C306.425 34.0865 305.892 34.5603 305.545 34.6532C305.198 34.7462 304.816 35.0362 304.696 35.2978C304.517 35.6887 304.777 35.7287 306.158 35.5226C307.082 35.3846 308.236 35.2312 308.723 35.1817C309.88 35.0638 314.288 33.8549 314.541 33.586C314.882 33.2231 318.082 32.2377 318.146 32.4759C318.179 32.601 318.058 32.9131 317.877 33.1695C317.696 33.4258 317.583 33.7685 317.627 33.9311C317.671 34.0937 317.767 34.1205 317.842 33.9907C317.917 33.8608 318.187 33.8507 318.442 33.9682C318.699 34.0866 318.873 34.0612 318.833 33.9113C318.793 33.7625 318.952 33.5896 319.185 33.5271C319.864 33.3453 319.759 33.6983 318.937 34.3619C318.012 35.1081 318.215 35.2629 320.005 35.1787C321.638 35.1019 322.073 35.5505 321.087 36.2934C320.066 37.0623 314.849 39.1031 311.777 39.9353C310.337 40.3255 308.844 40.8197 308.459 41.0338L307.76 41.4232L308.742 41.8673C309.282 42.1116 309.941 42.2584 310.205 42.1936C310.879 42.0283 311.203 42.4241 311.024 43.193C310.835 44.0049 308.719 45.9407 307.731 46.2054C307.314 46.317 307.106 46.5037 307.249 46.638C307.386 46.768 307.732 46.8119 308.018 46.7355C308.496 46.6072 309.218 47.1713 309.246 47.6959C309.275 48.2291 313.608 46.4631 313.839 45.8241C314.015 45.3361 320.945 42.3276 321.725 42.4004L322.467 42.4697L321.904 42.9981C321.595 43.2888 319.381 44.4193 316.985 45.5104C312.6 47.5069 311.628 48.3475 314.635 47.5415C315.56 47.2938 316.453 47.2277 316.791 47.382C317.27 47.6012 317.816 47.4645 320.031 46.5708C324.104 44.9275 326.456 43.9181 326.982 43.5877C327.331 43.3688 327.468 43.422 327.49 43.7852C327.521 44.3145 326.805 45.1375 325.565 45.9953C324.498 46.7336 325.331 46.9092 326.772 46.2496C327.396 45.9637 328.455 45.4866 329.126 45.1895L330.344 44.6492L329.557 45.9507C329.124 46.6665 328.782 47.2976 328.797 47.3533C328.811 47.4089 329.636 47.3325 330.629 47.1835C332.978 46.8311 334.369 47.1444 334.602 48.0781C334.725 48.5706 333.073 49.7182 331.405 50.2988C330.718 50.5378 329.193 51.2084 328.016 51.789C326.839 52.3696 325 53.1406 323.931 53.5023C322.861 53.8639 321.259 54.4985 320.371 54.9124C314.852 57.4829 313.616 58.0829 313.405 58.2931C313.275 58.4223 313.777 58.5143 314.52 58.4975C315.268 58.4807 315.915 58.6331 315.97 58.8388C316.098 59.3153 313.527 61.1135 311.065 62.269C309.868 62.8312 309.027 63.4155 308.813 63.8343C308.621 64.2092 307.777 64.8434 306.89 65.2787C304.879 66.2663 305.043 66.6479 307.579 66.8838C308.123 66.9343 308.55 67.1384 308.528 67.3373C308.479 67.7899 307.336 68.7662 306.637 68.9536C306.348 69.0311 306.224 69.2008 306.362 69.3308C306.5 69.4607 307.559 69.3135 308.715 69.0036C310.621 68.4929 311.464 68.5773 310.643 69.1966C309.909 69.7499 313.985 68.4645 315.919 67.5329C318.327 66.3727 319.761 66.2039 319.989 67.0538C320.094 67.4457 319.494 68.158 317.733 69.7305C316.074 71.2118 315.468 71.9167 315.77 72.0141C316.343 72.1991 315.948 72.6512 314.22 73.7863C311.782 75.3885 310.057 77.4411 310.547 78.1569C310.882 78.6458 309.918 79.2197 305.777 80.9972C303.718 81.8807 301.694 82.9049 301.278 83.2732C300.863 83.6414 299.92 84.1846 299.182 84.4801C297.15 85.295 293.404 87.39 292.894 87.9977C292.644 88.2942 292.058 88.6489 291.59 88.786C291.122 88.923 290.515 89.2128 290.24 89.4299C289.842 89.7443 289.972 89.7715 290.881 89.5635C293.314 89.0069 294.656 88.9023 295.088 89.2357C295.383 89.4632 295.747 89.4599 296.146 89.226C296.669 88.9191 296.696 88.9317 296.338 89.3168C296.11 89.5629 295.692 89.787 295.411 89.8148C295.13 89.8425 294.758 90.0185 294.584 90.2058C294.397 90.4073 293.942 90.47 293.47 90.3594C292.849 90.2138 292.575 90.2779 292.228 90.6503C291.947 90.9526 291.693 91.0431 291.538 90.8966C291.403 90.7693 290.567 90.8546 289.681 91.0861C288.795 91.3176 287.703 91.4101 287.255 91.2917C286.278 91.0338 285.985 91.0743 286.086 91.4531C286.128 91.6088 286.361 91.6831 286.603 91.6182C286.845 91.5532 287.004 91.6317 286.956 91.7925C286.908 91.9533 287.153 92.0833 287.502 92.0814C287.85 92.0794 288.125 92.2603 288.112 92.4833C288.089 92.8949 286.882 93.4557 283.054 94.8341C279.596 96.0794 278.655 96.5031 278.729 96.781C278.768 96.9272 278.991 96.9956 279.224 96.9332C279.46 96.8701 279.716 97.0712 279.8 97.3858C279.911 97.801 279.763 98.0025 279.245 98.1414C278.432 98.3592 278.41 98.8324 279.214 98.8279C279.511 98.8262 280.94 98.4344 282.388 97.9571C286.607 96.5671 288.342 96.1886 289.368 96.4342C289.89 96.559 290.384 96.5888 290.467 96.5004C290.55 96.4121 290.662 96.7125 290.715 97.1681C290.831 98.1621 291.269 98.2048 294.192 97.5072C295.942 97.0897 296.088 97.0966 295.569 97.5717C294.714 98.3532 291.269 100.069 289.131 100.778C288.039 101.141 287.052 101.655 286.746 102.02C286.094 102.799 285.612 102.935 284.924 102.537C284.614 102.358 283.886 102.363 283.207 102.549C281.115 103.121 273.512 106.011 272.534 106.606C271.621 107.162 271.604 107.217 272.062 108.089C272.35 108.639 272.453 109.141 272.323 109.367C272.176 109.623 272.241 109.832 272.533 110.039C273.427 110.673 272.613 111.072 268.452 112.04C265.218 112.792 264.234 113.118 263.673 113.625C263.079 114.16 260.107 115.476 258.014 116.13C257.706 116.226 256.849 116.589 256.109 116.937L254.764 117.568L256.091 117.434C256.821 117.359 258.927 116.825 260.771 116.246C262.615 115.666 265.273 114.903 266.678 114.549C268.082 114.194 270.766 113.271 272.641 112.497C276.351 110.965 280.222 109.551 281.932 109.104C282.528 108.948 283.066 108.688 283.127 108.526C283.188 108.364 283.631 108.109 284.111 107.959C284.591 107.809 284.955 107.581 284.921 107.452C284.886 107.323 285.166 107.221 285.542 107.226C286.077 107.233 286.116 107.195 285.722 107.051C285.288 106.893 285.287 106.849 285.712 106.731C285.983 106.655 286.167 106.452 286.121 106.278C286.069 106.084 286.352 106.067 286.855 106.233C287.765 106.533 288.126 106.522 287.788 106.204C287.666 106.089 287.801 105.861 288.089 105.697C288.388 105.526 288.649 105.539 288.699 105.726C288.75 105.916 289.233 105.934 289.847 105.77C290.521 105.589 290.849 105.368 290.749 105.163C290.641 104.941 290.928 104.795 291.671 104.695C292.888 104.53 294.225 104.879 294.372 105.399C294.434 105.621 294.526 105.566 294.629 105.247C294.754 104.86 294.838 104.927 295.007 105.545C295.287 106.564 295.054 107.56 294.503 107.708C294.266 107.772 294.185 107.93 294.323 108.06C294.461 108.19 294.346 108.368 294.068 108.455C293.147 108.744 292.602 109.074 292.083 109.656C291.617 110.178 290.252 110.391 290.136 109.96C290.116 109.882 290.286 109.838 290.516 109.862C290.746 109.886 291.054 109.637 291.201 109.308C291.431 108.792 291.421 108.757 291.131 109.059C290.872 109.328 290.808 109.277 290.854 108.836C290.89 108.494 290.743 108.21 290.489 108.13C289.856 107.931 289.418 108.118 290.004 108.337C290.384 108.479 290.23 108.56 289.383 108.665C288.76 108.742 288.065 109.011 287.827 109.266C287.501 109.616 287.274 109.671 286.891 109.495C286.483 109.307 286.368 109.37 286.3 109.823C286.254 110.132 286.262 110.474 286.318 110.585C286.373 110.695 286.239 110.833 286.019 110.892C285.799 110.951 285.609 111.158 285.597 111.352C285.586 111.546 285.214 111.845 284.771 112.016C284.328 112.187 283.876 112.559 283.766 112.844C283.656 113.128 283.438 113.295 283.281 113.214C283.125 113.134 283.136 113.269 283.307 113.516C283.688 114.067 283.163 114.269 282.767 113.723C282.515 113.376 282.437 113.402 282.081 113.954C281.702 114.542 281.671 114.547 281.531 114.038C281.406 113.588 281.356 113.581 281.222 113.998C280.983 114.741 281.078 114.863 281.886 114.851C282.398 114.843 282.656 115.024 282.736 115.447C282.863 116.122 282.011 116.88 280.859 117.117C279.785 117.338 278.949 117.953 279.076 118.428C279.158 118.733 278.902 118.898 278.107 119.05C276.946 119.272 275.115 120.104 274.529 120.676C274.238 120.961 274.279 121.003 274.74 120.899C275.054 120.827 275.963 120.659 276.76 120.523C279.224 120.105 282.419 119.241 283.51 118.699C284.258 118.326 284.519 118.285 284.439 118.553C284.37 118.782 284.464 118.826 284.684 118.666C284.892 118.514 285.337 118.673 285.757 119.049C286.271 119.508 286.387 119.749 286.165 119.896C285.956 120.034 286.057 120.188 286.471 120.365C287.033 120.605 287.009 120.636 286.2 120.708C285.712 120.752 285.492 120.82 285.711 120.86C286.517 121.006 286.216 121.46 285.118 121.754C284.404 121.946 283.951 121.927 283.888 121.705C283.815 121.445 283.752 121.47 283.649 121.801C283.561 122.083 283.414 122.161 283.254 122.01C282.982 121.753 282.628 121.873 281.846 122.489C281.578 122.7 280.943 122.993 280.435 123.141C279.27 123.478 279.078 124.283 280.236 123.973C280.695 123.85 281.165 123.921 281.322 124.137C281.508 124.394 281.422 124.565 281.056 124.663C280.758 124.743 280.454 124.995 280.382 125.223C280.194 125.818 279.203 126.727 278.858 126.623C278.696 126.575 278.519 126.686 278.464 126.87C278.409 127.055 278.013 127.3 277.584 127.414C277.155 127.529 276.168 128.015 275.392 128.495C274.166 129.251 274.071 129.375 274.67 129.433C275.05 129.47 277.433 128.927 279.967 128.225C282.501 127.524 284.768 127.008 285.005 127.079C285.25 127.153 285.482 127.052 285.545 126.844C285.673 126.415 294.384 123.782 294.698 124.077C294.808 124.181 295.075 124.137 295.291 123.98C295.558 123.786 295.565 123.658 295.315 123.582C295.111 123.521 295.331 123.367 295.803 123.241C296.276 123.114 296.695 123.132 296.735 123.281C296.775 123.43 296.958 123.338 297.142 123.078C297.326 122.818 297.592 122.671 297.732 122.752C297.872 122.833 297.735 123.225 297.428 123.623L296.869 124.347L297.539 124.021C298.126 123.736 298.148 123.748 297.716 124.117C297.005 124.723 295.655 125.042 294.753 124.816C293.873 124.596 292.953 124.993 293.097 125.53C293.163 125.777 292.634 126.038 291.357 126.388C290.206 126.703 289.492 126.774 289.44 126.579C289.394 126.408 289.253 126.519 289.127 126.827C288.962 127.23 288.245 127.615 286.545 128.211C285.25 128.665 283.436 129.431 282.514 129.914C281.592 130.396 280.435 130.912 279.943 131.06C279.452 131.207 278.46 131.673 277.74 132.093C276.512 132.811 276.665 132.785 280.205 131.682C282.28 131.035 284.169 130.452 284.401 130.387C284.634 130.322 287.479 129.237 290.723 127.977C293.967 126.716 297.521 125.402 298.619 125.057C299.718 124.712 300.532 124.349 300.43 124.251C300.328 124.154 300.792 123.926 301.461 123.746C302.131 123.567 303.774 122.927 305.113 122.327C307.408 121.297 312.945 119.386 312.251 119.863C312.074 119.985 312.033 120.181 312.159 120.3C312.285 120.419 312.032 120.618 311.598 120.743C311.163 120.867 310.427 121.33 309.962 121.771C309.497 122.212 308.894 122.76 308.622 122.989C307.728 123.74 291.799 130.969 287.961 132.366C286.822 132.78 283.542 134.019 280.671 135.118C277.8 136.218 274.003 137.639 272.232 138.275C270.461 138.912 268.45 139.781 267.763 140.207C266.86 140.766 266.435 140.908 266.233 140.717C265.977 140.476 263.025 141.352 259.53 142.706C259.002 142.911 257.319 143.499 255.791 144.013C253.048 144.934 248.956 146.66 246.722 147.837C246.091 148.17 245.436 148.4 245.267 148.349C245.097 148.298 243.183 149.032 241.014 149.981C237.804 151.386 236.932 151.675 236.33 151.533C235.725 151.392 235.06 151.621 232.671 152.795C228.693 154.749 223.502 157.295 220.915 158.561C219.736 159.137 218.031 160.001 217.126 160.48C216.22 160.96 215.06 161.463 214.548 161.6C214.036 161.737 213.093 162.185 212.454 162.596C211.376 163.29 209.075 164.357 202.888 167.029C199.709 168.402 199.073 168.693 195.871 170.235C194.395 170.946 191.972 172.079 190.487 172.752C189.001 173.426 187.421 174.142 186.975 174.344C183.822 175.775 183.19 175.933 182.371 175.499C181.928 175.264 181.528 174.928 181.48 174.751C181.433 174.574 181.303 174.47 181.191 174.52C181.079 174.57 180.693 174.673 180.333 174.75C179.786 174.867 179.701 174.79 179.819 174.285C179.992 173.544 179.621 173.269 179.219 173.839C178.766 174.479 178.782 174.008 179.245 173.056C179.488 172.556 180.097 172.004 180.718 171.72C181.624 171.305 181.708 171.187 181.306 170.902C180.703 170.474 181.079 170.336 163.556 177.384C162.353 177.868 160.176 178.649 158.719 179.119C157.263 179.59 154.644 180.501 152.9 181.144C151.157 181.786 148.853 182.601 147.782 182.955C146.71 183.308 145.366 183.864 144.794 184.19C144.223 184.516 141.821 185.309 139.458 185.953C137.095 186.596 135.008 187.225 134.82 187.349C134.358 187.657 127.828 189.779 126.235 190.139C125.531 190.299 124.713 190.305 124.418 190.153C123.756 189.813 122.386 190.128 116.141 192.057C113.271 192.944 110.675 193.907 109.866 194.385C108.81 195.009 106.941 195.604 101.91 196.914C98.2932 197.857 92.3075 199.542 88.6082 200.659C81.1116 202.923 81.5165 202.817 73.602 204.574C68.4778 205.71 65.5533 206.484 61.1558 207.867C60.3874 208.108 59.997 208.305 60.2881 208.303C60.5792 208.301 60.8531 208.433 60.8967 208.596C60.949 208.791 60.1676 209.048 58.6001 209.352C57.2933 209.605 53.3915 210.432 49.9294 211.191C46.4672 211.949 42.0097 212.865 40.0238 213.226C32.0453 214.676 29.0075 215.247 24.8836 216.075C14.5698 218.143 9.1553 219.317 3.55463 220.699C0.976027 221.335 -2.23805 222.058 -3.5878 222.306C-4.93752 222.554 -6.92908 223.007 -8.01348 223.313C-9.09793 223.618 -11.2905 224.084 -12.8861 224.347C-14.4816 224.61 -19.5646 225.778 -24.1816 226.941C-28.7987 228.105 -33.1712 229.083 -33.8985 229.116C-34.6257 229.148 -36.2385 229.373 -37.4824 229.616C-38.7262 229.859 -40.1614 230.099 -40.6715 230.15C-42.416 230.324 -45.0749 230.837 -48.9219 231.741C-52.3095 232.538 -55.6407 233.164 -60.6023 233.936C-61.402 234.061 -62.5109 234.246 -63.0666 234.348C-63.6223 234.451 -65.0528 234.708 -66.2455 234.921C-67.4381 235.133 -69.4521 235.502 -70.721 235.74C-71.9899 235.977 -73.1024 236.15 -73.1932 236.123C-73.284 236.096 -74.1022 236.19 -75.0114 236.333C-75.9207 236.476 -76.8702 236.571 -77.1213 236.544C-77.3724 236.518 -78.7134 236.76 -80.1013 237.082C-83.9131 237.967 -83.9079 237.966 -84.0305 237.509C-84.0931 237.275 -84.279 237.12 -84.4436 237.164C-84.6082 237.208 -84.611 237.369 -84.4498 237.521C-84.2499 237.709 -84.3299 237.779 -84.7009 237.74C-85.0003 237.708 -85.5257 237.758 -85.8685 237.849C-86.2892 237.962 -86.555 237.836 -86.6861 237.462C-86.9184 236.798 -86.7737 236.725 -86.0548 237.141C-85.3044 237.575 -84.6545 237.353 -85.0192 236.787C-85.1987 236.509 -85.1866 236.432 -84.9876 236.587C-84.7672 236.759 -83.9602 236.586 -82.4539 236.044C-79.8609 235.111 -77.8424 234.636 -74.048 234.065C-72.5266 233.836 -70.5639 233.529 -69.6865 233.384C-68.8091 233.239 -67.9297 233.128 -67.7324 233.139C-67.535 233.15 -67.3513 232.946 -67.3241 232.685C-67.2875 232.335 -67.0357 232.201 -66.3531 232.17C-65.281 232.122 -64.6076 232.032 -61.8422 231.57C-60.7259 231.383 -59.724 231.257 -59.6157 231.289C-59.3849 231.358 -55.5992 230.365 -50.4448 228.884C-47.1745 227.944 -44.8141 227.485 -42.9754 227.432C-41.9394 227.402 -35.0978 225.676 -35.1559 225.459C-35.1858 225.348 -36.0934 225.395 -37.1728 225.563C-38.2523 225.732 -39.4033 225.888 -39.7306 225.91C-42.0269 226.063 -47.9969 227.145 -52.7309 228.266C-53.8276 228.526 -54.8825 228.688 -55.0751 228.626C-55.3954 228.524 -64.2311 230.167 -64.664 230.409C-64.767 230.467 -65.8291 230.681 -67.0241 230.884C-68.8717 231.199 -73.5655 232.093 -74.7338 232.353C-75.1561 232.447 -75.3033 232.095 -74.9836 231.755C-74.7542 231.511 -72.6342 230.901 -70.6714 230.514C-70.0721 230.396 -69.4335 230.439 -69.2522 230.61C-69.007 230.842 -68.5089 230.758 -67.3065 230.283C-66.4176 229.931 -65.6188 229.571 -65.5313 229.481C-65.4439 229.391 -65.1276 229.459 -64.8285 229.632C-64.5294 229.805 -64.2467 229.819 -64.2001 229.664C-64.1098 229.363 -58.3757 227.944 -56.6437 227.795C-56.0737 227.746 -55.0865 227.594 -54.4498 227.458C-53.8131 227.322 -52.9708 227.286 -52.578 227.378C-52.0069 227.512 -51.884 227.47 -51.965 227.167C-52.0246 226.945 -51.6966 226.658 -51.1677 226.469C-48.9812 225.689 -45.8486 224.868 -43.3131 224.41C-41.4894 224.081 -40.7328 223.858 -41.0587 223.747C-42.373 223.298 -40.3815 222.37 -37.0272 221.867C-34.0536 221.422 -33.5331 221.301 -32.3367 220.777C-31.7194 220.507 -30.8114 220.286 -30.3189 220.286C-29.0215 220.286 -22.5758 219.176 -19.7627 218.467C-18.4361 218.133 -16.5006 217.725 -15.4617 217.561C-14.4228 217.397 -12.3469 217.004 -10.8488 216.688C-9.35059 216.372 -5.78527 215.688 -2.92584 215.167C-0.0664503 214.646 4.16853 213.804 6.48522 213.295C10.2605 212.467 10.703 212.317 10.7516 211.851C10.7979 211.408 11.2709 211.208 13.9571 210.499C15.6903 210.042 17.653 209.411 18.3187 209.098L19.529 208.527L17.3246 208.779C16.1123 208.918 14.6761 209.154 14.1332 209.304C13.5904 209.455 11.3126 209.857 9.0717 210.199C6.83082 210.541 2.60631 211.309 -0.316063 211.906C-3.23843 212.503 -5.92871 213.006 -6.29445 213.024C-6.66023 213.042 -9.57148 213.624 -12.7639 214.317C-18.5015 215.562 -22.5302 216.403 -25.6089 216.999C-26.4801 217.167 -29.4609 217.774 -32.2329 218.348C-35.005 218.922 -37.4713 219.384 -37.7136 219.374C-37.9559 219.365 -38.4344 219.329 -38.7768 219.294C-39.1193 219.26 -39.8979 219.327 -40.5071 219.444C-41.1163 219.561 -41.8163 219.494 -42.0627 219.296C-42.4184 219.009 -43.1835 219.099 -45.7795 219.732C-47.5773 220.171 -49.1965 220.485 -49.3776 220.431C-49.5587 220.377 -50.6807 220.514 -51.8711 220.735C-57.5614 221.791 -63.2279 222.929 -65.8127 223.535C-67.3804 223.902 -70.7577 224.525 -73.3177 224.92C-75.8777 225.314 -79.1283 225.901 -80.5411 226.225C-90.32 228.461 -98.1742 230.083 -102.357 230.729C-103.796 230.951 -106.304 231.402 -107.929 231.73C-109.554 232.058 -110.98 232.235 -111.098 232.124C-111.215 232.013 -110.894 231.799 -110.383 231.648C-109.872 231.498 -109.102 231.253 -108.671 231.103C-108.241 230.954 -107.81 230.906 -107.713 230.997C-107.616 231.089 -107.101 230.908 -106.57 230.595C-106.03 230.278 -104.763 229.89 -103.702 229.717C-102.657 229.548 -97.2095 228.232 -91.5971 226.793C-85.9846 225.354 -79.272 223.697 -76.6802 223.111C-72.0603 222.065 -70.7942 221.608 -73.877 222.1C-74.7321 222.236 -75.5099 222.302 -75.6053 222.247C-75.8609 222.099 -74.9613 221.323 -74.1348 220.978C-73.1717 220.576 -72.9526 220.133 -73.815 220.331C-74.1943 220.418 -76.1899 220.814 -78.2496 221.21C-80.3093 221.607 -84.3358 222.478 -87.1974 223.146C-91.9015 224.244 -92.4131 224.313 -92.5333 223.864C-92.7001 223.242 -93.8774 223.399 -100.805 224.972C-103.599 225.606 -105.98 226.035 -106.096 225.925C-106.213 225.816 -106.865 225.875 -107.546 226.058C-109.868 226.68 -109.427 225.724 -106.745 224.323C-105.988 223.927 -104.94 223.514 -104.416 223.404C-100.923 222.673 -101.975 222.357 -105.958 222.942C-107.561 223.177 -109.779 223.547 -110.887 223.763C-111.996 223.979 -114.018 224.319 -115.381 224.518C-116.743 224.716 -119.471 225.221 -121.442 225.639C-123.868 226.154 -125.148 226.304 -125.406 226.104C-125.618 225.94 -126.693 225.963 -127.816 226.154C-128.932 226.344 -130.013 226.378 -130.219 226.23C-130.426 226.082 -131.547 226.123 -132.71 226.322C-133.874 226.521 -135.161 226.574 -135.57 226.438C-136.04 226.283 -137.316 226.411 -139.021 226.784C-142.698 227.587 -145.628 228.031 -145.855 227.817C-146.092 227.593 -143.72 226.546 -143.277 226.68C-143.095 226.734 -142.979 226.658 -143.019 226.511C-143.058 226.363 -143.558 226.278 -144.129 226.322C-145.258 226.408 -145.555 226.11 -144.854 225.596C-144.027 224.99 -145.471 224.768 -148.514 225.035C-151.07 225.258 -152.755 225.139 -151.637 224.814C-150.586 224.509 -152.351 224.447 -154.096 224.728C-155.132 224.895 -156.16 224.948 -156.381 224.846C-156.602 224.745 -157.621 224.747 -158.647 224.852C-161.497 225.143 -161.562 224.781 -158.834 223.815C-157.815 223.454 -156.928 222.956 -156.711 222.623C-156.406 222.155 -155.926 221.98 -154.089 221.668C-150.353 221.032 -149.649 220.773 -149.297 219.9C-149.125 219.472 -149.062 219.048 -149.159 218.958C-149.255 218.867 -150.215 218.933 -151.292 219.104C-152.369 219.276 -153.404 219.351 -153.592 219.27C-153.78 219.19 -154.562 219.195 -155.33 219.283C-157.438 219.524 -157.129 219.013 -154.788 218.385C-153.648 218.08 -152.645 217.709 -152.559 217.56C-152.472 217.412 -151.312 216.999 -149.981 216.642C-148.298 216.191 -147.553 215.876 -147.534 215.607C-147.516 215.342 -147.849 215.312 -148.592 215.51C-149.188 215.669 -150.152 215.801 -150.734 215.804C-151.317 215.807 -152.891 216.017 -154.233 216.271C-155.576 216.525 -156.849 216.652 -157.064 216.553C-157.278 216.454 -157.507 216.468 -157.574 216.583C-157.64 216.698 -158.018 216.765 -158.414 216.733C-158.97 216.687 -158.695 216.512 -157.204 215.963C-155.446 215.316 -153.501 214.352 -152.525 213.644C-151.905 213.195 -153.057 213.192 -156.39 213.634C-158.039 213.853 -159.408 213.956 -159.433 213.864C-159.458 213.772 -160.291 213.97 -161.284 214.305C-162.735 214.795 -163.111 214.834 -163.2 214.501C-163.338 213.988 -162.668 212.909 -162.126 212.77C-161.792 212.684 -161.783 212.734 -162.073 213.055C-162.371 213.385 -162.348 213.423 -161.919 213.312C-161.641 213.24 -161.391 212.963 -161.364 212.697C-161.321 212.284 -160.821 212.104 -157.988 211.48C-154.438 210.699 -153.627 210.28 -154.482 209.674C-155.914 208.657 -160.703 208.439 -163.737 209.252C-165.569 209.743 -166.619 209.656 -166.795 208.999C-166.883 208.67 -166.454 208.464 -164.714 208.004C-163.508 207.685 -161.977 207.422 -161.311 207.419C-160.645 207.416 -157.664 206.823 -154.687 206.101C-149.421 204.824 -149.275 204.772 -149.382 204.207C-149.487 203.652 -149.937 203.352 -150.57 203.416C-150.732 203.433 -152.012 203.533 -153.414 203.638C-158.004 203.984 -162.017 204.521 -166.055 205.33C-169.797 206.079 -171.138 206.091 -170.923 205.373C-170.874 205.209 -170.692 205.118 -170.519 205.17C-170.346 205.222 -170.284 205.105 -170.382 204.91C-170.481 204.715 -170.336 204.515 -170.058 204.463C-169.782 204.412 -169.644 204.288 -169.751 204.187C-169.858 204.086 -169.536 203.806 -169.035 203.566C-167.951 203.046 -167.818 202.463 -168.626 201.784C-169.056 201.422 -169.161 201.166 -169.01 200.838C-168.764 200.301 -169.083 200.064 -169.794 200.255C-170.079 200.331 -170.327 200.34 -170.344 200.275C-170.362 200.21 -170.519 199.959 -170.695 199.717C-170.988 199.313 -170.804 199.238 -168.444 198.79C-167.031 198.522 -165.377 198.251 -164.769 198.187C-163.89 198.095 -163.688 197.981 -163.783 197.63C-163.848 197.387 -163.727 197.019 -163.514 196.811C-162.964 196.275 -163.79 194.748 -164.689 194.637C-165.332 194.558 -165.338 194.545 -164.809 194.365C-164.254 194.176 -164.254 194.176 -164.884 194.084C-165.499 193.994 -164.756 193.686 -161.885 192.841C-160.687 192.489 -159.875 191.863 -160.002 191.39C-160.07 191.137 -159.818 190.904 -159.335 190.772C-158.908 190.655 -158.29 190.405 -157.962 190.215C-157.403 189.892 -157.403 189.855 -157.969 189.624C-158.301 189.488 -158.921 189.466 -159.348 189.575C-159.774 189.684 -161.082 189.553 -162.254 189.282C-163.435 189.01 -164.795 188.901 -165.308 189.039C-167.021 189.498 -169.789 189.853 -169.715 189.604C-169.674 189.469 -169.852 189.433 -170.111 189.525C-170.37 189.618 -170.686 189.486 -170.813 189.232C-171.109 188.644 -169.727 187.123 -168.826 187.044C-168.465 187.012 -168.161 186.835 -168.15 186.65C-168.124 186.214 -164.856 185.217 -163.443 185.214C-162.843 185.213 -159.907 184.594 -156.92 183.838C-151.869 182.562 -150.424 182.019 -152.407 182.145C-152.857 182.174 -153.833 182.221 -154.575 182.25C-155.317 182.279 -156.466 182.442 -157.129 182.612C-157.791 182.782 -158.367 182.794 -158.409 182.638C-158.451 182.483 -158.684 182.409 -158.927 182.474C-159.171 182.539 -159.669 182.522 -160.033 182.437C-160.69 182.283 -160.691 182.276 -160.117 181.768C-159.113 180.878 -159.618 180.428 -161.733 180.329C-162.818 180.279 -163.815 180.068 -163.949 179.861C-164.082 179.654 -164.324 179.441 -164.486 179.387C-164.994 179.219 -164.711 178.207 -164.171 178.264C-163.898 178.292 -163.774 178.259 -163.895 178.189C-164.016 178.119 -163.88 177.654 -163.594 177.157C-163.217 176.502 -162.742 176.15 -161.876 175.881C-161.217 175.677 -160.752 175.441 -160.842 175.356C-160.932 175.271 -159.772 174.938 -158.264 174.615C-156.072 174.147 -155.45 173.918 -155.163 173.473C-154.764 172.855 -152.041 171.915 -150.503 171.864C-149.916 171.844 -149.523 171.697 -149.455 171.47C-149.395 171.27 -149.046 171.026 -148.679 170.928C-147.829 170.7 -147.191 170.238 -147.278 169.913C-147.316 169.774 -147.53 169.71 -147.756 169.77C-147.981 169.83 -148.326 169.716 -148.521 169.515C-148.741 169.288 -149.942 169.224 -151.686 169.345C-155.122 169.583 -157.787 169.255 -157.718 168.6C-157.692 168.349 -157.471 168.165 -157.227 168.19C-156.983 168.216 -156.886 168.141 -157.01 168.024C-157.135 167.906 -157.009 167.324 -156.732 166.729C-156.36 165.934 -156.065 165.656 -155.611 165.677C-155.269 165.693 -155.096 165.61 -155.222 165.49C-155.348 165.372 -155.012 165.144 -154.475 164.984C-153.938 164.824 -152.665 164.234 -151.646 163.674L-149.793 162.655L-150.605 162.151C-151.051 161.874 -151.534 161.679 -151.678 161.717C-151.821 161.756 -152.431 161.697 -153.032 161.586C-154.081 161.393 -154.115 161.353 -153.872 160.613C-153.713 160.127 -153.741 159.805 -153.95 159.742C-154.132 159.687 -154.235 159.488 -154.179 159.3C-154.113 159.079 -153.952 159.07 -153.726 159.275C-153.499 159.481 -153.328 159.472 -153.241 159.247C-153.167 159.057 -152.774 158.615 -152.368 158.265L-151.63 157.628L-152.551 157.772C-153.547 157.927 -154.259 157.339 -153.63 156.881C-153.417 156.726 -153.154 156.651 -153.045 156.714C-152.936 156.777 -152.487 156.477 -152.048 156.048C-151.608 155.618 -150.79 155.046 -150.229 154.776C-149.668 154.507 -149.083 154.069 -148.93 153.804C-148.567 153.174 -148.37 153.133 -145.564 153.102C-143.045 153.075 -142.396 152.84 -141.666 151.696C-141.255 151.05 -141.041 150.967 -139.491 150.844C-137.458 150.684 -133.796 149.752 -134.094 149.471C-134.209 149.363 -135.273 149.364 -136.459 149.475C-139.48 149.755 -139.834 149.736 -139.438 149.315C-138.752 148.586 -142.757 148.371 -146.462 148.938C-147.462 149.091 -148.369 149.133 -148.478 149.031C-148.586 148.929 -148.498 148.435 -148.283 147.932C-147.923 147.088 -147.938 146.989 -148.483 146.637C-148.808 146.427 -149.092 146.185 -149.115 146.1C-149.209 145.75 -144.288 144.971 -142.577 145.065C-140.116 145.2 -135.39 144.513 -135.08 143.976C-134.916 143.692 -134.966 143.498 -135.255 143.293C-135.647 143.015 -136.141 142.984 -140.181 142.982C-141.441 142.982 -142.113 142.839 -142.189 142.555C-142.285 142.197 -141.961 142.07 -140.155 141.757C-138.779 141.519 -137.97 141.263 -137.905 141.044C-137.848 140.857 -137.958 140.745 -138.149 140.796C-138.339 140.847 -138.447 140.805 -138.388 140.703C-138.25 140.462 -134.021 140.231 -133.539 140.438C-133.16 140.6 -128.863 140.131 -127.999 139.833C-127.732 139.741 -127.557 139.506 -127.609 139.311C-127.661 139.117 -127.684 138.768 -127.66 138.536C-127.618 138.136 -131.266 138.328 -137.447 139.051C-138.376 139.159 -139.648 139.179 -140.275 139.094C-140.901 139.009 -141.812 139.046 -142.298 139.175C-143.579 139.515 -145.568 139.448 -145.35 139.07C-145.25 138.896 -143.569 138.286 -141.614 137.714C-139.66 137.143 -138.088 136.66 -138.121 136.64C-138.154 136.621 -138.876 136.526 -139.725 136.43C-141.203 136.262 -141.246 136.233 -140.722 135.741C-140.312 135.356 -139.803 135.209 -138.685 135.153C-136.866 135.062 -136.638 135.006 -136.727 134.674C-136.766 134.53 -137.2 134.431 -137.692 134.454C-139.328 134.528 -139.092 134.069 -137.238 133.573C-136.16 133.284 -135.117 132.812 -134.658 132.405C-134.193 131.993 -133.618 131.735 -133.209 131.753C-132.334 131.794 -119.038 128.336 -119.26 128.126C-119.732 127.681 -116.023 126.69 -112.716 126.378C-106.019 125.745 -100.403 124.9 -96.8763 123.995C-94.9276 123.495 -91.9509 122.904 -90.2613 122.68C-88.5718 122.457 -85.5819 121.984 -83.6171 121.63C-81.6523 121.275 -79.9506 121.013 -79.8355 121.046C-79.7204 121.079 -78.6505 120.932 -77.458 120.72C-76.2655 120.507 -74.8302 120.267 -74.2685 120.187C-73.0992 120.021 -67.8654 118.927 -64.0849 118.059C-61.3502 117.431 -57.1648 116.589 -54.3124 116.092C-53.3573 115.926 -49.6997 115.077 -46.1843 114.207C-42.6689 113.336 -38.4928 112.387 -36.9042 112.098C-35.3155 111.809 -30.9917 110.749 -27.2958 109.742C-21.7065 108.219 -20.5497 107.829 -20.42 107.422C-20.2877 107.007 -20.2095 106.983 -19.9041 107.26C-19.6644 107.478 -19.2804 107.457 -18.7538 107.196C-18.318 106.98 -17.7873 106.907 -17.571 107.032C-17.3552 107.157 -16.7515 107.173 -16.2296 107.069C-15.7076 106.964 -15.0059 106.886 -14.6703 106.894C-12.8419 106.943 -11.038 106.616 -10.4084 106.122C-9.9029 105.726 -8.40128 105.632 -8.51263 106.004C-8.55363 106.141 -7.15665 105.906 -5.40824 105.482C-0.700006 104.342 -0.201067 104.263 0.446285 104.561C0.972534 104.804 1.01105 104.776 0.794582 104.309C0.629584 103.953 0.69641 103.779 1.00204 103.77C1.25003 103.763 1.73978 103.683 2.09036 103.593C2.44095 103.502 2.754 103.526 2.78605 103.645C2.81809 103.765 3.07036 103.887 3.34664 103.916C3.71141 103.954 3.77006 103.86 3.56082 103.572C3.36227 103.298 3.40008 103.215 3.68244 103.303C3.90781 103.374 5.31116 103.149 6.80102 102.802C9.93427 102.073 9.47226 102.195 24.055 98.2322C30.1894 96.5652 36.0195 95.0827 37.0108 94.9376C38.002 94.7925 39.0048 94.5343 39.2393 94.3639C39.6708 94.0501 48.8059 91.211 51.657 90.5047C53.8866 89.9523 56.0525 87.9717 54.5279 87.8794C54.3006 87.8656 54.3912 87.6266 54.7497 87.294C55.0829 86.9849 55.3974 86.6055 55.4485 86.4509C55.6331 85.8923 57.962 84.9842 58.7414 85.167C59.2325 85.2821 60.3927 85.0599 62.1637 84.5114C63.6374 84.055 68.4977 82.6303 72.9643 81.3454C77.431 80.0605 81.3736 78.8488 81.7257 78.6527C82.0778 78.4567 83.6562 77.9296 85.2334 77.4815C86.8105 77.0333 88.3169 76.4553 88.5809 76.197C89.0532 75.7348 91.5366 74.5184 92.0071 74.5188C92.5868 74.5194 93.5811 74.2138 94.4435 73.77C94.9559 73.5062 95.6353 73.2437 95.9532 73.1864C96.2711 73.1292 96.7916 73.0367 97.1098 72.9809C97.4281 72.925 98.8566 72.406 100.284 71.8275C101.712 71.2489 103.431 70.6308 104.104 70.454C104.777 70.277 105.445 69.9718 105.588 69.7755C105.732 69.5791 106.238 69.2192 106.715 68.9756C107.423 68.6131 107.604 68.6197 107.709 69.0118C107.823 69.4363 108.065 69.4054 109.833 68.7415C110.93 68.3293 113.855 67.4175 116.333 66.7152C118.81 66.0128 121.482 65.105 122.271 64.6977C123.059 64.2904 123.766 63.9407 123.841 63.9204C123.917 63.9002 123.769 63.7349 123.513 63.5532C123.257 63.3715 122.618 63.3379 122.093 63.4786C121.568 63.6193 121.124 63.6811 121.106 63.616C121.089 63.5509 120.944 63.3167 120.783 63.0957C120.383 62.5445 121.187 62.3615 121.984 62.8224C122.435 63.0834 122.614 63.0769 122.631 62.7988C122.643 62.5873 122.789 62.455 122.955 62.505C123.121 62.5548 123.229 62.4926 123.195 62.3666C123.161 62.2406 123.416 62.0453 123.76 61.9325C124.105 61.8197 126.002 61.1401 127.975 60.4224C129.949 59.7047 133.967 58.419 136.903 57.5652C139.84 56.7114 142.542 55.8579 142.908 55.6683C144.147 55.0262 151.207 52.4156 155.035 51.1838C162.128 48.9015 167.302 46.4113 168.101 44.8955C168.35 44.4213 168.887 43.9486 169.328 43.8149C172.954 42.7159 177.931 40.9734 180.073 40.053C180.97 39.6679 182.555 39.0407 183.597 38.6593C184.638 38.2779 186.097 37.6733 186.837 37.3158C187.578 36.9584 188.231 36.6535 188.287 36.6384C188.344 36.6232 188.477 36.9369 188.584 37.3353L188.584 37.3349ZM189.274 39.9109C189.357 40.2206 189.489 40.2102 189.856 39.8648C190.14 39.5983 190.219 39.2643 190.053 39.0351C189.839 38.7394 189.705 38.75 189.471 39.0812C189.304 39.3175 189.215 39.6909 189.274 39.9109ZM142.779 56.8826C141.78 57.5761 141.809 57.5745 144.122 56.8068C149.418 55.0491 151.06 54.4374 151.008 54.2422C150.909 53.8728 143.854 56.1366 142.779 56.8826ZM274.978 25.1243C274.994 25.1855 275.199 25.1845 275.432 25.122C275.665 25.0595 275.823 24.885 275.782 24.7342C275.742 24.5834 275.538 24.5844 275.329 24.7365C275.119 24.8886 274.962 25.0631 274.978 25.1243ZM254.745 31.5755C254.689 31.7618 254.953 31.823 255.352 31.7161C255.741 31.612 256.103 31.3783 256.158 31.1968C256.214 31.0105 255.949 30.9493 255.55 31.0562C255.161 31.1604 254.799 31.394 254.745 31.5755ZM268.558 29.4269C268.636 29.719 268.982 29.6557 269.545 29.2463C270.181 28.7836 269.9 28.4945 269.161 28.8521C268.792 29.0307 268.521 29.2893 268.558 29.4269ZM108.646 72.3245C107.754 72.852 107.649 72.9908 108.155 72.9763C108.957 72.9533 117.848 70.1654 122.556 68.4606C123.835 67.9973 113.649 70.4327 111.595 71.081C110.597 71.3962 109.27 71.9558 108.646 72.3245ZM99.0824 75.821C98.7912 75.978 99.3769 75.8745 100.384 75.5911C102.787 74.9145 103.672 74.3987 102.087 74.5983C101.442 74.6794 100.622 74.9235 100.263 75.1407C99.9049 75.3578 99.3736 75.664 99.0824 75.821L99.0824 75.821ZM279.428 27.4085C278.85 27.5814 278.858 27.5952 279.582 27.6816C280.435 27.7835 281.055 27.4528 280.924 26.9653C280.876 26.7877 280.658 26.774 280.437 26.9347C280.216 27.0951 279.762 27.3083 279.428 27.4085ZM94.8997 77.1942C94.8444 77.2901 95.3698 77.2387 96.0673 77.0799C96.7647 76.921 97.3851 76.6251 97.4459 76.4222C97.5235 76.1629 97.1766 76.1969 96.2783 76.5365C95.5754 76.8022 94.955 77.0982 94.8997 77.1942V77.1942ZM-125.217 139.758C-125.278 139.963 -124.802 139.937 -123.966 139.691C-122.767 139.337 -122.717 139.294 -123.521 139.304C-124.843 139.32 -125.107 139.391 -125.217 139.758ZM311.523 27.1897C311.749 27.2168 311.99 27.1415 312.059 27.0222C312.127 26.903 311.942 26.8808 311.648 26.9729C311.322 27.0747 311.273 27.1597 311.523 27.1897L311.523 27.1897ZM308.284 28.4571C307.765 28.7916 307.75 28.8451 308.206 28.73C308.518 28.6513 308.998 28.4092 309.273 28.1921C309.91 27.6891 309.167 27.8882 308.284 28.4571ZM304.462 29.362C304.241 29.5224 304.122 29.8827 304.197 30.1627C304.313 30.5964 304.505 30.6018 305.495 30.1995C306.75 29.6889 307.468 28.9793 306.455 29.2507C306.122 29.3399 305.737 29.3065 305.599 29.1766C305.311 28.9046 305.027 28.9508 304.462 29.362V29.362ZM-153.379 157.318C-153.338 157.474 -153.082 157.54 -152.81 157.464C-152.388 157.348 -152.389 157.304 -152.814 157.167C-153.44 156.964 -153.472 156.973 -153.379 157.318V157.318ZM301.867 47.6804C302.093 47.7075 302.334 47.6321 302.403 47.5129C302.471 47.3936 302.287 47.3715 301.992 47.4636C301.666 47.5654 301.617 47.6504 301.867 47.6804L301.867 47.6804ZM304.402 47.8864C304.526 48.3478 305.326 48.1891 306.253 47.5191C307.263 46.7897 306.915 46.5599 305.541 47.0481C304.706 47.3447 304.331 47.6206 304.402 47.8864ZM299.098 49.0888C299.503 49.4706 300.545 49.3164 300.431 48.8916C300.367 48.6532 300.034 48.5712 299.601 48.6872C299.203 48.7938 298.977 48.9745 299.098 49.0888V49.0888ZM301.324 48.8324C301.063 49.1211 301.245 49.1489 302.034 48.9408C302.618 48.7872 303.061 48.5338 303.02 48.3781C302.923 48.0174 301.784 48.3226 301.324 48.8324ZM-160.95 208.202C-160.908 208.357 -160.747 208.451 -160.591 208.409C-160.436 208.367 -160.343 208.206 -160.385 208.05C-160.426 207.894 -160.588 207.801 -160.743 207.843C-160.899 207.884 -160.992 208.046 -160.95 208.202ZM-161.583 214.034C-161.368 214.061 -161.05 213.976 -160.877 213.845C-160.704 213.714 -160.88 213.693 -161.268 213.797C-161.657 213.901 -161.799 214.008 -161.583 214.034ZM-156.43 216.308C-156.062 216.282 -155.49 216.129 -155.158 215.967C-154.827 215.806 -155.128 215.828 -155.827 216.015C-156.527 216.203 -156.798 216.334 -156.43 216.308V216.308ZM-142.746 215.091C-142.714 215.212 -141.597 215.181 -140.265 215.023C-138.933 214.864 -137.514 214.74 -137.111 214.747C-136.656 214.756 -136.472 214.673 -136.626 214.528C-136.762 214.399 -138.036 214.432 -139.456 214.6C-140.876 214.768 -142.176 214.899 -142.345 214.892C-142.514 214.884 -142.686 214.876 -142.728 214.874C-142.771 214.872 -142.778 214.97 -142.746 215.091V215.091ZM270.174 107.248C269.728 107.6 269.756 107.623 270.44 107.459C270.861 107.358 271.25 107.126 271.305 106.945C271.423 106.551 270.869 106.699 270.174 107.248V107.248ZM-139.624 218.831C-139.588 218.964 -138.243 218.877 -136.635 218.637C-133.014 218.096 -132.381 217.935 -132.837 217.671C-133.028 217.56 -134.611 217.731 -136.355 218.049C-138.099 218.368 -139.563 218.619 -139.607 218.608C-139.652 218.597 -139.659 218.697 -139.624 218.831L-139.624 218.831ZM287.384 108.048C287.338 108.199 287.486 108.273 287.713 108.213C287.939 108.152 288.096 107.996 288.061 107.867C288.026 107.737 287.878 107.663 287.732 107.702C287.586 107.741 287.429 107.897 287.384 108.048ZM249.71 118.704C249.936 118.731 250.177 118.656 250.246 118.536C250.315 118.417 250.13 118.395 249.835 118.487C249.51 118.589 249.461 118.674 249.71 118.704L249.71 118.704ZM293.671 107.324C293.713 107.48 293.969 107.546 294.241 107.47C294.662 107.354 294.662 107.31 294.237 107.173C293.611 106.97 293.579 106.979 293.671 107.324V107.324ZM292.659 108.068C292.677 108.137 292.82 108.159 292.975 108.118C293.131 108.076 293.222 107.907 293.177 107.742C293.133 107.577 292.991 107.555 292.861 107.693C292.732 107.831 292.641 108 292.659 108.068V108.068ZM277.077 114.356C276.718 114.569 275.562 115.089 274.508 115.51C273.455 115.932 272.184 116.53 271.684 116.841C271.184 117.151 270.772 117.394 270.769 117.381C270.74 117.273 268.966 118.397 268.115 119.064C266.823 120.076 266.859 120.577 268.197 120.219C268.888 120.034 269.221 120.082 269.3 120.379C269.417 120.814 268.198 121.325 266.058 121.738C265.126 121.918 262.647 123.105 262.142 123.613C261.766 123.993 263.27 123.903 265.139 123.436C266.355 123.131 267.333 122.656 268.473 121.814C269.36 121.159 270.348 120.551 270.667 120.463C271.13 120.335 271.151 120.272 270.768 120.152C270.504 120.07 270.204 120.092 270.1 120.202C269.997 120.312 269.88 120.281 269.84 120.134C269.773 119.881 270.343 119.536 272.403 118.587C272.896 118.359 273.32 117.975 273.345 117.734C273.383 117.375 273.49 117.339 273.932 117.537C274.385 117.739 274.426 117.714 274.186 117.377C273.977 117.084 274.067 116.945 274.521 116.86C274.863 116.796 275.533 116.516 276.011 116.236C276.614 115.884 277.032 115.798 277.375 115.956C277.653 116.084 277.837 116.062 277.795 115.905C277.711 115.593 279.625 114.122 280.378 113.92C280.645 113.849 280.817 113.616 280.76 113.403C280.683 113.115 280.282 113.138 279.193 113.493C278.389 113.755 277.437 114.143 277.077 114.356L277.077 114.356ZM268.202 127.739C268.424 127.753 268.704 127.593 268.824 127.385C268.978 127.118 268.857 127.111 268.42 127.36C268.065 127.563 267.971 127.725 268.202 127.739ZM-72.8794 220.334C-72.8481 220.451 -72.4288 220.47 -71.9483 220.377C-71.4483 220.28 -71.1778 220.11 -71.3159 219.98C-71.5985 219.713 -72.9638 220.023 -72.8794 220.334ZM268.171 130.862L267.47 131.073L268.2 131.161C269.025 131.26 270.245 130.687 270.129 130.254C270.086 130.096 269.788 130.121 269.462 130.309C269.137 130.497 268.556 130.746 268.171 130.862V130.862ZM-70.1574 221.451C-70.1226 221.581 -69.9034 221.636 -69.6702 221.573C-69.4371 221.511 -69.2747 221.353 -69.3095 221.224C-69.3443 221.094 -69.5635 221.039 -69.7967 221.101C-70.0298 221.164 -70.1922 221.321 -70.1574 221.451ZM-71.3523 221.725C-71.1264 221.753 -70.8853 221.677 -70.8166 221.558C-70.7479 221.439 -70.9327 221.416 -71.2274 221.509C-71.553 221.61 -71.602 221.695 -71.3523 221.725L-71.3523 221.725ZM263.437 132.626C263.663 132.653 263.904 132.577 263.973 132.458C264.042 132.339 263.857 132.317 263.562 132.409C263.236 132.511 263.187 132.596 263.437 132.626L263.437 132.626ZM295.245 124.502C295.287 124.658 295.448 124.751 295.603 124.71C295.759 124.668 295.852 124.507 295.81 124.351C295.768 124.195 295.607 124.102 295.452 124.144C295.296 124.185 295.203 124.347 295.245 124.502ZM288.095 127.214C288.18 127.531 288.637 127.111 288.682 126.673C288.727 126.245 288.681 126.238 288.401 126.634C288.217 126.894 288.08 127.155 288.095 127.214ZM285.26 127.937C285.322 128.17 285.424 128.348 285.485 128.332C285.546 128.315 285.618 128.091 285.645 127.833C285.672 127.576 285.57 127.398 285.42 127.439C285.269 127.479 285.197 127.703 285.26 127.937ZM-82.1669 236.761C-81.9409 236.788 -81.6999 236.713 -81.6311 236.594C-81.5624 236.474 -81.7473 236.452 -82.0419 236.544C-82.3676 236.646 -82.4166 236.731 -82.1669 236.761L-82.1669 236.761ZM179.598 172.766C179.548 172.934 179.641 173.113 179.806 173.163C179.972 173.213 180.129 173.044 180.156 172.787C180.208 172.281 179.748 172.264 179.598 172.766ZM281.193 15.3093C281.408 15.4604 281.474 15.6176 281.339 15.6587C281.205 15.6996 281.37 15.808 281.706 15.8993C282.568 16.1335 282.007 16.6825 280.537 17.0433C279.77 17.2317 279.568 17.2133 279.916 16.9867C280.408 16.667 280.616 15.8387 280.173 15.9661C279.347 16.2037 278.847 16.7343 279.088 17.117C279.324 17.4908 279.289 17.4962 278.818 17.1595C278.178 16.702 275.998 17.1703 275.961 17.7734C275.942 18.0798 275.826 18.1087 275.4 17.9137C274.728 17.6063 274.107 16.5883 274.621 16.6358C274.821 16.6543 274.989 16.8521 274.995 17.0753C275.003 17.3591 275.125 17.2965 275.402 16.8668C275.718 16.3763 276.302 16.1299 278.3 15.6436C279.889 15.2568 280.945 15.1348 281.193 15.3093L281.193 15.3093ZM285.24 14.8938C285.679 15.026 285.667 15.7038 285.223 15.8226C284.901 15.909 284.403 15.1854 284.624 14.9508C284.722 14.8468 284.999 14.8212 285.24 14.8938ZM279.871 18.774C280.318 19.1917 280.304 19.2702 279.749 19.4599C279.404 19.5776 278.937 19.7459 278.71 19.8339C277.978 20.1181 277.767 19.8974 278.117 19.2138C278.559 18.3502 279.235 18.1805 279.871 18.774V18.774ZM109.225 66.7563C109.243 66.825 109.152 66.994 109.023 67.1319C108.893 67.2698 108.751 67.2477 108.707 67.0828C108.662 66.9179 108.753 66.7489 108.909 66.7072C109.064 66.6656 109.207 66.6877 109.225 66.7563ZM105.961 67.8383C105.821 68.0832 105.616 68.2313 105.506 68.1674C105.395 68.1036 105.51 67.9032 105.76 67.7222C106.121 67.4607 106.163 67.4845 105.961 67.8383ZM257.868 27.9704C257.905 28.107 257.782 28.4345 257.596 28.698C257.332 29.0706 257.161 29.1219 256.827 28.9285C256.493 28.7352 256.475 28.5953 256.747 28.2999C257.19 27.8195 257.781 27.6457 257.868 27.9704L257.868 27.9704ZM-60.5328 116.054C-60.4911 116.21 -60.6402 116.386 -60.8642 116.446C-61.0882 116.506 -61.3842 116.449 -61.522 116.319C-61.6598 116.189 -61.5107 116.012 -61.1906 115.927C-60.8705 115.841 -60.5745 115.898 -60.5328 116.054ZM-55.6474 115.067C-55.5611 115.389 -56.3115 115.626 -56.5894 115.364C-56.6986 115.261 -56.5473 115.092 -56.2532 114.989C-55.9592 114.886 -55.6866 114.921 -55.6474 115.067ZM224.764 40.4207C225.196 41.0165 224.835 41.2178 223.729 40.9972C223.152 40.8821 222.802 40.7348 222.951 40.6697C224.094 40.1711 224.539 40.11 224.764 40.4207V40.4207ZM-19.4543 106.564C-19.4126 106.72 -19.4345 106.862 -19.5031 106.881C-19.5716 106.899 -19.7404 106.808 -19.8782 106.678C-20.016 106.548 -19.9941 106.405 -19.8295 106.361C-19.6648 106.317 -19.496 106.408 -19.4543 106.564ZM-15.3139 105.717C-15.1392 105.882 -15.0522 106.114 -15.1205 106.232C-15.3055 106.553 -15.6811 106.255 -15.6546 105.807C-15.6359 105.494 -15.5693 105.476 -15.3137 105.718L-15.3139 105.717ZM-16.3657 105.937C-15.7245 106.016 -15.7988 106.451 -16.4543 106.455C-16.787 106.457 -17.0894 106.346 -17.1262 106.208C-17.1985 105.938 -16.9829 105.862 -16.3657 105.937ZM-151.485 143.661C-151.073 143.9 -151.102 144.267 -151.544 144.385C-151.777 144.447 -152.019 144.307 -152.081 144.074C-152.2 143.632 -151.898 143.423 -151.485 143.661ZM199.738 51.41C199.847 51.513 199.693 51.6826 199.396 51.7868C199.099 51.891 198.897 51.8368 198.948 51.6663C199.062 51.288 199.469 51.1559 199.738 51.41ZM197.321 52.579C197.294 52.8348 197.066 53.1099 196.814 53.1903C196.562 53.2707 195.798 53.5473 195.118 53.8049C194.225 54.1426 193.977 54.1616 194.227 53.873C194.513 53.5429 194.504 53.4909 194.173 53.5758C193.952 53.6323 193.829 53.5782 193.9 53.4552C193.971 53.3322 194.78 52.98 195.699 52.6727C197.091 52.2071 197.361 52.1915 197.321 52.579V52.579ZM312.847 22.3584C313.147 22.6412 312.705 23.1193 312.266 22.9871C311.898 22.8761 311.969 22.3113 312.365 22.2052C312.502 22.1685 312.719 22.2374 312.847 22.3584ZM312.147 30.4386C312.186 30.5851 312.114 30.8166 311.986 30.9529C311.852 31.095 311.774 30.994 311.803 30.7162C311.86 30.1754 312.038 30.0314 312.147 30.4386V30.4386ZM310.114 31.1398C310.174 31.3665 310.098 31.5141 309.944 31.4677C309.79 31.4213 309.706 31.2452 309.756 31.0763C309.885 30.6446 309.986 30.6624 310.114 31.1398ZM-172.519 200.074C-172.245 200.162 -172.148 200.269 -172.304 200.311C-172.459 200.352 -172.81 200.314 -173.084 200.225C-173.357 200.137 -173.454 200.03 -173.299 199.989C-173.143 199.947 -172.792 199.985 -172.519 200.074ZM297.478 96.6585C297.511 96.7811 297.283 96.9495 296.972 97.0328C296.661 97.1161 296.375 97.0648 296.336 96.9188C296.297 96.7727 296.524 96.6043 296.841 96.5444C297.159 96.4846 297.445 96.5359 297.478 96.6585ZM286.756 103.988L287.563 104.348L285.932 105.026C285.035 105.399 283.635 105.89 282.822 106.118C282.008 106.345 281.366 106.618 281.394 106.724C281.453 106.944 279.651 106.956 279.311 106.738C279.188 106.658 279.499 106.563 280.003 106.525C280.567 106.484 281.191 106.205 281.626 105.801C282.015 105.439 282.998 104.952 283.81 104.719C284.622 104.485 285.259 104.191 285.225 104.066C285.116 103.66 285.929 103.619 286.756 103.988L286.756 103.988ZM290.297 102.95C290.228 103.069 289.987 103.144 289.761 103.117C289.511 103.087 289.56 103.002 289.886 102.9C290.18 102.808 290.365 102.83 290.297 102.95L290.297 102.95ZM296.486 105.483C296.578 105.778 296.556 105.963 296.437 105.894C296.318 105.825 296.243 105.584 296.27 105.357C296.299 105.107 296.384 105.156 296.486 105.483L296.486 105.483ZM289.405 109.931C289.36 110.08 289.644 110.355 290.035 110.543C290.735 110.878 290.722 110.905 289.219 112.181C287.41 113.718 287.225 113.791 287.026 113.05C286.933 112.701 287.064 112.431 287.368 112.346C287.768 112.235 287.773 112.182 287.394 112.063C287.136 111.983 286.705 112.024 286.434 112.156C286.164 112.287 285.907 112.265 285.865 112.106C285.822 111.948 286.207 111.73 286.72 111.622C287.232 111.514 287.902 111.343 288.208 111.242C288.672 111.088 288.681 111.03 288.267 110.896C287.842 110.759 287.841 110.716 288.263 110.599C288.534 110.523 288.722 110.334 288.681 110.179C288.639 110.023 288.803 109.842 289.045 109.777C289.288 109.713 289.449 109.781 289.405 109.93L289.405 109.931ZM286.403 113.183C286.734 113.283 286.755 113.404 286.501 113.763C286.146 114.265 285.693 114.031 285.871 113.437C285.934 113.225 286.169 113.113 286.403 113.183V113.183ZM299.398 122.479C299.536 122.609 299.458 122.767 299.225 122.829C298.992 122.892 298.688 122.836 298.55 122.707C298.412 122.577 298.49 122.419 298.724 122.357C298.957 122.294 299.26 122.349 299.398 122.479ZM293.949 125.298C293.674 125.898 293.524 125.993 293.426 125.629C293.389 125.49 293.546 125.24 293.775 125.074C294.123 124.821 294.151 124.857 293.949 125.298ZM-104.272 236.898C-104.515 237.319 -106.255 238.064 -106.682 237.93C-106.928 237.853 -107.005 237.741 -106.855 237.681C-105.38 237.099 -104.178 236.734 -104.272 236.898V236.898ZM-102.463 236.788C-102.188 236.874 -102.342 237.003 -102.895 237.152C-103.368 237.278 -103.783 237.276 -103.818 237.146C-103.898 236.845 -103.02 236.612 -102.463 236.788L-102.463 236.788ZM-95.0993 235.202C-93.8166 235.149 -90.8273 234.557 -85.293 233.258C-83.3977 232.814 -81.536 232.523 -81.156 232.612C-80.7424 232.709 -79.4498 232.469 -77.9362 232.013C-76.5453 231.594 -75.3996 231.28 -75.3901 231.316C-75.3637 231.414 -76.7859 232.685 -76.9812 232.737C-77.0758 232.762 -77.1088 232.635 -77.0545 232.453C-76.9968 232.261 -77.3159 232.22 -77.8203 232.355C-78.2958 232.482 -78.6507 232.714 -78.609 232.87C-78.5673 233.025 -78.6678 233.189 -78.8324 233.233C-78.9971 233.277 -79.0789 233.128 -79.0143 232.902C-78.9275 232.599 -78.9831 232.595 -79.2276 232.888C-79.4095 233.105 -79.8166 233.337 -80.1323 233.402C-80.448 233.468 -81.3866 233.684 -82.218 233.882C-83.0495 234.08 -83.6963 234.13 -83.6554 233.994C-83.6145 233.858 -84.3589 233.975 -85.3097 234.254C-86.2603 234.534 -87.2926 234.703 -87.6035 234.631C-87.9808 234.543 -88.1412 234.603 -88.0858 234.809C-88.0401 234.98 -88.1821 235.065 -88.4011 234.999C-88.6202 234.933 -89.8951 235.135 -91.2342 235.449C-92.5733 235.762 -93.6729 236.003 -93.6779 235.985C-93.6828 235.966 -94.3339 236.08 -95.1246 236.238C-95.9154 236.396 -96.6017 236.505 -96.6498 236.481C-96.7319 236.44 -97.0461 236.432 -97.5646 236.459C-97.8025 236.471 -96.6961 235.293 -96.4451 235.267C-96.364 235.259 -95.7585 235.229 -95.0993 235.202L-95.0993 235.202ZM-83.2733 233.55C-83.2368 233.687 -82.9601 233.732 -82.6583 233.651C-82.3566 233.57 -82.0709 233.374 -82.0233 233.215C-81.9757 233.057 -82.2525 233.011 -82.6382 233.115C-83.024 233.218 -83.3098 233.414 -83.2733 233.55ZM-98.172 238.42C-98.032 238.552 -97.8186 238.555 -97.6979 238.427C-97.5772 238.298 -97.4443 238.321 -97.4026 238.476C-97.2557 239.024 -97.7094 239.155 -98.1923 238.704C-98.4609 238.453 -98.6235 238.232 -98.5537 238.214C-98.4838 238.195 -98.3121 238.288 -98.172 238.42L-98.172 238.42ZM-91.8259 237.903C-91.448 238.121 -91.0956 238.225 -91.0429 238.134C-90.9902 238.042 -90.3391 237.759 -89.5961 237.504C-88.3092 237.062 -86.5271 237.21 -86.8287 237.733C-87.0701 238.152 -89.0426 238.598 -89.5656 238.351C-90.101 238.099 -90.8997 238.3 -91.1603 238.753C-91.3797 239.133 -92.8391 239.454 -93.1251 239.184C-93.5145 238.817 -93.3718 237.736 -92.9179 237.614C-92.6952 237.554 -92.2038 237.684 -91.8258 237.903L-91.8259 237.903ZM-94.8008 238.469C-94.6282 238.632 -94.6558 238.698 -94.8692 238.634C-95.066 238.575 -95.2721 238.677 -95.3273 238.861C-95.4763 239.359 -95.8492 239.375 -95.9793 238.889C-96.1129 238.391 -95.2211 238.072 -94.8008 238.469V238.469ZM236.2 152.038C236.132 152.157 235.891 152.232 235.665 152.205C235.415 152.175 235.464 152.09 235.789 151.988C236.084 151.896 236.269 151.918 236.2 152.038L236.2 152.038ZM181.339 175.354C181.381 175.51 181.359 175.653 181.29 175.671C181.222 175.689 181.053 175.598 180.915 175.468C180.777 175.338 180.799 175.196 180.964 175.152C181.129 175.107 181.297 175.199 181.339 175.354ZM174.741 177.092C175.287 177.305 175.307 177.817 174.77 177.82C174.427 177.822 174.252 177.993 174.298 178.281C174.337 178.533 174.4 178.936 174.437 179.176C174.473 179.417 174.274 179.692 173.995 179.788C173.715 179.884 173.398 180.014 173.29 180.077C173.182 180.141 172.739 180.398 172.307 180.648C171.344 181.205 170.893 181.773 171.19 182.053C171.312 182.168 171.161 182.33 170.853 182.412C170.546 182.495 170.188 182.42 170.057 182.246C169.891 182.027 169.772 182.043 169.667 182.297C169.396 182.948 168.576 183.349 168.02 183.101C167.574 182.902 167.542 182.918 167.832 183.198C168.097 183.454 168.05 183.521 167.637 183.477C167.338 183.446 166.921 183.466 166.711 183.522C166.501 183.579 166.188 183.403 166.015 183.133C165.813 182.817 165.532 182.738 165.228 182.911C164.557 183.293 164.82 183.973 165.511 183.644C166.057 183.384 166.059 183.388 165.578 183.798C165.306 184.03 164.656 184.343 164.133 184.495C163.61 184.647 162.438 185.105 161.528 185.512C159.17 186.568 153.162 188.921 150.393 189.874C149.096 190.319 147.477 190.888 146.794 191.137C145.355 191.662 142.501 192.649 138.754 193.917C137.302 194.408 135.307 195.101 134.32 195.458C131.946 196.314 128.128 197.354 127.544 197.302C127.288 197.28 126.512 197.308 125.819 197.366C125.126 197.423 124.534 197.376 124.504 197.262C124.473 197.147 124.678 196.654 124.959 196.166C125.375 195.444 125.736 195.214 126.9 194.926C127.75 194.716 128.26 194.467 128.157 194.312C128.063 194.168 127.003 194.302 125.803 194.61C123.918 195.094 122.568 195.063 122.887 194.544C123.029 194.311 126.728 193.129 126.774 193.301C126.796 193.385 127.662 193.184 128.699 192.854C129.735 192.524 131.344 192.174 132.274 192.077C133.204 191.98 134.008 191.823 134.062 191.73C134.116 191.636 134.699 191.387 135.357 191.175C136.014 190.964 136.878 190.598 137.275 190.363C137.705 190.108 138.175 190.016 138.436 190.137C138.678 190.248 140.113 190.039 141.625 189.672C143.498 189.218 144.344 189.118 144.275 189.359C144.22 189.553 144.344 189.479 144.55 189.194C144.809 188.837 145.3 188.637 146.125 188.552C146.912 188.47 147.236 188.345 147.068 188.186C146.78 187.915 146.816 187.899 149.359 187.144C150.362 186.846 151.442 186.425 151.759 186.209C152.076 185.993 152.363 185.92 152.397 186.047C152.431 186.175 152.777 186.194 153.166 186.09C153.554 185.985 153.847 185.805 153.815 185.688C153.784 185.571 153.957 185.422 154.199 185.357C154.441 185.293 154.602 185.365 154.556 185.518C154.445 185.889 157.224 184.644 157.349 184.267C157.577 183.577 162.707 181.566 162.853 182.109C162.897 182.274 163.068 182.374 163.233 182.33C163.398 182.286 163.427 182.151 163.299 182.03C162.932 181.684 163.514 181.255 164.029 181.491C164.374 181.65 164.502 181.601 164.534 181.296C164.562 181.032 164.998 180.799 165.757 180.64C166.406 180.505 166.905 180.275 166.866 180.129C166.741 179.661 168.275 179.58 168.699 180.032C168.924 180.272 169.211 180.36 169.336 180.227C169.461 180.094 169.471 179.897 169.357 179.79C169.243 179.682 169.317 179.473 169.521 179.325C169.725 179.176 170.001 179.158 170.135 179.285C170.283 179.425 170.63 179.27 171.023 178.889C171.762 178.17 174.328 176.93 174.741 177.092L174.741 177.092ZM179.132 177.293C179.266 177.791 179.116 177.909 178.768 177.582C178.64 177.461 178.643 177.247 178.774 177.107C178.906 176.967 179.067 177.05 179.132 177.293V177.293ZM178.198 178.068C178.078 178.276 177.798 178.436 177.576 178.423C177.345 178.409 177.439 178.246 177.794 178.043C178.231 177.794 178.352 177.802 178.198 178.068ZM81.0288 204.874C81.3967 204.848 81.7237 204.924 81.7555 205.043C81.8484 205.389 80.5695 205.53 80.3501 205.197C80.2406 205.031 80.198 204.901 80.2556 204.909C80.3131 204.916 80.6611 204.9 81.0289 204.874L81.0288 204.874ZM87.0675 203.952C86.3801 204.495 85.9339 204.615 86.3609 204.142C86.5537 203.928 86.904 203.71 87.1394 203.656C87.4217 203.591 87.3972 203.692 87.0675 203.952V203.952ZM85.3484 204.385C85.4733 204.503 85.3031 204.601 84.9702 204.602C84.2639 204.606 84.1289 204.436 84.7139 204.28C84.9379 204.22 85.2234 204.267 85.3484 204.385V204.385ZM121.905 195.276C122.47 195.605 122.276 195.69 118.789 196.647C116.744 197.209 114.801 197.798 114.473 197.958C114.144 198.118 113.781 198.16 113.665 198.051C113.55 197.942 113.073 197.984 112.606 198.144C111.344 198.578 111.228 198.168 112.48 197.7C113.073 197.479 113.523 197.413 113.481 197.552C113.35 197.99 113.748 197.734 114.072 197.172C114.424 196.561 115.594 196.155 115.973 196.512C116.139 196.669 116.383 196.599 116.698 196.303C117.234 195.8 117.884 195.87 117.722 196.414C117.65 196.651 117.725 196.652 117.944 196.416C118.126 196.22 118.956 195.804 119.789 195.493C120.98 195.046 121.431 195 121.905 195.276L121.905 195.276ZM99.1553 201.017C99.197 201.173 99.1751 201.315 99.1065 201.333C99.038 201.352 98.8692 201.261 98.7314 201.131C98.5936 201.001 98.6155 200.858 98.7801 200.814C98.9447 200.77 99.1136 200.861 99.1553 201.017ZM110.612 198.554C110.911 198.651 110.976 198.753 110.774 198.809C110.59 198.862 110.326 198.798 110.188 198.668C109.877 198.374 109.975 198.348 110.612 198.554ZM0.230647 228.172C0.147902 228.448 1.29944 228.439 1.45897 228.162C1.6813 227.776 2.92217 227.382 3.00001 227.672C3.04816 227.852 3.86392 227.68 5.222 227.203C6.88693 226.619 7.61741 226.494 8.48099 226.647C9.09316 226.756 9.36401 226.843 9.08289 226.842C8.80177 226.841 8.56144 226.962 8.54878 227.11C8.53613 227.258 8.34607 227.472 8.12646 227.585C7.90683 227.698 7.66788 227.943 7.59539 228.13C7.5229 228.316 7.38689 228.19 7.29309 227.849C7.13189 227.264 7.08601 227.264 6.45431 227.845C5.85483 228.397 5.73211 228.42 5.26227 228.071C4.76414 227.7 4.75333 227.703 5.04142 228.13C5.27546 228.477 5.18866 228.622 4.66098 228.763C4.28495 228.864 3.78793 228.758 3.55647 228.528C3.3229 228.296 3.17403 228.268 3.22188 228.466C3.31221 228.839 2.50226 229.206 2.40332 228.837C2.37203 228.72 1.3869 228.89 0.214145 229.213C-0.958602 229.537 -2.00916 229.716 -2.12049 229.611C-2.2318 229.506 -2.59518 229.494 -2.92799 229.583C-3.41208 229.712 -3.48141 229.655 -3.27463 229.296C-3.01585 228.847 0.351616 227.766 0.230337 228.171L0.230647 228.172ZM-4.40675 229.424C-4.37198 229.554 -4.43662 229.694 -4.55039 229.736C-4.66416 229.777 -5.14986 229.974 -5.62976 230.172C-6.70874 230.618 -7.23701 230.239 -6.21448 229.753C-5.20355 229.272 -4.48268 229.14 -4.40675 229.424V229.424ZM16.1955 224.915C16.2372 225.071 16.7482 225.07 17.3313 224.914C17.9143 224.758 18.4506 224.478 18.5231 224.291C18.611 224.065 18.6819 224.046 18.7358 224.234C18.837 224.587 20.5528 224.217 20.4578 223.863C20.4196 223.721 20.5231 223.644 20.6878 223.694C21.0017 223.789 23.5595 223.39 26.2392 222.829C27.1069 222.647 27.8245 222.527 27.8339 222.562C27.8847 222.752 31.6043 221.759 31.7914 221.505C32.1254 221.053 34.8879 220.06 34.969 220.363C35.0076 220.507 35.23 220.573 35.4631 220.511C35.6963 220.448 35.8541 220.274 35.8139 220.124C35.7681 219.953 37.7449 219.368 41.0759 218.565C44.0103 217.857 46.7176 217.195 47.0922 217.093C47.4665 216.99 48.2291 216.911 48.7864 216.916C49.3958 216.921 49.7721 216.821 49.7305 216.665C49.6616 216.408 50.6612 216.185 51.0013 216.382C51.0994 216.438 52.3905 216.112 53.8703 215.656C55.6538 215.107 56.7255 214.903 57.0492 215.052C57.4295 215.228 57.5155 215.191 57.4377 214.888C57.375 214.641 57.4436 214.586 57.6248 214.738C57.7971 214.882 59.4404 214.584 61.7367 213.991C63.8405 213.448 70.2235 211.833 75.9212 210.402C81.6189 208.97 88.9244 207.109 92.1555 206.266C95.3865 205.422 98.0519 204.811 98.0783 204.909C98.1047 205.006 98.8257 204.898 99.6804 204.669C100.535 204.44 101.209 204.158 101.177 204.041C101.146 203.924 101.255 203.792 101.42 203.748C101.584 203.704 101.675 203.817 101.62 203.998C101.566 204.179 101.72 204.275 101.962 204.21C102.204 204.145 102.437 204.219 102.478 204.375C102.52 204.53 102.689 204.622 102.854 204.578C103.018 204.534 103.04 204.391 102.902 204.261C102.754 204.122 103.035 203.924 103.588 203.779C104.297 203.593 104.439 203.627 104.174 203.92C103.915 204.207 103.922 204.283 104.198 204.213C104.487 204.139 104.502 204.241 104.263 204.655C104.092 204.951 103.689 205.264 103.367 205.35C103.045 205.437 102.818 205.643 102.863 205.809C102.911 205.989 102.679 206.099 102.292 206.082C101.853 206.061 101.731 206.137 101.918 206.313C102.07 206.457 102.12 206.595 102.028 206.62C101.936 206.644 101.694 206.428 101.49 206.14L101.119 205.615L100.531 206.402C100.128 206.941 99.8541 207.105 99.661 206.923C99.4613 206.735 99.3403 206.788 99.2452 207.105C99.1363 207.469 97.2159 208.059 88.9939 210.252C83.4293 211.737 76.5653 213.484 73.7405 214.133C70.9156 214.783 66.2316 215.871 63.3316 216.551C52.8601 219.008 50.1533 219.606 49.882 219.525C49.2758 219.342 46.9218 219.667 46.6342 219.973C46.4569 220.161 46.1967 220.18 46.0173 220.018C45.7858 219.809 45.6653 219.865 45.5426 220.238C45.4521 220.512 45.3418 220.61 45.2975 220.455C45.2465 220.277 43.4741 220.654 40.4924 221.476C35.7802 222.775 27.5906 224.48 27.5091 224.178C27.4855 224.091 26.4845 224.297 25.2846 224.638C23.2284 225.221 18.3694 226.108 17.4547 226.067C17.1174 226.051 17.0831 225.947 17.2767 225.525C17.4719 225.1 17.4495 225.045 17.1566 225.232C16.9586 225.358 16.4626 225.635 16.0543 225.847C15.597 226.084 15.4103 226.347 15.568 226.533C15.7089 226.699 15.6225 226.675 15.3759 226.48C15.0134 226.193 14.6385 226.247 13.4155 226.759C12.5555 227.12 11.6589 227.336 11.3366 227.26C11.0249 227.187 10.4071 227.206 9.9637 227.302C9.2211 227.463 9.20855 227.452 9.8048 227.165C10.3057 226.924 10.3464 226.821 9.98513 226.708C9.47394 226.548 9.83191 226.415 13.7971 225.29C15.1804 224.898 16.1504 224.746 16.1954 224.915L16.1955 224.915ZM99.0215 205.451C99.173 205.66 99.3919 205.73 99.5079 205.606C99.8408 205.252 99.6183 204.838 99.1612 204.96C98.909 205.028 98.8542 205.22 99.0215 205.451V205.451ZM115.246 200.066C115.101 200.689 115.135 200.746 115.494 200.485C115.852 200.225 115.887 200.282 115.743 200.897L115.577 201.611L115.127 201.055C114.61 200.418 113.998 200.469 113.926 201.156C113.899 201.413 113.979 201.597 114.104 201.563C114.229 201.53 114.382 201.695 114.445 201.931C114.539 202.279 114.296 202.393 113.145 202.543C112.179 202.669 111.758 202.829 111.816 203.047C111.864 203.225 111.455 203.487 110.896 203.636C110.237 203.813 109.928 203.781 109.999 203.543C110.076 203.285 109.961 203.318 109.6 203.657C109.178 204.053 109.1 204.054 109.142 203.658C109.169 203.397 109.305 203.153 109.444 203.115C109.582 203.078 109.662 202.92 109.62 202.765C109.462 202.174 109.043 202.652 108.924 203.558C108.786 204.614 108.777 204.622 107.967 204.432C107.558 204.336 107.367 204.067 107.328 203.529C107.297 203.107 107.17 202.829 107.046 202.911C106.923 202.992 106.724 202.952 106.606 202.821C106.478 202.679 107.115 202.367 108.163 202.055C109.784 201.574 109.978 201.58 110.427 202.125C110.91 202.712 112.033 202.725 111.877 202.142C111.833 201.977 111.691 201.954 111.563 202.09C111.432 202.23 111.351 202.135 111.379 201.873C111.407 201.602 111.632 201.43 111.92 201.46C112.241 201.494 112.313 201.418 112.127 201.243C111.801 200.935 112.668 200.411 113.79 200.238C114.19 200.176 114.719 199.95 114.966 199.735C115.368 199.386 115.397 199.42 115.246 200.066L115.246 200.066ZM107.799 203.202C107.754 203.353 107.897 203.429 108.116 203.37C108.336 203.311 108.421 203.174 108.307 203.066C108.192 202.958 108.049 202.882 107.99 202.898C107.93 202.914 107.845 203.051 107.799 203.202ZM119.039 198.993C119.161 199.108 119.025 199.336 118.737 199.5C118.389 199.699 118.312 199.934 118.507 200.203C118.669 200.426 118.681 200.64 118.535 200.679C118.147 200.783 117.962 199.842 118.266 199.314C118.575 198.778 118.739 198.71 119.039 198.993ZM117.517 200.244C117.493 200.473 117.437 200.67 117.393 200.682C117.348 200.694 117.201 200.551 117.066 200.365C116.931 200.179 116.987 199.982 117.19 199.927C117.394 199.872 117.541 200.015 117.517 200.244ZM116.639 201.329C116.399 201.639 115.925 201.971 115.585 202.067C114.914 202.258 114.369 201.943 114.721 201.568C114.842 201.44 115.029 201.468 115.136 201.632C115.283 201.854 115.46 201.807 115.849 201.443C116.593 200.745 117.157 200.664 116.64 201.33L116.639 201.329ZM120.405 200.362C120.337 200.481 120.096 200.556 119.87 200.529C119.62 200.499 119.669 200.414 119.995 200.312C120.289 200.22 120.474 200.242 120.405 200.361L120.405 200.362ZM105.532 204.467C105.958 204.604 105.958 204.648 105.536 204.765C105.265 204.84 105.009 204.774 104.967 204.618C104.875 204.273 104.906 204.264 105.532 204.467ZM107.166 204.491C107.395 204.807 107.329 204.851 106.807 204.728C106.058 204.553 105.939 204.358 106.491 204.21C106.708 204.152 107.011 204.279 107.166 204.491V204.491Z" fill="#282828"/>
</svg>
