<?xml version="1.0" encoding="iso-8859-1"?>
<svg width="211" height="46" viewBox="0 0 211 46" fill="none" xmlns="http://www.w3.org/2000/svg">
<path d="M155.956 0.242821C155.956 0.376461 156.007 0.460194 156.069 0.428894C156.131 0.397594 156.259 0.523254 156.354 0.708141C156.454 0.903175 156.608 1.0443 156.721 1.0443C156.876 1.0443 156.888 1.07222 156.781 1.17749C156.677 1.27981 156.68 1.32025 156.796 1.35195C156.914 1.38441 156.909 1.4302 156.771 1.56653C156.638 1.69859 156.631 1.74934 156.742 1.77978C156.822 1.80175 156.888 1.86142 156.888 1.91237C156.888 1.96332 156.836 1.9789 156.773 1.947C156.707 1.91373 156.687 1.95185 156.727 2.03635C156.765 2.11739 156.736 2.1837 156.663 2.1837C156.566 2.1837 156.564 2.23523 156.655 2.3736C156.755 2.52613 156.744 2.5635 156.596 2.5635C156.448 2.5635 156.441 2.58792 156.559 2.69079C156.709 2.82238 157.002 2.70472 156.964 2.5279C156.954 2.4822 157.008 2.42635 157.083 2.40379C157.172 2.3768 157.196 2.43469 157.152 2.57293C157.115 2.68852 157.132 2.7604 157.19 2.73266C157.248 2.70492 157.4 2.71365 157.529 2.75206C157.713 2.80745 157.659 2.8362 157.266 2.89095C156.958 2.93401 156.771 3.01047 156.771 3.09408C156.771 3.16782 156.67 3.22815 156.545 3.22815C156.421 3.22815 156.247 3.3116 156.159 3.41359C156.002 3.59645 155.409 3.84598 155.216 3.81009C155.162 3.79994 154.821 3.85259 154.459 3.92707C154.097 4.00155 153.473 4.09261 153.073 4.12942C152.672 4.16623 152.315 4.23487 152.279 4.28196C152.244 4.32904 152.1 4.36852 151.959 4.36969C151.819 4.37089 151.39 4.49809 151.005 4.65242C150.621 4.80674 150.218 4.93396 150.109 4.93513C150.001 4.93634 149.88 4.97999 149.84 5.03222C149.801 5.08444 149.827 5.12717 149.9 5.12717C150.061 5.12717 150.003 5.55182 149.84 5.56105C149.776 5.56467 149.494 5.62128 149.213 5.68683C148.932 5.75238 148.574 5.77983 148.418 5.74785C148.262 5.71586 147.967 5.73154 147.764 5.7827C147.56 5.83384 147.102 5.92236 146.744 5.97938C145.763 6.13588 145.239 6.26661 145.239 6.35493C145.239 6.44646 151.215 6.38259 152.694 6.27525C153.474 6.2187 153.771 6.23416 154.092 6.34791C154.316 6.42739 154.526 6.49859 154.558 6.50613C154.59 6.51369 154.77 6.57143 154.957 6.63447C155.144 6.6975 155.38 6.72283 155.481 6.69075C155.582 6.65867 157.133 6.61708 158.926 6.59834C160.72 6.57959 162.424 6.5217 162.712 6.4697C163.001 6.4177 163.865 6.32554 164.632 6.26492C165.4 6.20428 166.129 6.11092 166.251 6.05745C166.374 6.00397 166.73 5.98027 167.043 6.00478C167.356 6.02929 167.64 6.01207 167.675 5.96651C167.709 5.92095 167.786 5.90825 167.846 5.9383C167.906 5.96835 167.954 5.94769 167.954 5.89238C167.954 5.83707 167.994 5.8003 168.042 5.81067C168.236 5.85246 169.236 5.67971 169.236 5.60445C169.236 5.51178 170.116 5.35772 170.448 5.39215C170.571 5.4048 170.769 5.32901 170.89 5.22369C171.01 5.11838 171.198 5.02717 171.308 5.021C171.418 5.01484 171.822 5.00057 172.206 4.98931C172.591 4.97806 173.115 4.9195 173.371 4.85921C173.627 4.79892 174.035 4.72557 174.277 4.69621C174.519 4.66684 174.689 4.60533 174.654 4.55951C174.546 4.4165 174.804 4.37904 176.828 4.24488C176.936 4.23776 177.015 4.19145 177.003 4.14198C176.992 4.09252 177.087 4.0269 177.215 3.99617C177.343 3.96543 177.581 3.86691 177.742 3.77721C177.954 3.65989 178.395 3.59701 179.315 3.55306C180.018 3.51947 180.715 3.49645 180.863 3.50191C181.011 3.50737 181.293 3.44399 181.49 3.36105C181.693 3.27539 181.879 3.24788 181.919 3.29734C182.02 3.4188 182.43 3.53545 182.34 3.41697C182.245 3.2921 182.359 3.29849 182.669 3.43553C183.295 3.71211 186.258 3.50188 186.568 3.15895C186.663 3.05279 186.674 2.98117 186.597 2.96023C186.53 2.94222 186.476 2.88966 186.476 2.84342C186.476 2.79719 186.549 2.7823 186.639 2.81033C186.729 2.83837 186.837 2.81567 186.879 2.75988C186.992 2.61091 186.294 2.63251 185.917 2.78965C185.744 2.86181 185.367 2.95231 185.078 2.99075C184.79 3.0292 184.462 3.07452 184.35 3.09148C184.238 3.10843 184.146 3.06634 184.146 2.99793C184.146 2.90995 184.002 2.8828 183.651 2.90516C183.269 2.92959 183.203 2.91464 183.363 2.83925C183.476 2.78562 183.543 2.70714 183.511 2.66486C183.441 2.57367 184.093 2.48196 185.354 2.40534C186.062 2.36232 186.293 2.37935 186.371 2.48034C186.445 2.5751 186.473 2.57838 186.474 2.49229C186.477 2.31748 187.177 2.34571 187.428 2.53074C187.545 2.61716 187.641 2.64746 187.641 2.59806C187.641 2.54357 188.019 2.53391 188.602 2.5735C189.131 2.6094 189.956 2.66232 190.437 2.69109C190.917 2.71986 191.483 2.79308 191.693 2.85379C191.904 2.9145 192.206 2.94385 192.366 2.91899C192.525 2.89415 192.689 2.91745 192.729 2.97071C192.774 3.03027 192.744 3.038 192.65 2.99078C192.555 2.94299 192.526 2.95124 192.572 3.01263C192.66 3.12832 193.216 3.23312 193.873 3.258C194.261 3.27267 194.341 3.30982 194.352 3.47964C194.363 3.66201 194.283 3.69137 193.595 3.75639C193.171 3.79639 192.694 3.81988 192.534 3.80858L192.242 3.78803L192.551 3.92498C193.087 4.16245 193.61 4.26265 194.63 4.32357C195.175 4.35609 195.961 4.45247 196.378 4.53776C197.336 4.73392 200.659 4.74896 200.804 4.55779C200.854 4.492 200.956 4.46924 201.032 4.50721C201.226 4.60525 203.37 4.63826 203.297 4.54209C203.229 4.45214 203.246 4.45061 204.77 4.41291C205.846 4.3863 206.3 4.35386 207.91 4.18854C208.645 4.11315 209.074 4.15634 209.494 4.34778C209.669 4.42796 209.631 4.47356 209.208 4.69136C208.867 4.86703 208.45 4.97036 207.82 5.03523C206.746 5.14594 205.721 5.2854 204.982 5.42134C204.54 5.50265 204.452 5.55291 204.498 5.6972C204.532 5.80076 204.622 5.85254 204.718 5.82256C204.808 5.79448 204.881 5.81879 204.881 5.8766C204.881 5.93441 204.79 5.98236 204.678 5.98317C204.503 5.98437 204.499 5.99799 204.648 6.07666C204.759 6.13488 204.771 6.16924 204.681 6.17016C204.603 6.17102 204.569 6.23571 204.607 6.31456C204.653 6.41404 204.537 6.50702 204.224 6.62035L203.775 6.78319L204.913 6.84043C205.539 6.87191 206.365 6.89334 206.748 6.88805C207.131 6.88276 207.444 6.88377 207.444 6.89031C207.444 6.89682 207.339 7.00071 207.211 7.12113C207.083 7.24156 206.978 7.3112 206.978 7.27589C206.978 7.24059 206.86 7.27469 206.716 7.3518C206.572 7.42886 206.065 7.54104 205.59 7.60111C205.115 7.66118 204.519 7.77003 204.265 7.843C204.011 7.91597 203.614 7.9772 203.382 7.97906C202.733 7.98426 201.099 8.3306 201.571 8.36275C201.63 8.36674 201.783 8.38968 201.911 8.41371C202.039 8.43774 202.208 8.46884 202.286 8.48282C202.553 8.53045 202.57 8.62286 202.324 8.68651C202.189 8.72144 201.941 8.85353 201.774 8.98003C201.606 9.10654 201.352 9.21004 201.209 9.21004C201.066 9.21004 200.89 9.26877 200.816 9.34056C200.707 9.44782 200.803 9.4822 201.356 9.53347C201.725 9.56778 202.185 9.61655 202.377 9.64184C202.834 9.70201 204.654 9.69331 204.779 9.63035C204.947 9.54541 206.279 9.50536 206.279 9.58523C206.279 9.6272 206.201 9.71473 206.105 9.77974C206.009 9.84475 205.93 9.94256 205.93 9.99709C205.93 10.0516 205.964 10.0681 206.007 10.0338C206.049 9.9994 206.154 10.0189 206.24 10.077C206.326 10.1356 206.396 10.1423 206.396 10.092C206.396 10.0421 206.474 10.0013 206.571 10.0013C206.85 10.0013 206.774 10.103 206.389 10.2417C205.957 10.3977 206.019 10.4631 206.716 10.5868C207.352 10.6997 207.473 10.8766 207.017 11.0263C206.545 11.1813 204.329 11.3825 203.062 11.3853C202.468 11.3867 201.843 11.4162 201.673 11.4509L201.364 11.5142L201.696 11.7355C201.878 11.8572 202.116 11.9583 202.224 11.9602C202.501 11.965 202.585 12.116 202.436 12.3416C202.28 12.5798 201.267 13.008 200.86 13.008C200.688 13.008 200.589 13.049 200.63 13.103C200.669 13.1552 200.798 13.198 200.915 13.198C201.113 13.198 201.332 13.435 201.289 13.6015C201.245 13.7707 203.093 13.5815 203.248 13.4009C203.366 13.263 206.341 12.9025 206.633 12.9907L206.911 13.0747L206.641 13.1928C206.492 13.2578 205.524 13.426 204.49 13.5664C202.598 13.8235 202.137 14.005 203.377 14.005C203.758 14.005 204.108 14.0593 204.222 14.1359C204.384 14.2446 204.608 14.2476 205.552 14.1537C207.287 13.9809 208.296 13.8623 208.532 13.8031C208.689 13.7638 208.736 13.7919 208.707 13.9074C208.665 14.0757 208.304 14.2731 207.739 14.4376C207.253 14.5791 207.555 14.704 208.177 14.6183C208.447 14.5812 208.903 14.5207 209.192 14.484L209.716 14.4171L209.279 14.7583C209.039 14.946 208.842 15.1148 208.842 15.1334C208.842 15.1521 209.167 15.1974 209.564 15.234C210.504 15.3206 211.006 15.5353 211 15.847C210.997 16.0114 210.243 16.232 209.542 16.2738C209.253 16.291 208.597 16.373 208.085 16.456C207.572 16.5389 206.786 16.626 206.337 16.6495C205.889 16.673 205.207 16.7373 204.823 16.7923C202.436 17.1339 201.899 17.218 201.796 17.2661C201.733 17.2956 201.916 17.3665 202.204 17.4235C202.493 17.481 202.726 17.583 202.726 17.652C202.726 17.8117 201.552 18.1588 200.487 18.314C199.968 18.3896 199.585 18.5019 199.459 18.615C199.347 18.7162 198.957 18.8439 198.571 18.9057C197.696 19.0461 197.719 19.1792 198.671 19.4657C198.875 19.5271 199.018 19.6268 198.989 19.6872C198.923 19.8247 198.383 20.0344 198.095 20.0344C197.976 20.0344 197.911 20.0771 197.95 20.1293C197.99 20.1816 198.412 20.2243 198.889 20.2243C199.675 20.2243 199.99 20.3214 199.61 20.4462C199.271 20.5578 200.971 20.4974 201.811 20.3681C202.856 20.2069 203.425 20.2744 203.425 20.5594C203.425 20.6908 203.121 20.8634 202.282 21.2078C201.491 21.5323 201.186 21.702 201.292 21.7578C201.493 21.8637 201.294 21.972 200.513 22.1823C199.41 22.4792 198.535 22.9769 198.65 23.242C198.729 23.4231 198.299 23.5218 196.523 23.7307C195.641 23.8346 194.757 23.9854 194.559 24.0658C194.361 24.1462 193.942 24.237 193.629 24.2677C192.763 24.3523 191.107 24.6938 190.848 24.8411C190.721 24.913 190.459 24.9748 190.265 24.9785C190.071 24.9821 189.808 25.0219 189.68 25.0668C189.494 25.1317 189.542 25.1512 189.913 25.1623C190.906 25.1921 191.432 25.2719 191.564 25.4124C191.654 25.5084 191.794 25.5379 191.972 25.4981C192.205 25.4459 192.214 25.4522 192.036 25.5426C191.923 25.6005 191.74 25.6356 191.629 25.6208C191.518 25.6059 191.356 25.6297 191.27 25.6738C191.178 25.7211 190.996 25.7026 190.826 25.6285C190.602 25.5308 190.49 25.5279 190.319 25.6153C190.179 25.6863 190.072 25.6933 190.028 25.6345C189.989 25.5833 189.659 25.54 189.294 25.5381C188.93 25.5363 188.5 25.4737 188.34 25.3991C187.991 25.2365 187.874 25.2245 187.874 25.3516C187.874 25.4038 187.956 25.4465 188.056 25.4465C188.156 25.4465 188.209 25.4844 188.173 25.5307C188.138 25.577 188.219 25.6383 188.354 25.6668C188.488 25.6954 188.575 25.7751 188.547 25.8438C188.496 25.9706 187.974 26.0449 186.36 26.1553C184.901 26.255 184.496 26.3087 184.496 26.4019C184.496 26.4509 184.574 26.491 184.671 26.491C184.768 26.491 184.845 26.5754 184.845 26.6809C184.845 26.8202 184.768 26.8708 184.554 26.8708C184.219 26.8708 184.162 27.017 184.471 27.083C184.586 27.1074 185.175 27.1045 185.782 27.0767C187.547 26.9954 188.254 27.0225 188.623 27.1854C188.81 27.2681 188.998 27.3189 189.039 27.2982C189.08 27.2776 189.092 27.3809 189.065 27.5279C189.007 27.8487 189.171 27.8987 190.367 27.9256C191.083 27.9416 191.139 27.956 190.89 28.0611C190.481 28.234 188.979 28.4821 188.084 28.5249C187.627 28.5467 187.194 28.6247 187.039 28.7134C186.708 28.9024 186.509 28.9047 186.285 28.7223C186.184 28.6403 185.904 28.5808 185.623 28.582C184.76 28.5856 181.539 28.8526 181.101 28.9568C180.693 29.0541 180.68 29.0698 180.767 29.3813C180.821 29.5775 180.809 29.7433 180.736 29.8029C180.652 29.8706 180.656 29.9415 180.747 30.0309C181.025 30.3042 180.671 30.3608 178.971 30.3147C177.65 30.2789 177.238 30.2985 176.97 30.41C176.687 30.5278 175.408 30.6904 174.536 30.7195C174.408 30.7238 174.041 30.7655 173.721 30.8122L173.138 30.8971L173.662 30.9661C173.951 31.0041 174.816 31.0134 175.584 30.9868C176.353 30.9601 177.454 30.944 178.031 30.951C178.607 30.9579 179.734 30.894 180.535 30.809C182.12 30.6407 183.754 30.5229 184.458 30.5264C184.703 30.5276 184.936 30.4913 184.977 30.4457C185.017 30.4001 185.214 30.3573 185.414 30.3506C185.614 30.344 185.777 30.3031 185.777 30.2599C185.777 30.2167 185.895 30.2083 186.039 30.2414C186.245 30.2884 186.263 30.2798 186.127 30.2017C185.976 30.1158 185.98 30.1018 186.156 30.1006C186.268 30.0997 186.36 30.0515 186.36 29.9933C186.36 29.9282 186.47 29.9465 186.647 30.0407C186.966 30.211 187.105 30.2378 187.009 30.1099C186.973 30.0636 187.049 30.0035 187.176 29.9764C187.309 29.9481 187.408 29.974 187.408 30.0368C187.408 30.1004 187.592 30.1466 187.845 30.1466C188.123 30.1466 188.272 30.105 188.254 30.0324C188.236 29.9539 188.361 29.9323 188.657 29.9632C189.142 30.0138 189.62 30.235 189.623 30.4099C189.624 30.4847 189.665 30.4754 189.738 30.384C189.826 30.2734 189.851 30.3014 189.853 30.5089C189.855 30.8514 189.663 31.1436 189.436 31.1436C189.338 31.1436 189.291 31.1863 189.33 31.2385C189.37 31.2907 189.307 31.3367 189.191 31.3407C188.808 31.354 188.564 31.4115 188.304 31.5501C188.071 31.6744 187.525 31.6266 187.525 31.4819C187.525 31.4558 187.595 31.4564 187.681 31.4833C187.766 31.5102 187.911 31.4579 188.001 31.3672C188.143 31.225 188.142 31.2134 188 31.2835C187.873 31.346 187.853 31.3245 187.916 31.1906C187.965 31.0864 187.938 30.9854 187.849 30.9391C187.626 30.8238 187.438 30.8455 187.641 30.9631C187.772 31.0394 187.705 31.0519 187.368 31.0137C187.121 30.9856 186.826 31.0114 186.708 31.0713C186.547 31.1534 186.453 31.1517 186.324 31.0643C186.187 30.9713 186.136 30.9816 186.063 31.1175C186.014 31.2102 185.981 31.3182 185.992 31.3573C186.002 31.3965 185.936 31.4285 185.845 31.4285C185.754 31.4285 185.66 31.4774 185.636 31.5371C185.611 31.5968 185.437 31.6591 185.249 31.6754C185.062 31.6918 184.849 31.7704 184.778 31.8502C184.706 31.93 184.605 31.9639 184.553 31.9255C184.501 31.8872 184.492 31.9306 184.532 32.022C184.622 32.2265 184.399 32.2456 184.303 32.0416C184.242 31.9119 184.209 31.9136 184.015 32.0563C183.809 32.2087 183.797 32.2076 183.795 32.0367C183.794 31.8852 183.775 31.8789 183.68 31.9982C183.512 32.2106 183.536 32.2568 183.848 32.3206C184.045 32.361 184.126 32.4394 184.113 32.5786C184.093 32.8004 183.687 32.9661 183.219 32.9438C182.784 32.9229 182.399 33.0451 182.399 33.2044C182.399 33.3069 182.283 33.337 181.962 33.3179C181.493 33.29 180.703 33.3968 180.419 33.5267C180.277 33.5912 180.289 33.608 180.477 33.614C180.605 33.618 180.972 33.6414 181.292 33.6659C182.283 33.7416 183.6 33.7392 184.076 33.6609C184.402 33.6071 184.507 33.6161 184.448 33.6931C184.398 33.7592 184.43 33.7805 184.531 33.7489C184.627 33.719 184.781 33.8059 184.904 33.9588C185.054 34.1455 185.074 34.2307 184.973 34.258C184.879 34.2837 184.902 34.3403 185.043 34.4305C185.234 34.5529 185.222 34.5604 184.903 34.5153C184.711 34.4881 184.619 34.491 184.7 34.5218C184.995 34.6351 184.832 34.7518 184.379 34.7518C184.085 34.7518 183.913 34.708 183.912 34.6331C183.91 34.5458 183.883 34.5485 183.81 34.6432C183.747 34.7242 183.682 34.7361 183.636 34.6754C183.558 34.5723 183.41 34.5803 183.046 34.7074C182.921 34.7509 182.646 34.7894 182.436 34.7929C181.953 34.8009 181.796 35.0366 182.274 35.0366C182.462 35.0366 182.636 35.0984 182.674 35.1791C182.719 35.2752 182.668 35.3215 182.518 35.3215C182.395 35.3215 182.252 35.3749 182.201 35.4402C182.067 35.6104 181.593 35.812 181.47 35.7504C181.413 35.7217 181.334 35.7416 181.293 35.7947C181.253 35.8478 181.076 35.8912 180.899 35.8912C180.722 35.8912 180.293 35.9606 179.945 36.0454C179.395 36.1793 179.346 36.21 179.57 36.2786C179.713 36.3221 180.685 36.3518 181.732 36.3448C182.779 36.3376 183.703 36.3664 183.787 36.4085C183.874 36.4522 183.974 36.44 184.019 36.3801C184.113 36.2567 187.734 36.1631 187.824 36.2818C187.856 36.3235 187.963 36.3322 188.062 36.3011C188.185 36.2628 188.201 36.2233 188.112 36.1787C188.04 36.1424 188.141 36.1127 188.335 36.1127C188.53 36.1127 188.689 36.1536 188.689 36.2035C188.689 36.2534 188.769 36.2402 188.867 36.1741C188.965 36.1081 189.082 36.0844 189.127 36.1215C189.173 36.1587 189.08 36.2699 188.921 36.3686L188.631 36.5483L188.922 36.5026C189.178 36.4626 189.185 36.4682 188.981 36.5472C188.645 36.6773 188.093 36.6639 187.769 36.5177C187.453 36.3752 187.059 36.4221 187.059 36.6021C187.059 36.685 186.828 36.7223 186.301 36.7247C185.826 36.7269 185.544 36.6893 185.544 36.6239C185.544 36.5665 185.479 36.5896 185.399 36.6751C185.293 36.7875 184.978 36.8477 184.263 36.8917C183.718 36.9252 182.942 37.0129 182.537 37.0866C182.133 37.1602 181.635 37.2246 181.431 37.2296C181.226 37.2347 180.797 37.2971 180.477 37.3684C179.931 37.4899 179.992 37.4948 181.467 37.4462C182.332 37.4177 183.118 37.3937 183.214 37.3929C183.31 37.392 184.516 37.2912 185.894 37.1687C187.271 37.0463 188.773 36.9331 189.231 36.9172C189.689 36.9012 190.04 36.8561 190.01 36.817C189.981 36.7778 190.183 36.7456 190.459 36.7454C190.735 36.7454 191.433 36.6831 192.009 36.6074C192.998 36.4777 195.324 36.3439 195.008 36.435C194.928 36.4581 194.891 36.5162 194.928 36.564C194.964 36.6117 194.846 36.6528 194.666 36.6554C194.486 36.6578 194.156 36.741 193.931 36.8401C193.707 36.9392 193.419 37.0601 193.291 37.1088C192.87 37.2689 185.999 38.1953 184.379 38.3105C183.899 38.3446 182.51 38.4572 181.292 38.5607C180.075 38.6641 178.468 38.7902 177.722 38.8409C176.975 38.8915 176.112 38.9949 175.804 39.0705C175.399 39.1698 175.221 39.1786 175.163 39.1021C175.09 39.005 173.864 39.0316 172.381 39.1624C172.157 39.1822 171.449 39.225 170.808 39.2577C169.659 39.3162 167.907 39.5132 166.927 39.6941C166.65 39.7452 166.374 39.7623 166.314 39.7321C166.254 39.7019 165.443 39.7713 164.511 39.8864C163.132 40.0567 162.767 40.074 162.55 39.9794C162.332 39.8842 162.052 39.9002 161.012 40.0672C159.282 40.3452 157.023 40.7067 155.898 40.8857C155.385 40.9673 154.64 41.0946 154.243 41.1687C153.845 41.2428 153.347 41.3032 153.136 41.3029C152.925 41.3029 152.517 41.364 152.228 41.4392C151.742 41.5659 150.748 41.7066 148.093 42.0241C146.729 42.1871 146.454 42.2248 145.064 42.439C144.423 42.5377 143.375 42.689 142.734 42.7752C142.094 42.8614 141.412 42.9531 141.22 42.979C139.86 43.1622 139.601 43.1588 139.33 42.9541C139.184 42.8437 139.065 42.7048 139.065 42.6455C139.065 42.5862 139.026 42.5428 138.978 42.549C138.93 42.5551 138.77 42.5551 138.624 42.549C138.401 42.5396 138.377 42.5087 138.474 42.3603C138.617 42.1431 138.503 42.026 138.289 42.1704C138.049 42.3329 138.104 42.1867 138.38 41.9277C138.525 41.7918 138.816 41.6699 139.084 41.633C139.475 41.5792 139.52 41.5495 139.395 41.4265C139.207 41.2418 139.366 41.2304 131.901 41.9666C131.388 42.0172 130.471 42.079 129.862 42.104C129.254 42.1291 128.153 42.1946 127.416 42.2495C126.679 42.3045 125.709 42.3664 125.261 42.3871C124.812 42.4078 124.238 42.469 123.985 42.5231C123.732 42.5772 122.726 42.6241 121.751 42.6273C120.776 42.6305 119.909 42.6521 119.824 42.6754C119.614 42.7329 116.885 42.8494 116.235 42.8287C115.948 42.8195 115.633 42.7529 115.535 42.6806C115.315 42.5187 114.756 42.5024 112.156 42.5825C110.961 42.6193 109.863 42.703 109.503 42.7848C109.032 42.8915 108.252 42.9208 106.183 42.9092C104.695 42.9008 102.219 42.9262 100.682 42.9656C97.5656 43.0455 97.7322 43.0464 94.5078 42.9323C92.4201 42.8584 91.2158 42.8554 89.3822 42.9193C89.0619 42.9304 88.8915 42.9591 89.0037 42.983C89.1158 43.0068 89.2075 43.0711 89.2075 43.1256C89.2075 43.1911 88.8805 43.2061 88.2465 43.1696C87.7179 43.1392 86.1322 43.071 84.7227 43.0181C83.3132 42.9651 81.5047 42.878 80.7038 42.8244C77.4863 42.6092 76.2592 42.5333 74.5881 42.4464C70.4089 42.2289 68.2058 42.1422 65.9097 42.105C64.8525 42.0879 63.542 42.0447 62.9974 42.0091C62.4529 41.9736 61.6403 41.9483 61.1918 41.953C60.7434 41.9576 59.8522 41.9195 59.2115 41.8681C58.5708 41.8167 56.4958 41.7559 54.6005 41.7329C52.7051 41.7099 50.9229 41.6494 50.6399 41.5985C50.3569 41.5476 49.7135 41.4828 49.2102 41.4546C48.7068 41.4263 48.1302 41.3812 47.9288 41.3543C47.24 41.2624 46.1647 41.2 44.5921 41.1605C43.2073 41.1257 41.8618 41.0423 39.8743 40.8679C39.554 40.8398 39.1084 40.8049 38.8841 40.7904C38.6599 40.7758 38.0833 40.7364 37.6028 40.7029C37.1222 40.6694 36.3098 40.6158 35.7973 40.5839C35.2849 40.5519 34.8393 40.5126 34.8072 40.4965C34.7751 40.4804 34.4507 40.4415 34.0863 40.4099C33.7219 40.3783 33.347 40.3285 33.2532 40.2991C33.1593 40.2698 32.6187 40.233 32.0518 40.2175C30.4949 40.1747 30.4969 40.175 30.4969 40.0215C30.4969 39.9432 30.4414 39.8791 30.3736 39.8791C30.3057 39.8791 30.2881 39.9291 30.3344 39.9902C30.3918 40.0659 30.3539 40.081 30.2153 40.0377C30.1034 40.0027 29.8963 39.9741 29.755 39.9741C29.5816 39.9741 29.4924 39.9123 29.4805 39.7842C29.4596 39.5572 29.5228 39.5463 29.7564 39.7367C30.0002 39.9354 30.273 39.9205 30.191 39.7129C30.1507 39.6107 30.1633 39.5876 30.2238 39.6529C30.2908 39.7252 30.619 39.7388 31.2541 39.6955C32.3473 39.621 33.1725 39.6415 34.6905 39.7809C35.2992 39.8367 36.0855 39.9054 36.4379 39.9335C36.7903 39.9616 37.1398 40.0009 37.2145 40.0208C37.2893 40.0407 37.381 39.9922 37.4183 39.913C37.4685 39.8064 37.5791 39.7857 37.8448 39.8333C38.262 39.908 38.5303 39.9364 39.6413 40.0235C40.0898 40.0587 40.4881 40.1032 40.5264 40.1224C40.6081 40.1634 42.1662 40.1701 44.3009 40.1387C45.6553 40.1188 46.6103 40.1732 47.3228 40.3107C47.7243 40.3882 50.5331 40.4217 50.5331 40.349C50.5331 40.3116 50.1792 40.2502 49.7468 40.2124C49.3143 40.1747 48.8556 40.127 48.7275 40.1064C47.8286 39.9619 45.4214 39.7999 43.4855 39.7537C43.037 39.743 42.6146 39.7053 42.5469 39.6699C42.4342 39.6111 38.8672 39.3844 38.6758 39.4239C38.6302 39.4333 38.1998 39.4111 37.7193 39.3745C36.9764 39.3181 35.0792 39.2044 34.6031 39.1879C34.431 39.1819 34.4108 39.0593 34.5687 38.9798C34.6821 38.9227 35.5602 38.9095 36.3548 38.9529C36.5975 38.9662 36.8386 39.0333 36.8907 39.1021C36.9611 39.195 37.1613 39.2106 37.6727 39.1627C38.0507 39.1273 38.395 39.0814 38.4379 39.0606C38.4808 39.0398 38.5954 39.0876 38.6926 39.1668C38.7898 39.246 38.897 39.2743 38.9309 39.2295C38.9967 39.1428 41.3479 39.1797 42.0294 39.2783C42.2536 39.3107 42.6488 39.346 42.9077 39.3568C43.1666 39.3675 43.4942 39.4269 43.6358 39.4886C43.8416 39.5784 43.8932 39.5755 43.8932 39.4742C43.8932 39.3995 44.0489 39.3371 44.2718 39.3225C45.1929 39.2619 46.4821 39.2676 47.5043 39.3369C48.2396 39.3867 48.5535 39.3804 48.4396 39.3183C47.9805 39.0677 48.8419 38.9441 50.1836 39.0681C51.373 39.178 51.5856 39.1838 52.0997 39.1202C52.3649 39.0874 52.7368 39.0944 52.9262 39.1358C53.4251 39.2447 56.0182 39.4377 57.173 39.4518C57.7175 39.4584 58.5038 39.4931 58.9203 39.5288C59.3367 39.5645 60.1755 39.6156 60.7841 39.6424C61.3928 39.6692 62.8344 39.754 63.9876 39.8308C65.1408 39.9075 66.8562 39.9991 67.7995 40.0342C69.3366 40.0913 69.5222 40.0816 69.5889 39.9398C69.6524 39.805 69.8549 39.7823 70.9608 39.7857C71.6745 39.7879 72.4942 39.7551 72.7825 39.7128L73.3067 39.6357L72.4331 39.5299C71.9525 39.4716 71.3759 39.4252 71.1517 39.4266C70.9274 39.4282 70.0101 39.363 69.1131 39.2822C68.2161 39.2013 66.5125 39.0874 65.3272 39.0291C64.1419 38.9708 63.0556 38.9027 62.913 38.8777C62.7705 38.8527 61.5911 38.7906 60.292 38.7398C57.9573 38.6484 56.3214 38.5739 55.0762 38.502C54.7238 38.4817 53.5149 38.4218 52.3898 38.3689C51.2647 38.316 50.2688 38.2537 50.1765 38.2305C50.0843 38.2072 49.904 38.1559 49.7759 38.1164C49.6478 38.0769 49.3414 38.0327 49.0951 38.0182C48.8488 38.0037 48.5865 37.9241 48.5122 37.8413C48.4049 37.7218 48.1015 37.6857 47.0379 37.6662C46.3014 37.6527 45.6463 37.6154 45.5823 37.5833C45.5182 37.5512 45.0726 37.4998 44.5921 37.4692C42.2951 37.3227 39.9988 37.2037 38.9424 37.1764C38.3017 37.1599 36.9388 37.0718 35.9137 36.9806C34.8886 36.8894 33.5781 36.8006 33.0014 36.7832C29.0105 36.6633 25.8231 36.5122 24.1483 36.3636C23.5716 36.3124 22.5609 36.2431 21.9023 36.2095C21.2436 36.1759 20.677 36.1119 20.6431 36.0673C20.6093 36.0226 20.755 35.9827 20.967 35.9784C21.179 35.9741 21.5005 35.9619 21.6814 35.9512C21.8622 35.9405 22.033 35.9618 22.0609 35.9986C22.0887 36.0353 22.3052 36.0218 22.5419 35.9685C22.7822 35.9144 23.3093 35.8993 23.735 35.9343C24.1545 35.9688 26.3848 36.0137 28.6913 36.0342C30.9978 36.0546 33.7499 36.0989 34.807 36.1326C36.6913 36.1927 37.2253 36.156 35.9892 36.0512C35.6463 36.0222 35.3404 35.9777 35.3094 35.9525C35.2263 35.8848 35.6523 35.7172 36.0056 35.6787C36.4173 35.6337 36.5473 35.5134 36.1952 35.5031C36.0404 35.4986 35.2322 35.4551 34.3993 35.4064C33.5664 35.3577 31.9283 35.2927 30.759 35.2618C28.8369 35.2111 28.6331 35.1897 28.6331 35.0393C28.6331 34.8304 28.1641 34.7811 25.3379 34.6923C24.1983 34.6565 23.2385 34.5911 23.2051 34.547C23.1717 34.503 22.9146 34.4669 22.6339 34.4669C21.6769 34.4669 21.9451 34.2047 23.1207 33.9911C23.4525 33.9308 23.8981 33.8894 24.1109 33.899C25.5296 33.9631 25.1575 33.7761 23.5658 33.6252C22.9251 33.5644 22.034 33.494 21.5855 33.4687C21.137 33.4434 20.3245 33.3801 19.7799 33.3281C19.2353 33.276 18.1345 33.2052 17.3336 33.1708C16.3474 33.1284 15.8399 33.068 15.761 32.9838C15.6965 32.9148 15.2809 32.8318 14.8291 32.7975C14.3806 32.7635 13.9613 32.6835 13.8972 32.6198C13.8331 32.556 13.3979 32.475 12.9299 32.4398C12.462 32.4046 11.9617 32.313 11.818 32.2363C11.6535 32.1484 11.1497 32.0814 10.4555 32.055C8.95882 31.9983 7.78616 31.8913 7.72116 31.8056C7.65286 31.7155 8.67285 31.5868 8.82956 31.6657C8.89383 31.6981 8.9464 31.6841 8.9464 31.6346C8.9464 31.5851 8.76291 31.5165 8.53868 31.4822C8.09596 31.4145 8.01225 31.2964 8.33481 31.1945C8.71545 31.0742 8.18277 30.8837 6.9852 30.7118C5.97934 30.5675 5.34367 30.3891 5.80701 30.3812C6.24249 30.3737 5.57019 30.2063 4.87035 30.148C4.45486 30.1133 4.05399 30.0438 3.97952 29.9934C3.90506 29.943 3.5126 29.8583 3.10741 29.8051C1.98151 29.6573 1.9937 29.5385 3.14224 29.465C3.57138 29.4375 3.96371 29.356 4.0817 29.2699C4.24724 29.1492 4.44966 29.1347 5.18834 29.1909C6.69041 29.3053 6.98779 29.283 7.21323 29.0394C7.32355 28.9202 7.39113 28.7928 7.36345 28.7563C7.33574 28.7197 6.95979 28.6599 6.52802 28.6234C6.09622 28.5868 5.69051 28.5234 5.62643 28.4824C5.56238 28.4414 5.26096 28.3776 4.95663 28.3407C4.12143 28.2394 4.29285 28.1052 5.25755 28.1052C5.7274 28.1052 6.1515 28.0732 6.20001 28.034C6.2485 27.9949 6.73712 27.9628 7.2858 27.9628C7.97957 27.9628 8.29865 27.9267 8.33337 27.8441C8.36763 27.7628 8.24283 27.7253 7.93681 27.7249C7.69121 27.7247 7.30679 27.6852 7.08257 27.6373C6.85832 27.5894 6.23114 27.5231 5.68883 27.4901C5.14651 27.4571 4.64369 27.3901 4.57144 27.3412C4.49922 27.2923 4.40956 27.2772 4.37224 27.3076C4.33492 27.3381 4.18248 27.3275 4.03349 27.2841C3.82434 27.2232 3.94846 27.1914 4.57803 27.1447C5.32098 27.0896 6.16837 26.9511 6.61661 26.8114C6.90106 26.7227 6.45869 26.6253 5.13138 26.4842C4.47467 26.4144 3.93736 26.332 3.93736 26.301C3.93736 26.2701 3.59662 26.2624 3.18016 26.284C2.57166 26.3156 2.42299 26.2961 2.42299 26.1845C2.42299 26.0124 2.7917 25.731 3.01462 25.7329C3.15158 25.7341 3.14996 25.7503 3.00552 25.8264C2.85684 25.9048 2.86174 25.9187 3.03831 25.9199C3.15245 25.9208 3.27705 25.8551 3.3152 25.774C3.37431 25.6485 3.58493 25.634 4.73856 25.6763C6.18416 25.7293 6.53946 25.6665 6.27313 25.4049C5.82707 24.9668 4.0081 24.4971 2.75768 24.4971C2.00221 24.4971 1.60765 24.382 1.60765 24.1615C1.60765 24.0511 1.79404 24.0228 2.51045 24.0246C3.007 24.0258 3.62292 24.0719 3.8792 24.1269C4.13548 24.1819 5.34297 24.2463 6.56252 24.2699C8.71915 24.3118 8.78038 24.3077 8.79753 24.122C8.81442 23.9394 8.67221 23.8079 8.42229 23.775C8.3582 23.7665 7.85567 23.6905 7.30551 23.606C5.50502 23.3294 3.90637 23.161 2.27014 23.0754C0.754211 22.9961 0.237213 22.8874 0.39386 22.6808C0.429626 22.6336 0.508957 22.6202 0.57019 22.6511C0.631424 22.6819 0.667114 22.6506 0.649506 22.5814C0.631775 22.5119 0.708054 22.4615 0.820114 22.4687C0.931549 22.4759 0.997528 22.4485 0.966751 22.4079C0.935944 22.3673 1.0887 22.3069 1.3062 22.2736C1.77631 22.2017 1.88779 22.0306 1.64702 21.7504C1.51871 21.6011 1.50502 21.512 1.59656 21.4222C1.74666 21.2747 1.64862 21.1739 1.35527 21.1739C1.23781 21.1739 1.14171 21.156 1.14171 21.1341C1.14171 21.1123 1.10693 21.0205 1.06439 20.9302C0.993347 20.7793 1.07156 20.7711 2.02544 20.8289C2.59653 20.8635 3.26036 20.9173 3.50063 20.9483C3.84827 20.9932 3.93747 20.9745 3.93747 20.8566C3.93747 20.7752 4.02194 20.67 4.12523 20.6229C4.39189 20.5012 4.2318 19.9542 3.89735 19.8442C3.65825 19.7656 3.65736 19.761 3.8792 19.7489C4.11218 19.7363 4.11218 19.7362 3.8792 19.6546C3.65196 19.575 3.96941 19.541 5.16058 19.5173C5.65747 19.5074 6.03427 19.3796 6.03427 19.221C6.03427 19.1362 6.15497 19.0845 6.35461 19.0836C6.53081 19.0828 6.79413 19.0563 6.93979 19.0245C7.18816 18.9703 7.19179 18.9588 6.99802 18.8389C6.88441 18.7687 6.64806 18.7098 6.47278 18.7082C6.29752 18.7064 5.80826 18.5556 5.38556 18.3728C4.95924 18.1885 4.44743 18.0405 4.23608 18.0405C3.53015 18.0405 2.42902 17.9196 2.48326 17.8481C2.51286 17.809 2.44792 17.7829 2.33894 17.7901C2.22997 17.7973 2.1221 17.7295 2.09927 17.6395C2.04625 17.4306 2.73409 17.0704 3.08885 17.1213C3.23077 17.1417 3.36594 17.1117 3.38924 17.0547C3.44415 16.9204 4.80368 16.8825 5.34744 17.0001C5.57837 17.05 6.77095 17.1024 7.99759 17.1166C10.0714 17.1405 10.6829 17.092 9.90753 16.9652C9.73134 16.9364 9.35129 16.8693 9.06299 16.8161C8.77467 16.7629 8.31601 16.7176 8.04372 16.7153C7.77141 16.713 7.54863 16.6685 7.54863 16.6162C7.54863 16.564 7.46654 16.5213 7.36623 16.5213C7.26591 16.5213 7.07622 16.4743 6.94472 16.417C6.70816 16.3138 6.70859 16.3114 6.98149 16.2005C7.45937 16.0063 7.31128 15.8231 6.50818 15.615C6.09612 15.5082 5.73442 15.3586 5.70442 15.2827C5.67442 15.2067 5.60352 15.1197 5.54688 15.0894C5.36871 14.9941 5.582 14.7012 5.78365 14.7643C5.88554 14.7961 5.93677 14.796 5.89746 14.7639C5.85815 14.7319 5.95813 14.598 6.11964 14.4663C6.33206 14.2932 6.55113 14.2226 6.91179 14.2113C7.186 14.2026 7.38916 14.1676 7.36325 14.1334C7.33736 14.0993 7.81786 14.0923 8.43103 14.1179C9.32246 14.1551 9.58504 14.1356 9.74127 14.0205C9.95822 13.8606 11.1022 13.7948 11.699 13.9077C11.9268 13.9508 12.0932 13.9375 12.1427 13.8722C12.1863 13.8147 12.3456 13.7677 12.4968 13.7677C12.8472 13.7677 13.1401 13.6766 13.1401 13.5676C13.1401 13.521 13.0641 13.4828 12.9712 13.4828C12.8783 13.4828 12.7578 13.418 12.7034 13.3389C12.6421 13.2495 12.1867 13.1286 11.5036 13.0203C10.1577 12.8069 9.16693 12.4805 9.26062 12.2816C9.29659 12.2051 9.40063 12.1659 9.49179 12.1944C9.58296 12.223 9.62825 12.2077 9.59247 12.1605C9.55666 12.1133 9.66479 11.9415 9.83278 11.7788C10.0576 11.5611 10.2 11.499 10.3723 11.5436C10.5021 11.5771 10.5773 11.5656 10.541 11.5177C10.5049 11.4701 10.6577 11.427 10.8805 11.4219C11.1034 11.4167 11.6536 11.339 12.1033 11.2492L12.921 11.0858L12.6608 10.8601C12.5177 10.7359 12.3521 10.6343 12.2929 10.6343C12.2336 10.6343 12.0053 10.5647 11.7854 10.4797C11.402 10.3314 11.3929 10.316 11.5626 10.1048C11.6742 9.96607 11.6964 9.86279 11.6226 9.82562C11.5582 9.79318 11.5391 9.7223 11.5802 9.66811C11.6284 9.60455 11.6911 9.6153 11.7568 9.69841C11.823 9.782 11.8894 9.79321 11.9461 9.73035C11.9942 9.67706 12.1907 9.57165 12.3829 9.49609L12.7324 9.35872L12.3637 9.32645C11.9645 9.29151 11.7511 9.04786 12.0405 8.95736C12.1382 8.92677 12.2472 8.92536 12.2826 8.95422C12.3181 8.98309 12.5215 8.92681 12.7348 8.82918C12.948 8.73154 13.3217 8.62119 13.5652 8.58396C13.8087 8.54672 14.0785 8.45873 14.1648 8.38841C14.3692 8.22185 14.4491 8.22552 15.5315 8.45116C16.5029 8.65367 16.7767 8.63479 17.1753 8.33786C17.4001 8.17036 17.4909 8.16211 18.0995 8.25381C18.8979 8.37411 20.402 8.38952 20.3163 8.27652C20.2834 8.23309 19.874 8.14439 19.4066 8.07943C18.2159 7.91393 18.0819 7.87838 18.2774 7.77988C18.6164 7.60913 17.0986 7.20606 15.6153 7.0729C15.2148 7.03694 14.8616 6.97401 14.8306 6.93307C14.7995 6.89212 14.8841 6.7447 15.0184 6.60546C15.2441 6.37161 15.2484 6.33941 15.0751 6.18328C14.9719 6.09032 14.8875 5.9909 14.8875 5.96234C14.8875 5.84499 16.86 6.01385 17.5085 6.1867C18.4409 6.43526 20.329 6.61667 20.5035 6.47446C20.5958 6.39925 20.5966 6.33466 20.5064 6.24606C20.3846 6.12642 20.1978 6.07525 18.6443 5.73594C18.1598 5.63012 17.9162 5.52907 17.9162 5.43391C17.9162 5.31364 18.0537 5.30105 18.7805 5.35474C19.3343 5.39564 19.6716 5.38329 19.7193 5.32036C19.7603 5.26634 19.7296 5.22215 19.651 5.22215C19.5725 5.22215 19.5354 5.20003 19.5685 5.173C19.6466 5.10934 21.2964 5.39155 21.4604 5.49662C21.5894 5.57924 23.2905 5.7928 23.6533 5.77192C23.7654 5.76548 23.8572 5.70672 23.8572 5.64136C23.8572 5.576 23.8843 5.46493 23.9174 5.39454C23.9747 5.27293 22.5521 5.02709 20.1006 4.73494C19.7323 4.69105 19.241 4.59044 19.0089 4.51136C18.7767 4.43229 18.4227 4.36735 18.2223 4.36706C17.6948 4.3662 16.937 4.17824 17.0594 4.07845C17.1161 4.03224 17.8255 3.98226 18.6359 3.96737C19.4463 3.9525 20.1006 3.93306 20.0899 3.9242C20.0793 3.91534 19.8115 3.82515 19.4949 3.72379C18.9436 3.54726 18.9304 3.53464 19.1824 3.42474C19.3797 3.33866 19.5905 3.33536 20.0262 3.41153C20.7351 3.53547 20.8284 3.53711 20.8284 3.42565C20.8284 3.37757 20.6718 3.3102 20.4803 3.27592C19.8435 3.16191 19.9814 3.0383 20.7454 3.0383C21.1901 3.0383 21.6397 2.97808 21.8581 2.88926C22.0791 2.7994 22.327 2.7667 22.4824 2.80691C22.8148 2.89288 28.2841 2.92567 28.2201 2.84131C28.0846 2.66259 29.6128 2.66351 30.9167 2.84303C33.5574 3.20637 35.8041 3.4129 37.2534 3.42554C38.0543 3.43252 39.26 3.49694 39.9327 3.56871C40.6054 3.64047 41.8039 3.74324 42.5959 3.79708C43.388 3.85093 44.0695 3.91141 44.1103 3.9315C44.1511 3.95158 44.5777 3.99529 45.0582 4.02863C45.5387 4.06197 46.1154 4.10732 46.3396 4.12941C46.8064 4.1754 48.9317 4.27199 50.475 4.31736C51.5913 4.35017 53.2875 4.4375 54.4356 4.52127C54.82 4.54932 56.314 4.5905 57.7556 4.61277C59.1971 4.63504 60.9008 4.68829 61.5414 4.73109C62.1821 4.77389 63.9541 4.80466 65.4791 4.79947C67.7854 4.79162 68.2704 4.76647 68.3622 4.65007C68.4558 4.53134 68.4884 4.53021 68.5773 4.64261C68.647 4.73086 68.7969 4.75636 69.0262 4.71897C69.216 4.68803 69.4277 4.70947 69.498 4.76677C69.5681 4.82393 69.7986 4.87971 70.0101 4.89073C70.2216 4.90175 70.4995 4.93606 70.6276 4.96698C71.3257 5.13548 72.0531 5.18447 72.3461 5.08274C72.5813 5.00108 73.1684 5.09755 73.0873 5.20454C73.0574 5.24395 73.6188 5.28769 74.3348 5.30172C76.2629 5.33952 76.4628 5.35679 76.681 5.5044C76.8584 5.6244 76.8761 5.61888 76.841 5.45453C76.8143 5.32927 76.8578 5.2806 76.9763 5.30347C77.0724 5.32202 77.269 5.33804 77.4131 5.33907C77.5573 5.3401 77.6752 5.37376 77.6752 5.41387C77.6752 5.45398 77.7597 5.51321 77.8629 5.54551C77.9992 5.58814 78.0315 5.56357 77.9807 5.45578C77.9326 5.3535 77.9557 5.33059 78.0551 5.38208C78.1345 5.42318 78.6974 5.47022 79.3061 5.48662C80.5861 5.5211 80.3958 5.52065 86.4119 5.50336C88.9426 5.49609 91.3373 5.521 91.7335 5.55871C92.1296 5.59642 92.5418 5.59972 92.6496 5.56604C92.8478 5.50402 96.6532 5.38158 97.8224 5.3996C98.7367 5.41368 99.7737 4.97554 99.1969 4.81883C99.1109 4.79547 99.1704 4.72828 99.3425 4.65428C99.5025 4.58549 99.6625 4.49314 99.6981 4.44906C99.8267 4.28974 100.816 4.20085 101.097 4.32338C101.274 4.40059 101.743 4.42832 102.48 4.40518C103.094 4.38593 105.11 4.34763 106.96 4.32007C108.81 4.29252 110.451 4.24394 110.606 4.21211C110.762 4.18028 111.423 4.1477 112.076 4.13971C112.729 4.13171 113.368 4.07714 113.496 4.01845C113.725 3.91342 114.805 3.74102 114.986 3.7806C115.209 3.82938 115.623 3.81711 116 3.75055C116.224 3.711 116.513 3.6858 116.641 3.69455C116.769 3.7033 116.979 3.71799 117.107 3.72721C117.235 3.73641 117.838 3.69379 118.446 3.63245C119.055 3.57113 119.78 3.52183 120.057 3.52291C120.334 3.52395 120.622 3.48446 120.697 3.43505C120.773 3.38564 121.005 3.31551 121.213 3.27922C121.523 3.22522 121.592 3.2424 121.592 3.37392C121.592 3.51627 121.688 3.52694 122.436 3.46741C122.901 3.43045 124.119 3.39036 125.145 3.37833C126.17 3.36629 127.291 3.30625 127.636 3.24491C127.981 3.18357 128.289 3.13338 128.32 3.13338C128.351 3.13338 128.311 3.06928 128.232 2.99095C128.152 2.91262 127.91 2.84853 127.693 2.84853C127.477 2.84853 127.3 2.83066 127.3 2.80882C127.3 2.78698 127.268 2.70152 127.229 2.61891C127.132 2.41293 127.46 2.42306 127.719 2.63405C127.865 2.75358 127.935 2.76657 127.97 2.68093C127.997 2.6158 128.066 2.58665 128.125 2.61617C128.184 2.64567 128.232 2.63525 128.232 2.593C128.232 2.55075 128.35 2.51095 128.494 2.50455C128.638 2.49815 129.437 2.44455 130.27 2.38544C131.103 2.32634 132.78 2.26086 133.998 2.23994C135.215 2.21903 136.342 2.17849 136.502 2.14986C137.045 2.05284 140.029 1.82786 141.628 1.7634C144.591 1.64396 146.837 1.29856 147.3 0.89119C147.445 0.763763 147.7 0.660877 147.884 0.656021C149.391 0.616093 151.484 0.488129 152.403 0.379757C152.787 0.334408 153.462 0.271107 153.902 0.239082C154.341 0.207058 154.965 0.140167 155.286 0.0904312C155.608 0.040699 155.89 0 155.914 0C155.937 0 155.956 0.109341 155.956 0.242977L155.956 0.242821ZM155.956 1.10674C155.956 1.21061 156.008 1.21837 156.185 1.14114C156.321 1.08155 156.386 0.983681 156.346 0.898003C156.294 0.787502 156.241 0.77961 156.117 0.863602C156.028 0.923553 155.956 1.03296 155.956 1.10674ZM136.328 2.51896C135.872 2.6522 135.883 2.65415 136.852 2.60786C139.069 2.50187 139.764 2.44817 139.764 2.3827C139.764 2.25883 136.818 2.37567 136.328 2.51896ZM190.437 3.66559C190.437 3.68612 190.515 3.70291 190.612 3.70291C190.708 3.70291 190.786 3.66152 190.786 3.61094C190.786 3.56036 190.708 3.54356 190.612 3.57362C190.515 3.60368 190.437 3.64507 190.437 3.66559ZM181.991 3.98776C181.951 4.04139 182.046 4.08271 182.211 4.08271C182.371 4.08271 182.534 4.03999 182.574 3.98776C182.614 3.93414 182.519 3.89281 182.355 3.89281C182.194 3.89281 182.031 3.93554 181.991 3.98776ZM187.525 4.47358C187.525 4.57156 187.664 4.58075 187.923 4.49983C188.215 4.4084 188.137 4.29434 187.816 4.34433C187.656 4.36929 187.525 4.42745 187.525 4.47358ZM121.611 4.48904C121.213 4.57929 121.159 4.61396 121.355 4.65179C121.665 4.71185 125.372 4.58495 127.358 4.44624C127.898 4.40855 123.729 4.31652 122.873 4.34722C122.457 4.36215 121.889 4.42597 121.611 4.48904ZM117.573 4.78127C117.445 4.80598 117.681 4.82271 118.097 4.81845C119.091 4.80829 119.484 4.72107 118.854 4.65059C118.598 4.62193 118.257 4.6295 118.097 4.66741C117.937 4.70532 117.701 4.75655 117.573 4.78126V4.78127ZM191.913 4.75337C191.673 4.75908 191.674 4.76403 191.944 4.85175C192.261 4.95517 192.534 4.90366 192.534 4.74017C192.534 4.68062 192.451 4.65796 192.349 4.68972C192.248 4.72142 192.051 4.75006 191.913 4.75337ZM115.823 4.86025C115.792 4.88565 115.999 4.91361 116.284 4.92238C116.568 4.93115 116.837 4.89056 116.881 4.83218C116.938 4.75757 116.801 4.73911 116.421 4.77005C116.123 4.79427 115.854 4.83486 115.823 4.86025ZM24.7308 5.9817C24.6862 6.0405 24.8721 6.07238 25.219 6.06542C25.7163 6.05545 25.74 6.04605 25.4297 5.9817C24.92 5.87598 24.8109 5.87598 24.7308 5.9817ZM204.277 7.37587C204.361 7.4033 204.462 7.39993 204.5 7.36837C204.539 7.33682 204.47 7.31438 204.348 7.3185C204.212 7.32306 204.184 7.34555 204.277 7.37587V7.37587ZM202.901 7.50091C202.667 7.56202 202.656 7.57748 202.843 7.57972C202.971 7.58127 203.181 7.54579 203.309 7.50091C203.606 7.39694 203.299 7.39694 202.901 7.50091ZM201.338 7.4636C201.237 7.4953 201.154 7.59805 201.154 7.69194C201.154 7.83738 201.227 7.85518 201.649 7.81221C202.184 7.75768 202.533 7.59586 202.116 7.59586C201.979 7.59586 201.834 7.55313 201.795 7.50091C201.712 7.39162 201.598 7.38232 201.338 7.4636ZM12.0917 9.11507C12.0917 9.16729 12.1834 9.20937 12.2956 9.20856C12.4698 9.20736 12.474 9.19374 12.3247 9.11507C12.1048 8.99926 12.0917 8.99926 12.0917 9.11507ZM198.453 12.9779C198.537 13.0054 198.637 13.002 198.676 12.9704C198.715 12.9389 198.646 12.9165 198.523 12.9206C198.387 12.9252 198.36 12.9476 198.453 12.9779V12.9779ZM199.406 13.255C199.406 13.4097 199.73 13.4271 200.156 13.2952C200.619 13.1516 200.509 13.0506 199.931 13.0881C199.579 13.1109 199.406 13.1658 199.406 13.255ZM197.243 13.1865C197.359 13.3399 197.776 13.379 197.776 13.2365C197.776 13.1566 197.656 13.103 197.478 13.103C197.314 13.103 197.208 13.1406 197.243 13.1865ZM198.125 13.2929C197.995 13.3613 198.062 13.3853 198.387 13.3864C198.627 13.3872 198.824 13.3451 198.824 13.2929C198.824 13.1719 198.355 13.1719 198.125 13.2929ZM3.93747 24.4021C3.93747 24.4543 3.98988 24.497 4.05397 24.497C4.11803 24.497 4.17044 24.4543 4.17044 24.4021C4.17044 24.3499 4.11803 24.3071 4.05397 24.3071C3.98988 24.3071 3.93747 24.3499 3.93747 24.4021ZM3.09293 26.1741C3.173 26.2004 3.30403 26.2004 3.38411 26.1741C3.4642 26.1477 3.39868 26.1262 3.23853 26.1262C3.07834 26.1262 3.01283 26.1477 3.09293 26.1741ZM4.84024 27.3176C4.98439 27.3402 5.22029 27.3402 5.36444 27.3176C5.50861 27.295 5.39066 27.2765 5.10234 27.2765C4.81403 27.2765 4.69609 27.295 4.84024 27.3176ZM10.2279 28.0841C10.2279 28.1248 10.6603 28.2087 11.1889 28.2706C11.7175 28.3326 12.2761 28.4128 12.4303 28.449C12.6043 28.4899 12.6836 28.4793 12.6393 28.4209C12.6002 28.3693 12.1071 28.2726 11.5436 28.2062C10.9801 28.1397 10.4667 28.0718 10.4026 28.0553C10.3385 28.0387 10.273 28.0218 10.257 28.0177C10.241 28.0136 10.2279 28.0435 10.2279 28.0841ZM180.128 28.9597C179.919 29.0326 179.928 29.042 180.208 29.048C180.38 29.0517 180.554 29.0119 180.593 28.9597C180.679 28.8463 180.451 28.8463 180.128 28.9597ZM11.0433 29.516C11.0433 29.5608 11.5694 29.6463 12.2124 29.7059C13.6606 29.8401 13.9207 29.8428 13.7726 29.7222C13.7105 29.6715 13.0841 29.592 12.3806 29.5455C11.6771 29.499 11.0884 29.455 11.0724 29.4477C11.0564 29.4404 11.0433 29.4711 11.0433 29.516V29.516ZM186.663 30.653C186.63 30.6965 186.679 30.7321 186.773 30.7321C186.866 30.7321 186.942 30.6965 186.942 30.653C186.942 30.6095 186.893 30.5739 186.833 30.5739C186.772 30.5739 186.696 30.6095 186.663 30.653ZM171.078 30.8286C171.162 30.856 171.262 30.8527 171.301 30.8211C171.34 30.7896 171.271 30.7671 171.148 30.7713C171.012 30.7758 170.985 30.7983 171.078 30.8286V30.8286ZM189.155 30.9537C189.155 31.0059 189.247 31.048 189.359 31.0472C189.533 31.046 189.538 31.0323 189.388 30.9537C189.169 30.8379 189.155 30.8379 189.155 30.9537ZM188.689 31.1017C188.689 31.1247 188.742 31.1436 188.806 31.1436C188.87 31.1436 188.922 31.0983 188.922 31.043C188.922 30.9877 188.87 30.9689 188.806 31.0011C188.742 31.0334 188.689 31.0787 188.689 31.1017ZM182.05 31.7628C181.889 31.7993 181.391 31.8648 180.943 31.9084C180.494 31.952 179.944 32.0328 179.72 32.088C179.496 32.1432 179.312 32.1848 179.312 32.1804C179.312 32.144 178.514 32.3472 178.118 32.4845C177.517 32.6927 177.479 32.8527 178.031 32.8527C178.315 32.8527 178.438 32.8956 178.438 32.9951C178.438 33.1411 177.917 33.1988 177.052 33.1486C176.675 33.1268 175.599 33.2904 175.353 33.4071C175.169 33.4943 175.757 33.5925 176.523 33.6028C177.022 33.6095 177.447 33.5426 177.972 33.3749C178.381 33.2443 178.824 33.1369 178.956 33.1361C179.147 33.1349 179.161 33.1169 179.026 33.0474C178.933 32.9994 178.815 32.9812 178.764 33.007C178.713 33.0327 178.671 33.0133 178.671 32.964C178.671 32.879 178.926 32.819 179.816 32.6945C180.029 32.6647 180.232 32.5802 180.267 32.5067C180.318 32.3974 180.363 32.3952 180.512 32.4942C180.666 32.5956 180.684 32.591 180.627 32.4657C180.577 32.3562 180.625 32.3203 180.809 32.3319C180.947 32.3406 181.233 32.309 181.446 32.2616C181.714 32.2019 181.884 32.2101 181.999 32.2883C182.093 32.3518 182.166 32.3602 182.166 32.3075C182.166 32.2027 183.054 31.9032 183.364 31.9032C183.474 31.9032 183.564 31.8447 183.564 31.7733C183.564 31.6767 183.408 31.6503 182.952 31.67C182.616 31.6845 182.21 31.7263 182.05 31.7628V31.7628ZM177.258 35.2063C177.342 35.2291 177.466 35.2027 177.533 35.1475C177.62 35.077 177.574 35.0647 177.381 35.106C177.223 35.1395 177.17 35.1826 177.258 35.2063ZM36.5547 35.5825C36.5547 35.6217 36.7139 35.6628 36.9083 35.6739C37.1106 35.6854 37.2321 35.655 37.1925 35.6027C37.1113 35.4956 36.5543 35.4779 36.5547 35.5825ZM176.924 36.1807L176.633 36.188L176.905 36.2767C177.212 36.377 177.739 36.2998 177.739 36.1546C177.739 36.1016 177.622 36.0844 177.477 36.1161C177.333 36.1476 177.084 36.1766 176.924 36.1807ZM37.4864 36.1601C37.4864 36.2036 37.565 36.2392 37.6611 36.2392C37.7572 36.2392 37.8358 36.2036 37.8358 36.1601C37.8358 36.1166 37.7572 36.081 37.6611 36.081C37.565 36.081 37.4864 36.1166 37.4864 36.1601ZM36.9986 36.1459C37.0827 36.1733 37.1831 36.1699 37.2218 36.1384C37.2606 36.1068 37.1917 36.0844 37.0689 36.0885C36.9332 36.093 36.9056 36.1155 36.9986 36.1459V36.1459ZM174.922 36.3358C175.006 36.3632 175.106 36.3598 175.145 36.3283C175.184 36.2967 175.115 36.2743 174.992 36.2784C174.857 36.2829 174.829 36.3054 174.922 36.3358V36.3358ZM187.991 36.4608C187.991 36.513 188.043 36.5557 188.107 36.5557C188.171 36.5557 188.224 36.513 188.224 36.4608C188.224 36.4086 188.171 36.3658 188.107 36.3658C188.043 36.3658 187.991 36.4086 187.991 36.4608ZM184.962 36.7098C184.962 36.8162 185.181 36.7229 185.243 36.5898C185.305 36.4595 185.288 36.4536 185.139 36.5539C185.042 36.6199 184.962 36.6901 184.962 36.7098ZM183.797 36.6982C183.797 36.7765 183.818 36.8406 183.843 36.8406C183.868 36.8406 183.919 36.7765 183.956 36.6982C183.992 36.6198 183.972 36.5557 183.91 36.5557C183.848 36.5557 183.797 36.6198 183.797 36.6982ZM31.2906 39.9439C31.3747 39.9713 31.4752 39.9679 31.5139 39.9364C31.5526 39.9048 31.4838 39.8824 31.361 39.8865C31.2253 39.8911 31.1977 39.9136 31.2906 39.9439V39.9439ZM138.546 41.8664C138.509 41.915 138.527 41.9789 138.585 42.0083C138.643 42.0377 138.721 41.9979 138.758 41.9199C138.83 41.7661 138.655 41.7219 138.546 41.8664ZM193.838 1.11552C193.905 1.18079 193.914 1.2355 193.858 1.23709C193.802 1.23864 193.855 1.2864 193.975 1.34313C194.282 1.48867 194.01 1.61344 193.407 1.60308C193.093 1.59768 193.017 1.57501 193.174 1.53333C193.396 1.4745 193.562 1.23277 193.378 1.2355C193.036 1.24059 192.789 1.36467 192.842 1.50467C192.894 1.64135 192.881 1.64015 192.734 1.49532C192.535 1.29848 191.649 1.26227 191.572 1.44783C191.533 1.5421 191.486 1.54145 191.342 1.44471C191.115 1.29219 190.981 0.921597 191.174 0.979515C191.249 1.00208 191.293 1.07809 191.273 1.14843C191.246 1.23787 191.3 1.22851 191.451 1.1173C191.623 0.990311 191.873 0.962158 192.691 0.977539C193.342 0.989769 193.761 1.04012 193.838 1.11549L193.838 1.11552ZM195.437 1.3248C195.592 1.40297 195.518 1.614 195.335 1.614C195.202 1.614 195.085 1.34589 195.194 1.29098C195.243 1.26664 195.352 1.28186 195.437 1.3248ZM192.973 2.08875C193.101 2.25692 193.088 2.28031 192.855 2.29312C192.71 2.30106 192.513 2.31456 192.417 2.32309C192.106 2.35067 192.048 2.26391 192.253 2.07933C192.512 1.84614 192.789 1.84978 192.973 2.08875ZM122.407 2.79528C122.407 2.81831 122.355 2.86356 122.291 2.89584C122.227 2.92811 122.174 2.90926 122.174 2.85396C122.174 2.79866 122.227 2.7534 122.291 2.7534C122.355 2.7534 122.407 2.77225 122.407 2.79528ZM121.04 2.86014C120.961 2.92503 120.867 2.9542 120.831 2.92497C120.796 2.89574 120.86 2.84264 120.975 2.80699C121.141 2.75546 121.154 2.76637 121.04 2.86014ZM183.564 3.12158C183.564 3.16741 183.483 3.2596 183.384 3.32645C183.245 3.42094 183.174 3.42265 183.065 3.33412C182.956 3.24559 182.964 3.20032 183.099 3.1307C183.319 3.01751 183.564 3.01269 183.564 3.12159V3.12158ZM52.0475 3.98776C52.0475 4.03999 51.972 4.08271 51.8797 4.08271C51.7874 4.08271 51.6794 4.03999 51.6398 3.98776C51.6002 3.93554 51.6758 3.89281 51.8077 3.89281C51.9396 3.89281 52.0475 3.93554 52.0475 3.98776ZM54.0278 4.08861C54.0278 4.1967 53.7149 4.20771 53.6351 4.10242C53.6037 4.06104 53.6792 4.02097 53.8029 4.01337C53.9267 4.00577 54.0278 4.03963 54.0278 4.08861ZM169.551 4.24182C169.656 4.46449 169.496 4.49716 169.093 4.3354C168.883 4.25103 168.764 4.17556 168.828 4.16771C169.319 4.10752 169.496 4.1257 169.551 4.24182ZM68.822 4.46252C68.822 4.51474 68.7989 4.55746 68.7706 4.55746C68.7424 4.55746 68.6868 4.51474 68.6472 4.46252C68.6077 4.41029 68.6308 4.36756 68.6986 4.36756C68.7665 4.36756 68.822 4.41029 68.822 4.46252ZM70.5014 4.54472C70.5516 4.6109 70.5612 4.69069 70.5227 4.72203C70.4185 4.80701 70.3048 4.68203 70.3611 4.54433C70.4006 4.44785 70.428 4.44793 70.5014 4.54485V4.54472ZM70.0742 4.5254C70.3127 4.60384 70.2393 4.73373 69.9869 4.67992C69.8587 4.65261 69.7539 4.59252 69.7539 4.54639C69.7539 4.45586 69.8447 4.44992 70.0742 4.5254ZM14.2273 5.00056C14.3614 5.10982 14.3122 5.22211 14.1303 5.22211C14.0342 5.22211 13.9555 5.15803 13.9555 5.07969C13.9555 4.93142 14.0933 4.89131 14.2273 5.00056ZM158.795 5.5822C158.826 5.62359 158.75 5.66373 158.625 5.67141C158.5 5.67908 158.428 5.64523 158.465 5.59617C158.547 5.48731 158.718 5.48011 158.795 5.5822ZM157.745 5.7453C157.708 5.82311 157.592 5.89006 157.487 5.89408C157.382 5.89811 157.06 5.92064 156.771 5.94416C156.393 5.97501 156.296 5.96014 156.422 5.89083C156.566 5.81155 156.568 5.79447 156.432 5.79327C156.341 5.79241 156.299 5.76519 156.339 5.73265C156.379 5.7001 156.727 5.65781 157.112 5.63866C157.695 5.60965 157.8 5.62746 157.745 5.7453ZM205.284 5.97515C205.37 6.08878 205.151 6.20135 204.996 6.12319C204.866 6.05756 204.951 5.88677 205.114 5.88677C205.171 5.88677 205.247 5.92654 205.284 5.97515ZM204.183 8.44483C204.183 8.49397 204.131 8.56028 204.067 8.59218C204.001 8.62545 203.982 8.58733 204.022 8.50283C204.099 8.33834 204.183 8.30825 204.183 8.44483ZM203.328 8.49373C203.328 8.56977 203.284 8.60954 203.229 8.58212C203.175 8.5547 203.16 8.49249 203.197 8.44387C203.292 8.31964 203.328 8.33363 203.328 8.49373ZM0.326279 20.8889C0.422394 20.9396 0.448593 20.981 0.384521 20.981C0.32045 20.981 0.189392 20.9396 0.0933075 20.8889C-0.00280762 20.8383 -0.0289917 20.7969 0.03508 20.7969C0.0991364 20.7969 0.230164 20.8383 0.326279 20.8889ZM191.718 27.9355C191.718 27.9766 191.613 28.0102 191.485 28.0102C191.357 28.0102 191.252 27.9701 191.252 27.9212C191.252 27.8722 191.357 27.8386 191.485 27.8464C191.613 27.8543 191.718 27.8944 191.718 27.9355ZM186.84 29.3299L187.113 29.5102L186.416 29.5856C186.033 29.6271 185.444 29.6635 185.108 29.6664C184.771 29.6694 184.496 29.7009 184.496 29.7364C184.496 29.8104 183.802 29.6631 183.694 29.5662C183.654 29.531 183.784 29.5272 183.982 29.5577C184.203 29.592 184.471 29.5571 184.68 29.467C184.867 29.3866 185.295 29.3166 185.632 29.3116C185.968 29.3065 186.243 29.268 186.243 29.226C186.243 29.0899 186.56 29.145 186.84 29.3299V29.3299ZM188.308 29.3019C188.27 29.3335 188.169 29.3369 188.085 29.3094C187.992 29.2791 188.02 29.2566 188.156 29.2521C188.278 29.2479 188.347 29.2704 188.308 29.3019V29.3019ZM190.428 30.6134C190.433 30.7135 190.405 30.7696 190.366 30.7381C190.328 30.7065 190.324 30.6246 190.357 30.5561C190.394 30.4803 190.422 30.5028 190.428 30.6134H190.428ZM187.246 31.4115C187.214 31.4544 187.294 31.5644 187.425 31.6559C187.66 31.8196 187.652 31.8267 186.943 32.1001C186.089 32.4294 186.01 32.4368 186.01 32.188C186.01 32.071 186.088 31.9976 186.214 31.9967C186.379 31.9955 186.387 31.9791 186.253 31.9102C186.162 31.8634 185.992 31.8403 185.875 31.8587C185.757 31.8772 185.661 31.8487 185.661 31.7955C185.661 31.7423 185.831 31.7063 186.039 31.7156C186.248 31.7249 186.523 31.7275 186.651 31.7214C186.845 31.7122 186.855 31.695 186.709 31.6183C186.56 31.5396 186.564 31.5261 186.738 31.5248C186.85 31.524 186.942 31.4806 186.942 31.4284C186.942 31.3762 187.024 31.3335 187.124 31.3335C187.224 31.3335 187.279 31.3686 187.246 31.4115V31.4115ZM185.757 32.1777C185.874 32.2367 185.869 32.2763 185.735 32.3672C185.546 32.4947 185.396 32.3833 185.526 32.2123C185.572 32.1513 185.674 32.136 185.757 32.1777ZM189.796 36.176C189.836 36.2282 189.789 36.2709 189.693 36.2709C189.597 36.2709 189.486 36.2282 189.447 36.176C189.407 36.1237 189.453 36.081 189.549 36.081C189.645 36.081 189.757 36.1237 189.796 36.176ZM187.41 36.6011C187.243 36.7658 187.175 36.783 187.175 36.6609C187.175 36.6142 187.261 36.5492 187.366 36.5163C187.526 36.4663 187.533 36.4801 187.41 36.6011ZM22.7759 38.1333C22.6394 38.2446 21.8935 38.3319 21.743 38.2541C21.6564 38.2094 21.638 38.1679 21.7021 38.1619C22.3291 38.1033 22.829 38.09 22.7759 38.1333ZM23.4831 38.2505C23.58 38.3006 23.5075 38.3282 23.2793 38.3282C23.0845 38.3282 22.9252 38.2926 22.9252 38.249C22.9252 38.148 23.2867 38.1489 23.4831 38.2506V38.2505ZM26.4781 38.3717C26.9768 38.4627 28.1874 38.528 30.4494 38.5858C31.224 38.6056 31.9699 38.6707 32.1068 38.7304C32.2559 38.7955 32.7777 38.8285 33.4068 38.8128C33.9848 38.7984 34.4577 38.7963 34.4577 38.8082C34.4577 38.8412 33.7799 39.1195 33.6994 39.1195C33.6604 39.1195 33.6609 39.0768 33.7004 39.0245C33.7424 38.9691 33.624 38.9296 33.4161 38.9296C33.2201 38.9296 33.0597 38.9723 33.0597 39.0245C33.0597 39.0768 33.0042 39.1195 32.9364 39.1195C32.8685 39.1195 32.8524 39.0661 32.9005 39.0008C32.9652 38.913 32.9442 38.9072 32.82 38.9783C32.7276 39.0312 32.5472 39.0695 32.4191 39.0635C32.2909 39.0576 31.9078 39.0463 31.5676 39.0386C31.2275 39.0309 30.9735 38.9925 31.0033 38.9533C31.033 38.9142 30.7347 38.8884 30.3403 38.896C29.946 38.9037 29.5316 38.8701 29.4194 38.8214C29.2834 38.7624 29.2156 38.7675 29.2156 38.8369C29.2156 38.894 29.1522 38.9089 29.0748 38.8698C28.9973 38.8308 28.4862 38.7872 27.939 38.773C27.3918 38.7588 26.944 38.742 26.944 38.7358C26.944 38.7296 26.6819 38.7108 26.3616 38.6938C26.0413 38.6769 25.7661 38.6536 25.75 38.642C25.7227 38.6223 25.6027 38.5935 25.4006 38.5583C25.3079 38.5421 25.8547 38.2663 25.9539 38.2792C25.9859 38.2834 26.2218 38.325 26.4781 38.3718L26.4781 38.3717ZM31.196 38.8464C31.196 38.8921 31.2977 38.9295 31.4221 38.9295C31.5464 38.9295 31.6765 38.8921 31.7112 38.8464C31.7458 38.8007 31.644 38.7634 31.4851 38.7634C31.326 38.7634 31.196 38.8007 31.196 38.8464ZM24.965 39.121C25.0052 39.174 25.0869 39.1929 25.1466 39.1628C25.2062 39.1328 25.255 39.1509 25.255 39.2032C25.255 39.387 25.067 39.3899 24.9279 39.2082C24.8504 39.1071 24.8106 39.0244 24.8394 39.0244C24.8682 39.0244 24.9247 39.0679 24.965 39.1209V39.121ZM27.4586 39.4913C27.5814 39.5914 27.7062 39.6535 27.7359 39.6293C27.7656 39.605 28.0452 39.5709 28.3571 39.5534C28.8976 39.5231 29.5677 39.7187 29.3978 39.8572C29.2617 39.968 28.4573 39.9421 28.2816 39.8212C28.1017 39.6974 27.7738 39.6933 27.627 39.813C27.5034 39.9138 26.9091 39.8917 26.827 39.7833C26.7151 39.6357 26.8813 39.3094 27.0684 39.3094C27.1602 39.3094 27.3358 39.3913 27.4586 39.4914V39.4913ZM26.2563 39.4189C26.3059 39.4844 26.2884 39.5029 26.213 39.4649C26.1434 39.4298 26.0536 39.4446 26.0134 39.4977C25.9048 39.6408 25.7598 39.6146 25.7598 39.4517C25.7598 39.2845 26.1355 39.2597 26.2563 39.4189ZM162.448 40.1263C162.409 40.1578 162.309 40.1612 162.225 40.1338C162.132 40.1034 162.159 40.081 162.295 40.0764C162.418 40.0723 162.487 40.0947 162.448 40.1263V40.1263ZM138.949 42.8225C138.949 42.8747 138.925 42.9174 138.897 42.9174C138.869 42.9174 138.813 42.8747 138.774 42.8225C138.734 42.7703 138.757 42.7275 138.825 42.7275C138.893 42.7275 138.949 42.7703 138.949 42.8225ZM136.232 42.8129C136.42 42.9255 136.375 43.0873 136.168 43.0432C136.036 43.015 135.951 43.0538 135.939 43.1479C135.929 43.23 135.911 43.3613 135.9 43.4397C135.89 43.518 135.785 43.5874 135.667 43.5939C135.55 43.6005 135.415 43.6146 135.366 43.6254C135.318 43.6362 135.122 43.6795 134.93 43.7216C134.502 43.8152 134.27 43.9551 134.355 44.0676C134.39 44.1139 134.316 44.1518 134.189 44.1518C134.062 44.1518 133.932 44.0984 133.9 44.0331C133.859 43.9506 133.811 43.9455 133.745 44.0163C133.573 44.1973 133.217 44.2538 133.029 44.1297C132.878 44.03 132.863 44.0325 132.946 44.1442C133.022 44.2466 132.997 44.2637 132.842 44.2154C132.731 44.1804 132.568 44.1518 132.482 44.1518C132.395 44.1518 132.293 44.0707 132.254 43.9716C132.209 43.8558 132.109 43.8074 131.975 43.8361C131.677 43.8995 131.708 44.1343 132.008 44.0893C132.245 44.0538 132.245 44.0551 132.017 44.1432C131.889 44.1928 131.607 44.2364 131.39 44.2401C131.173 44.2438 130.675 44.2886 130.284 44.3399C129.268 44.4726 126.715 44.7052 125.552 44.771C125.008 44.8018 124.326 44.8439 124.038 44.8646C123.43 44.9082 122.231 44.9777 120.66 45.0602C120.051 45.0922 119.212 45.1419 118.796 45.1706C117.795 45.2398 116.219 45.2449 116 45.1798C115.904 45.1512 115.603 45.095 115.33 45.0549C115.058 45.0148 114.835 44.9506 114.835 44.9122C114.835 44.8737 114.965 44.7367 115.123 44.6076C115.358 44.4165 115.52 44.3746 115.997 44.3822C116.346 44.3878 116.568 44.3525 116.544 44.2954C116.523 44.2425 116.101 44.1957 115.608 44.1914C114.833 44.1847 114.317 44.0618 114.494 43.9261C114.572 43.8654 116.117 43.8054 116.116 43.863C116.116 43.8913 116.47 43.901 116.903 43.8847C117.335 43.8683 117.99 43.8938 118.358 43.9413C118.725 43.9888 119.051 44.0074 119.081 43.9826C119.111 43.9578 119.361 43.9286 119.636 43.9175C119.911 43.9065 120.28 43.8645 120.457 43.8241C120.649 43.7805 120.839 43.7913 120.927 43.8508C121.009 43.9059 121.582 43.9608 122.201 43.9728C122.968 43.9878 123.304 44.0274 123.253 44.097C123.212 44.1532 123.267 44.1404 123.375 44.0685C123.512 43.9785 123.721 43.957 124.047 43.9995C124.358 44.0401 124.496 44.0279 124.447 43.9641C124.365 43.8553 124.38 43.8532 125.436 43.8301C125.852 43.821 126.311 43.7799 126.455 43.7389C126.599 43.6978 126.717 43.6991 126.717 43.7418C126.717 43.7845 126.848 43.8194 127.008 43.8194C127.169 43.8194 127.3 43.7874 127.3 43.7482C127.3 43.709 127.381 43.677 127.481 43.677C127.581 43.677 127.635 43.7131 127.602 43.7572C127.521 43.8638 128.718 43.7072 128.805 43.5998C128.964 43.4032 131.144 43.2039 131.144 43.386C131.144 43.4416 131.199 43.4871 131.267 43.4871C131.335 43.4871 131.36 43.4473 131.323 43.3987C131.218 43.2597 131.486 43.1742 131.659 43.2914C131.776 43.3701 131.83 43.3653 131.874 43.2726C131.912 43.1925 132.103 43.1559 132.412 43.17C132.675 43.182 132.891 43.1519 132.891 43.1031C132.891 42.9461 133.49 43.0492 133.606 43.2263C133.668 43.3204 133.769 43.3719 133.831 43.3408C133.893 43.3096 133.917 43.2488 133.884 43.2056C133.851 43.1625 133.901 43.1032 133.995 43.0739C134.088 43.0446 134.197 43.0622 134.235 43.1129C134.278 43.1692 134.427 43.1499 134.617 43.0634C134.976 42.9006 136.09 42.7277 136.232 42.8128V42.8129ZM137.9 43.2441C137.9 43.4109 137.83 43.4355 137.73 43.3038C137.694 43.2552 137.717 43.1886 137.782 43.1558C137.847 43.123 137.9 43.1626 137.9 43.2441ZM137.461 43.4082C137.393 43.4633 137.269 43.4898 137.185 43.467C137.098 43.4433 137.151 43.4002 137.308 43.3667C137.502 43.3254 137.548 43.3377 137.461 43.4082ZM97.3327 43.6491C97.4769 43.6717 97.5948 43.7229 97.5948 43.7627C97.5948 43.8789 97.0885 43.8157 97.0385 43.6933C97.0134 43.6321 97.0104 43.5879 97.0318 43.595C97.0532 43.6022 97.1886 43.6265 97.3328 43.6491H97.3327ZM99.7499 43.8669C99.4296 43.9791 99.2457 43.9791 99.4587 43.8669C99.5548 43.8163 99.712 43.7772 99.8081 43.7801C99.9233 43.7835 99.9035 43.8131 99.7499 43.8669ZM99.0442 43.8581C99.0801 43.9054 99.0046 43.9218 98.8764 43.8945C98.6044 43.8365 98.57 43.772 98.8111 43.772C98.9034 43.772 99.0083 43.8107 99.0442 43.8581ZM114.041 44.073C114.224 44.2232 114.141 44.2336 112.701 44.2407C111.857 44.2449 111.049 44.2666 110.906 44.2891C110.763 44.3116 110.619 44.2942 110.586 44.2504C110.553 44.2065 110.365 44.1797 110.169 44.1908C109.639 44.2207 109.637 44.0825 110.167 44.0413C110.417 44.0218 110.597 44.0388 110.567 44.0788C110.471 44.205 110.65 44.1582 110.833 44.0094C111.031 43.8478 111.523 43.8188 111.632 43.9621C111.68 44.0254 111.781 44.0239 111.933 43.9578C112.19 43.8453 112.433 43.9217 112.315 44.0781C112.263 44.1465 112.292 44.153 112.4 44.0974C112.49 44.0514 112.852 43.991 113.204 43.9633C113.709 43.9236 113.887 43.9469 114.041 44.073V44.073ZM104.701 43.9619C104.701 44.0141 104.678 44.0568 104.649 44.0568C104.621 44.0568 104.566 44.0141 104.526 43.9619C104.486 43.9097 104.509 43.867 104.577 43.867C104.645 43.867 104.701 43.9097 104.701 43.9619ZM109.36 44.1518C109.465 44.2071 109.48 44.2444 109.396 44.2453C109.32 44.2462 109.225 44.204 109.186 44.1518C109.096 44.0339 109.136 44.0339 109.36 44.1518ZM63.8614 44.1648C63.8011 44.2442 64.2449 44.3378 64.3348 44.2645C64.4601 44.1624 64.9778 44.1431 64.9778 44.2405C64.9778 44.3008 65.3093 44.3153 65.8806 44.2801C66.5811 44.2369 66.8748 44.2591 67.1911 44.3794C67.4154 44.4646 67.5105 44.5148 67.4025 44.4909C67.2945 44.4669 67.1897 44.4845 67.1695 44.5298C67.1494 44.5752 67.0543 44.6262 66.9582 44.6432C66.862 44.6601 66.7449 44.7168 66.6978 44.769C66.6508 44.8212 66.6115 44.7704 66.6105 44.6559C66.6088 44.4593 66.5912 44.4554 66.2883 44.5843C66.001 44.7067 65.9514 44.7037 65.8067 44.555C65.6533 44.3973 65.6489 44.3973 65.7157 44.555C65.7699 44.6832 65.7216 44.7211 65.5042 44.7211C65.3492 44.7211 65.169 44.6463 65.1037 44.555C65.0378 44.4627 64.9834 44.4416 64.9814 44.5075C64.9777 44.6318 64.6284 44.6788 64.6284 44.555C64.6284 44.5158 64.2321 44.4862 63.7477 44.4892C63.2634 44.4923 62.8409 44.4602 62.8089 44.418C62.777 44.3758 62.6386 44.3413 62.5014 44.3413C62.3019 44.3413 62.2811 44.3176 62.3976 44.2226C62.5434 44.1038 63.9498 44.0478 63.8614 44.1644V44.1648ZM61.9491 44.1676C61.9491 44.2111 61.9098 44.2496 61.8617 44.2531C61.8137 44.2567 61.6067 44.2774 61.4017 44.2993C60.9408 44.3484 60.7767 44.1856 61.22 44.119C61.6584 44.0532 61.9491 44.0726 61.9491 44.1676ZM70.3362 44.4841C70.3362 44.5363 70.5328 44.5791 70.7731 44.5791C71.0134 44.5791 71.2485 44.5363 71.2956 44.4841C71.3526 44.4208 71.3819 44.4208 71.3832 44.4841C71.3858 44.6031 72.0837 44.6312 72.0837 44.5124C72.0837 44.4645 72.1313 44.4494 72.1895 44.4788C72.3005 44.5346 73.3252 44.6244 74.4135 44.6735C74.7659 44.6894 75.0542 44.712 75.0542 44.7238C75.0542 44.7874 76.5869 44.7884 76.6849 44.7248C76.86 44.6113 78.0246 44.5321 78.0246 44.6337C78.0246 44.682 78.1033 44.7215 78.1994 44.7215C78.2955 44.7215 78.3741 44.6803 78.3741 44.6299C78.3741 44.5726 79.1946 44.5551 80.5583 44.5832C81.7596 44.6079 82.8689 44.6276 83.0235 44.6271C83.178 44.6262 83.4794 44.6655 83.6933 44.7136C83.9271 44.7662 84.0821 44.7666 84.0821 44.7145C84.0821 44.6282 84.4895 44.6422 84.6 44.7323C84.6319 44.7582 85.162 44.7643 85.778 44.7457C86.5205 44.7234 86.9536 44.7495 87.0627 44.8233C87.1909 44.9101 87.2277 44.9059 87.2291 44.8044C87.2303 44.722 87.2624 44.7106 87.3164 44.7732C87.3678 44.8328 88.0305 44.8772 88.9746 44.8842C89.8396 44.8907 92.4606 44.9205 94.7991 44.9504C97.1376 44.9802 100.139 45.0104 101.468 45.0173C102.798 45.0242 103.885 45.0567 103.886 45.0894C103.886 45.1221 104.174 45.1488 104.526 45.1488C104.878 45.1488 105.167 45.1168 105.167 45.0776C105.167 45.0384 105.222 45.0064 105.29 45.0064C105.358 45.0064 105.381 45.0491 105.341 45.1013C105.302 45.1536 105.351 45.1963 105.451 45.1963C105.551 45.1962 105.633 45.239 105.633 45.2912C105.633 45.3434 105.688 45.3861 105.756 45.3861C105.824 45.3861 105.847 45.3434 105.807 45.2912C105.765 45.2351 105.893 45.1968 106.121 45.1977C106.413 45.1989 106.464 45.2215 106.332 45.2912C106.202 45.3592 106.197 45.3836 106.311 45.3847C106.429 45.3859 106.425 45.4189 106.29 45.5286C106.194 45.6069 106.007 45.671 105.874 45.671C105.741 45.671 105.633 45.7166 105.633 45.7723C105.633 45.8325 105.532 45.8476 105.385 45.8096C105.218 45.7665 105.164 45.78 105.217 45.8507C105.261 45.9085 105.266 45.9558 105.228 45.9558C105.19 45.9558 105.119 45.868 105.071 45.7606L104.982 45.5653L104.675 45.7622C104.464 45.8972 104.342 45.9256 104.287 45.8524C104.229 45.7767 104.177 45.7831 104.108 45.8745C104.029 45.9792 103.229 46.0027 99.8415 45.9998C97.5487 45.9978 94.7292 45.9688 93.576 45.9352C92.4227 45.9017 90.5094 45.8495 89.3241 45.8192C85.0442 45.7099 83.9417 45.6701 83.8458 45.6218C83.6314 45.5139 82.6928 45.4181 82.5506 45.4897C82.463 45.5338 82.361 45.5181 82.3087 45.4523C82.2412 45.3675 82.1891 45.3748 82.1035 45.4811C82.0405 45.5594 81.988 45.5808 81.9869 45.5286C81.9856 45.4686 81.2652 45.4379 80.0339 45.4451C78.088 45.4565 74.7631 45.3033 74.7628 45.2021C74.7627 45.1728 74.3565 45.1536 73.86 45.1594C73.0092 45.1695 71.0493 45.0396 70.7018 44.95C70.5736 44.917 70.5712 44.8815 70.6892 44.7657C70.808 44.6489 70.8051 44.63 70.6732 44.6639C70.584 44.6868 70.3648 44.7318 70.186 44.7638C69.9857 44.7997 69.8867 44.8665 69.9282 44.9379C69.9653 45.0017 69.9345 44.9869 69.8598 44.9052C69.75 44.785 69.6003 44.7703 69.0772 44.8281C68.7093 44.8688 68.3423 44.8612 68.2261 44.8106C68.1138 44.7616 67.8743 44.7157 67.6939 44.7086C67.3917 44.6967 67.388 44.6922 67.6468 44.6525C67.8643 44.6191 67.8906 44.5901 67.7633 44.5244C67.5832 44.4315 67.7346 44.4199 69.3753 44.4005C69.9476 44.3938 70.3363 44.4276 70.3362 44.4841L70.3362 44.4841ZM104.192 45.3381C104.229 45.4162 104.306 45.4564 104.363 45.4275C104.528 45.3446 104.485 45.1962 104.297 45.1962C104.193 45.1962 104.152 45.2519 104.192 45.3381ZM110.986 45.0135C110.867 45.1961 110.874 45.2169 111.038 45.1653C111.203 45.1139 111.21 45.1347 111.092 45.3151L110.954 45.5247L110.838 45.313C110.705 45.0701 110.465 45.0348 110.367 45.2437C110.33 45.3221 110.342 45.3861 110.393 45.3861C110.444 45.3861 110.486 45.4508 110.486 45.5297C110.486 45.6465 110.381 45.662 109.923 45.6125C109.539 45.5709 109.36 45.5855 109.36 45.6588C109.36 45.7183 109.176 45.7659 108.946 45.7659C108.674 45.7659 108.558 45.73 108.61 45.6615C108.667 45.5873 108.619 45.5879 108.445 45.6637C108.242 45.7523 108.212 45.7459 108.269 45.6257C108.306 45.5462 108.384 45.4811 108.441 45.4811C108.498 45.4811 108.545 45.4384 108.545 45.3861C108.545 45.1882 108.334 45.3026 108.195 45.576C108.033 45.8949 108.029 45.8967 107.737 45.7693C107.59 45.705 107.544 45.6047 107.585 45.433C107.616 45.2985 107.596 45.2008 107.54 45.216C107.484 45.2313 107.412 45.202 107.38 45.1509C107.345 45.096 107.622 45.0515 108.058 45.042C108.731 45.0273 108.805 45.0455 108.921 45.2535C109.046 45.4778 109.477 45.5762 109.477 45.3805C109.477 45.3252 109.425 45.3061 109.362 45.338C109.297 45.3707 109.275 45.3344 109.313 45.2546C109.352 45.172 109.456 45.1372 109.564 45.1709C109.683 45.2083 109.719 45.1906 109.666 45.1202C109.572 44.9966 109.959 44.9054 110.409 44.9451C110.569 44.9593 110.796 44.9329 110.913 44.8865C111.103 44.8108 111.111 44.824 110.986 45.0135V45.0135ZM107.8 45.3703C107.767 45.4138 107.814 45.4494 107.904 45.4494C107.995 45.4494 108.042 45.4138 108.009 45.3703C107.976 45.3268 107.929 45.2912 107.904 45.2912C107.88 45.2912 107.833 45.3268 107.8 45.3703ZM112.556 44.9956C112.591 45.0418 112.515 45.102 112.387 45.1292C112.233 45.1621 112.179 45.2292 112.226 45.3299C112.265 45.413 112.248 45.4811 112.188 45.4811C112.028 45.4811 112.054 45.1709 112.225 45.0312C112.399 44.8895 112.469 44.8819 112.556 44.9956ZM111.841 45.2595C111.808 45.3292 111.767 45.3861 111.748 45.3861C111.73 45.3861 111.688 45.3292 111.655 45.2595C111.623 45.1899 111.664 45.1329 111.748 45.1329C111.832 45.1329 111.874 45.1899 111.841 45.2595ZM111.392 45.5256C111.268 45.6022 111.051 45.6663 110.911 45.668C110.633 45.6713 110.456 45.5273 110.63 45.4396C110.689 45.4095 110.758 45.434 110.783 45.4941C110.816 45.5761 110.889 45.5763 111.076 45.495C111.434 45.3388 111.66 45.3608 111.392 45.5258V45.5256ZM112.94 45.5385C112.901 45.57 112.801 45.5734 112.717 45.5459C112.624 45.5156 112.651 45.4931 112.787 45.4886C112.91 45.4845 112.979 45.5069 112.94 45.5385V45.5385ZM106.797 45.5761C106.947 45.6547 106.943 45.6683 106.768 45.6696C106.656 45.6704 106.565 45.6283 106.565 45.5761C106.565 45.4603 106.578 45.4603 106.797 45.5761ZM107.423 45.7207C107.479 45.8387 107.449 45.8468 107.261 45.7648C106.991 45.647 106.965 45.5761 107.193 45.5761C107.282 45.5761 107.386 45.6411 107.423 45.7207Z" fill="url(#paint0_linear)"/>
<defs>
<linearGradient id="paint0_linear" x1="5.70904e-07" y1="23" x2="211" y2="23" gradientUnits="userSpaceOnUse">
<stop stop-color="#FFCA41"/>
<stop offset="1" stop-color="#FFDA55"/>
</linearGradient>
</defs>
</svg>